<svg width="334" height="291" viewBox="0 0 334 291" fill="none" xmlns="http://www.w3.org/2000/svg">
<mask id="mask0_501_3244" style="mask-type:luminance" maskUnits="userSpaceOnUse" x="0" y="0" width="334" height="291">
<path d="M0.71875 0.801758H333.719V290.802H0.71875V0.801758Z" fill="white"/>
</mask>
<g mask="url(#mask0_501_3244)">
<path d="M314.922 86.6296H215.557V19.6191C215.557 18.3848 215.438 17.166 215.193 15.9577C214.953 14.7493 214.594 13.5775 214.125 12.4421C213.651 11.3014 213.073 10.2233 212.385 9.19727C211.698 8.17643 210.922 7.22852 210.047 6.35352C209.177 5.48372 208.224 4.70768 207.198 4.02018C206.177 3.33789 205.094 2.75976 203.953 2.28581C202.812 1.81706 201.635 1.45768 200.427 1.2181C199.219 0.978516 197.995 0.853516 196.76 0.853516H19.5208C18.2865 0.853516 17.0625 0.978516 15.8542 1.2181C14.6458 1.45768 13.4687 1.81706 12.3281 2.28581C11.1875 2.75976 10.1042 3.33789 9.07812 4.02018C8.05729 4.70768 7.10417 5.48372 6.23438 6.35352C5.35938 7.22852 4.58333 8.17643 3.89583 9.19727C3.20833 10.2233 2.63021 11.3014 2.15625 12.4421C1.68229 13.5775 1.32813 14.7493 1.08333 15.9577C0.843749 17.166 0.723959 18.3848 0.71875 19.6191V153.64C0.723959 154.874 0.843749 156.093 1.08333 157.301C1.32813 158.51 1.68229 159.682 2.15625 160.817C2.63021 161.958 3.20833 163.036 3.89583 164.062C4.58333 165.088 5.35938 166.031 6.23438 166.906C7.10417 167.775 8.05729 168.551 9.07812 169.239C10.1042 169.921 11.1875 170.499 12.3281 170.973C13.4687 171.442 14.6458 171.801 15.8542 172.041C17.0625 172.281 18.2865 172.406 19.5208 172.406H49.0573V199.213C49.0573 199.739 49.1354 200.26 49.2917 200.77C49.4427 201.275 49.6667 201.749 49.9635 202.192C50.2604 202.635 50.6094 203.02 51.0208 203.359C51.4323 203.692 51.8854 203.963 52.375 204.166C52.8646 204.369 53.375 204.499 53.9062 204.551C54.4323 204.604 54.9583 204.577 55.4792 204.473C56 204.369 56.4948 204.192 56.9635 203.942C57.4323 203.692 57.8542 203.38 58.2292 203.005L88.8802 172.406H118.88V239.416C118.885 240.65 119.005 241.869 119.245 243.077C119.49 244.286 119.844 245.458 120.318 246.593C120.792 247.734 121.37 248.812 122.057 249.838C122.745 250.859 123.521 251.807 124.396 252.682C125.266 253.551 126.214 254.327 127.24 255.015C128.266 255.697 129.349 256.275 130.49 256.749C131.63 257.218 132.807 257.577 134.016 257.817C135.224 258.057 136.448 258.182 137.682 258.182H245.562L276.214 288.781C276.589 289.156 277.01 289.468 277.479 289.718C277.948 289.968 278.443 290.145 278.964 290.249C279.484 290.354 280.01 290.38 280.536 290.327C281.068 290.275 281.578 290.145 282.068 289.942C282.557 289.739 283.01 289.468 283.422 289.135C283.828 288.796 284.182 288.406 284.479 287.968C284.776 287.525 285 287.051 285.151 286.541C285.307 286.036 285.38 285.515 285.38 284.984V258.182H314.922C316.156 258.182 317.38 258.057 318.589 257.817C319.797 257.577 320.974 257.218 322.115 256.749C323.255 256.275 324.333 255.697 325.359 255.015C326.385 254.327 327.339 253.551 328.208 252.682C329.083 251.807 329.859 250.859 330.547 249.838C331.234 248.812 331.812 247.734 332.286 246.593C332.755 245.458 333.115 244.286 333.354 243.077C333.599 241.869 333.719 240.65 333.719 239.416V105.395C333.719 104.161 333.599 102.942 333.354 101.734C333.115 100.525 332.755 99.3535 332.286 98.2181C331.812 97.0775 331.234 95.9994 330.547 94.9733C329.859 93.9473 329.083 93.0046 328.208 92.1296C327.339 91.2598 326.385 90.4837 325.359 89.7962C324.333 89.1139 323.255 88.5358 322.115 88.0619C320.974 87.5931 319.797 87.2337 318.589 86.9941C317.38 86.7546 316.156 86.6296 314.922 86.6296ZM86.6562 161.682C85.1719 161.682 83.9062 162.208 82.8542 163.249L59.8021 186.27V167.046C59.8021 166.692 59.7656 166.343 59.6979 165.999C59.6302 165.656 59.526 165.317 59.3906 164.994C59.2604 164.666 59.0938 164.359 58.8958 164.067C58.7031 163.775 58.4792 163.505 58.2292 163.255C57.9792 163.005 57.7083 162.781 57.4167 162.588C57.1198 162.39 56.8125 162.229 56.4844 162.093C56.1615 161.958 55.8229 161.854 55.4792 161.786C55.1302 161.718 54.7813 161.682 54.4323 161.682H19.5208C18.9896 161.682 18.4688 161.63 17.9479 161.525C17.4271 161.426 16.9271 161.27 16.4375 161.067C15.9479 160.869 15.4844 160.619 15.0469 160.327C14.6042 160.031 14.1979 159.697 13.8229 159.327C13.4531 158.952 13.1146 158.546 12.8229 158.109C12.5312 157.671 12.2813 157.208 12.0781 156.718C11.875 156.229 11.724 155.729 11.6198 155.213C11.5156 154.692 11.4635 154.171 11.4635 153.64V19.6191C11.4635 19.0879 11.5156 18.5671 11.6198 18.0514C11.724 17.5306 11.875 17.0306 12.0781 16.541C12.2813 16.0514 12.5312 15.5879 12.8229 15.1504C13.1146 14.7129 13.4531 14.3066 13.8229 13.9316C14.1979 13.5618 14.6042 13.2285 15.0469 12.9316C15.4844 12.64 15.9479 12.39 16.4375 12.1921C16.9271 11.9889 17.4271 11.8327 17.9479 11.7337C18.4688 11.6296 18.9896 11.5775 19.5208 11.5775H196.76C197.292 11.5775 197.812 11.6296 198.333 11.7337C198.849 11.8327 199.354 11.9889 199.844 12.1921C200.333 12.39 200.797 12.64 201.234 12.9316C201.677 13.2285 202.083 13.5618 202.458 13.9316C202.828 14.3066 203.167 14.7129 203.458 15.1504C203.75 15.5879 204 16.0514 204.203 16.541C204.406 17.0306 204.557 17.5306 204.661 18.0514C204.766 18.5671 204.818 19.0879 204.818 19.6191V153.64C204.818 154.171 204.766 154.692 204.661 155.213C204.557 155.729 204.406 156.229 204.203 156.718C204 157.208 203.75 157.671 203.458 158.109C203.167 158.546 202.828 158.952 202.458 159.327C202.083 159.697 201.677 160.031 201.234 160.327C200.797 160.619 200.333 160.869 199.844 161.067C199.354 161.27 198.849 161.426 198.333 161.525C197.812 161.63 197.292 161.682 196.76 161.682H86.6562ZM322.979 239.416C322.979 239.947 322.927 240.468 322.823 240.984C322.719 241.505 322.568 242.005 322.365 242.494C322.161 242.984 321.911 243.447 321.62 243.885C321.323 244.322 320.99 244.729 320.62 245.104C320.245 245.473 319.839 245.807 319.396 246.104C318.958 246.395 318.495 246.645 318.005 246.843C317.516 247.046 317.01 247.202 316.495 247.301C315.974 247.406 315.453 247.458 314.922 247.458H280.01C279.656 247.458 279.307 247.494 278.964 247.562C278.62 247.63 278.281 247.734 277.958 247.869C277.63 248.005 277.323 248.166 277.026 248.364C276.734 248.557 276.464 248.781 276.214 249.031C275.964 249.281 275.74 249.551 275.547 249.843C275.349 250.135 275.182 250.442 275.047 250.77C274.917 251.093 274.812 251.432 274.745 251.775C274.677 252.119 274.641 252.468 274.641 252.822V272.046L251.583 249.025C250.536 247.984 249.271 247.458 247.786 247.458H137.682C137.151 247.458 136.63 247.406 136.109 247.301C135.589 247.202 135.089 247.046 134.599 246.843C134.109 246.645 133.646 246.395 133.208 246.104C132.766 245.807 132.359 245.473 131.984 245.104C131.609 244.729 131.276 244.322 130.984 243.885C130.693 243.447 130.443 242.984 130.24 242.494C130.036 242.005 129.885 241.505 129.781 240.984C129.677 240.468 129.625 239.947 129.625 239.416V172.406H196.76C197.995 172.406 199.219 172.281 200.427 172.041C201.635 171.801 202.812 171.442 203.953 170.973C205.094 170.499 206.177 169.921 207.198 169.239C208.224 168.551 209.177 167.775 210.047 166.906C210.922 166.031 211.698 165.088 212.385 164.062C213.073 163.036 213.651 161.958 214.125 160.817C214.594 159.682 214.953 158.51 215.193 157.301C215.438 156.093 215.557 154.874 215.557 153.64V97.3535H314.922C315.453 97.3535 315.974 97.4056 316.495 97.5098C317.01 97.6087 317.516 97.765 318.005 97.9681C318.495 98.166 318.958 98.416 319.396 98.7077C319.839 99.0046 320.245 99.3379 320.62 99.7077C320.99 100.083 321.323 100.489 321.62 100.926C321.911 101.364 322.161 101.827 322.365 102.317C322.568 102.807 322.719 103.307 322.823 103.822C322.927 104.343 322.979 104.864 322.979 105.395V239.416Z" fill="#FF2C07"/>
</g>
</svg>
