<svg width="431" height="213" viewBox="0 0 431 213" fill="none" xmlns="http://www.w3.org/2000/svg">
<mask id="mask0_501_1720" style="mask-type:luminance" maskUnits="userSpaceOnUse" x="0" y="0" width="431" height="213">
<path d="M0.816406 0.765625H430.816V212.766H0.816406V0.765625Z" fill="white"/>
</mask>
<g mask="url(#mask0_501_1720)">
<path d="M413.857 101.172V25.5729C413.857 12.2812 403.018 1.49479 389.747 1.49479H326.133C312.815 1.49479 302.018 12.3177 302.018 25.5729V101.172C295.32 101.943 289.68 106.24 287.039 112.12C284.523 105.833 278.716 101.214 271.732 100.443V24.8438C271.732 11.5469 260.893 0.765625 247.622 0.765625H184.008C170.732 0.765625 159.893 11.5885 159.893 24.8438V100.443C153.034 101.214 147.268 105.714 144.711 111.875C142.112 105.833 136.388 101.458 129.607 100.688V25.0885C129.607 11.7917 118.768 1.01042 105.497 1.01042H41.9245C28.6068 1.01042 17.7682 11.8333 17.7682 25.0885V100.688C8.42969 101.74 1.16406 109.688 1.16406 119.292V144.422H14.1172V212.281H32.0599V144.422H111.424V212.281H129.445V144.422H146.253V144.182H156.242V212.036H174.185V144.182H253.549V212.036H271.529V144.182H285.372V144.911H298.326V212.766H316.268V144.911H395.633V212.766H413.576V144.911H430.383V119.781C430.461 110.172 423.195 102.229 413.857 101.172ZM408.742 207.865H400.622V145.641H408.742V207.865ZM425.549 140.005H290.284V119.781C290.284 112.646 295.685 106.807 302.628 106.036C303.112 105.995 303.602 105.958 304.128 105.958H411.706C412.195 105.958 412.721 105.995 413.211 106.036C420.148 106.766 425.549 112.646 425.549 119.781V140.005ZM311.393 207.865H303.279V145.641H311.393V207.865ZM306.93 25.5729C306.93 14.9948 315.539 6.40104 326.133 6.40104H389.706C400.299 6.40104 408.904 14.9948 408.904 25.5729V101.052H306.93V25.5729ZM266.617 207.13H258.497V144.911H266.617V207.13ZM283.424 139.276H148.201V119.047C148.201 111.917 153.602 106.078 160.544 105.307C161.029 105.266 161.518 105.229 162.044 105.229H269.622C270.112 105.229 270.638 105.266 271.128 105.307C278.065 106.036 283.466 111.917 283.466 119.047V139.276H283.424ZM169.273 207.13H161.154V144.911H169.273V207.13ZM164.805 24.8438C164.805 14.2656 173.414 5.67188 184.008 5.67188H247.581C258.174 5.67188 266.784 14.2656 266.784 24.8438V100.323H164.805V24.8438ZM124.534 207.375H116.414V145.156H124.534V207.375ZM27.1849 207.375H19.0286V145.156H27.1484V207.375H27.1849ZM6.07552 139.521V119.292C6.07552 112.156 11.4766 106.323 18.4193 105.552C18.9036 105.51 19.3932 105.469 19.9193 105.469H127.497C127.987 105.469 128.513 105.51 129.003 105.552C135.94 106.281 141.341 112.156 141.341 119.292V139.521H6.07552ZM22.6797 25.0885C22.6797 14.5104 31.2891 5.91667 41.8828 5.91667H105.497C116.091 5.91667 124.695 14.5104 124.695 25.0885V100.568H22.6797V25.0885Z" fill="#FF2C07"/>
</g>
</svg>
