<svg width="157" height="270" viewBox="0 0 157 270" fill="none" xmlns="http://www.w3.org/2000/svg">
<mask id="mask0_3_16" style="mask-type:luminance" maskUnits="userSpaceOnUse" x="0" y="0" width="157" height="270">
<path d="M0 0H156.906V269.891H0V0Z" fill="white"/>
</mask>
<g mask="url(#mask0_3_16)">
<path d="M144.349 94.4635H12.5469C9.09375 94.4635 6.27083 91.651 6.27083 88.2031C6.27083 84.7448 9.09375 81.9323 12.5469 81.9323H144.349C147.813 81.9323 150.635 84.7448 150.635 88.2031C150.635 91.651 147.813 94.4635 144.349 94.4635ZM113.344 244.833H43.5625L25.5208 100.724H131.385L113.344 244.833ZM131.802 257.359C131.802 260.813 128.984 263.63 125.521 263.63H31.3854C27.9219 263.63 25.099 260.813 25.099 257.359C25.099 253.901 27.9219 251.094 31.3854 251.094H125.521C128.984 251.094 131.802 253.901 131.802 257.359ZM34.5208 41.2083C34.5208 32.5729 41.5625 25.5417 50.2135 25.5417H106.693C115.354 25.5417 122.385 32.5729 122.385 41.2083V75.6667H107.5V49.5521C107.5 47.8177 106.094 46.4219 104.365 46.4219C102.63 46.4219 101.229 47.8177 101.229 49.5521V75.6667H55.6875V49.5521C55.6875 47.8177 54.276 46.4219 52.5417 46.4219C50.8073 46.4219 49.401 47.8177 49.401 49.5521V75.6667H34.5208V41.2083ZM144.349 75.6667H128.667V41.2083C128.667 29.1146 118.807 19.2813 106.693 19.2813H50.2135C38.099 19.2813 28.2396 29.1146 28.2396 41.2083V75.6667H25.099V30.7708C25.099 17.5313 35.8958 6.74479 49.1719 6.74479C50.9063 6.74479 52.3073 5.34896 52.3073 3.61458C52.3073 1.88021 50.9063 0.484375 49.1719 0.484375C32.4427 0.484375 18.8281 14.0729 18.8281 30.7708V75.6667H12.5469C5.63021 75.6667 0 81.2865 0 88.2031C0 95.1042 5.63021 100.724 12.5469 100.724H19.1927L37.2396 244.833H31.3854C24.4583 244.833 18.8281 250.453 18.8281 257.359C18.8281 264.271 24.4583 269.891 31.3854 269.891H125.521C132.448 269.891 138.078 264.271 138.078 257.359C138.078 250.453 132.448 244.833 125.521 244.833H119.667L137.708 100.724H144.349C151.276 100.724 156.906 95.1042 156.906 88.2031C156.906 81.2865 151.276 75.6667 144.349 75.6667Z" fill="#FF2C07"/>
</g>
</svg>
