<svg width="489" height="518" viewBox="0 0 489 518" fill="none" xmlns="http://www.w3.org/2000/svg">
<path fill-rule="evenodd" clip-rule="evenodd" d="M10.3906 133.276C8.30208 131.188 8.30208 127.807 10.3906 125.719C12.474 123.635 15.8594 123.635 17.9427 125.719C20.0313 127.807 20.0313 131.188 17.9427 133.276C15.8594 135.365 12.474 135.365 10.3906 133.276ZM355.724 478.609C353.635 476.526 353.635 473.141 355.724 471.052C357.807 468.969 361.188 468.969 363.276 471.052C365.365 473.141 365.365 476.521 363.276 478.609C361.193 480.698 357.807 480.698 355.724 478.609ZM387.865 518H392.797L378.724 503.922H352.609L340.276 516.255H320.688L320.646 516.151L341.719 495.078H366.385L379.74 481.724V457.057L400.818 435.984L400.922 436.026V455.615L388.583 467.948C388.583 476.651 388.583 485.354 388.583 494.057L402.667 508.135L416.74 494.057V467.948L404.406 455.615V436.026L404.51 435.984L425.589 457.057C425.589 465.281 425.589 473.5 425.589 481.724L438.943 495.078H463.609L484.682 516.151L484.641 516.255H465.052L452.724 503.922H426.609L412.531 518H417.469L428.057 507.411H451.276L461.865 518H489V490.865L478.411 480.276V457.057L489 446.469V441.531L474.922 455.609V481.724L487.255 494.057V513.641L487.151 513.688L466.078 492.615V467.948L452.724 454.594H428.057L406.979 433.516L407.026 433.411H426.615L438.948 445.745H465.057L479.135 431.667L465.057 417.594H438.948L426.615 429.922H407.026L406.979 429.823L428.057 408.745H452.724L466.078 395.391C466.078 387.167 466.078 378.948 466.078 370.724L487.151 349.651L487.255 349.693V369.281L474.922 381.615V407.729L489 421.802V416.87L478.411 406.281V383.057L489 372.469V318.203L478.411 307.615V284.391L489 273.802V268.87L474.922 282.948V309.057L487.255 321.391V340.979L487.151 341.021L466.078 319.948V295.281L452.724 281.927H428.057L406.979 260.854L407.026 260.75H426.615L438.948 273.083H465.057L479.135 259.005L465.057 244.927H438.948L426.615 257.26H407.026L406.979 257.156L428.057 236.083H452.724L466.078 222.729C466.078 214.505 466.078 206.281 466.078 198.062L487.151 176.99L487.255 177.031V196.62L474.922 208.953V235.062L489 249.141V244.208L478.411 233.62V210.391L489 199.797V145.536L478.411 134.943V111.719L489 101.13V96.1979L474.922 110.276V136.385L487.255 148.724V168.307L487.151 168.354L466.078 147.281V122.609L452.724 109.255H428.057L406.979 88.1823L407.026 88.0781H426.615L438.948 100.411H465.057L479.135 86.3333L465.057 72.2552H438.948L426.615 84.5885H407.026L406.979 84.4844L428.057 63.4115H452.724L466.078 50.0573C466.078 41.8333 466.078 33.6146 466.078 25.3906L487.151 4.31771L487.255 4.35938V23.9479L474.922 36.2812V62.3906L489 76.4688V71.5365L478.411 60.9479V37.724L489 27.1354V0.00520833H461.865L451.276 10.5938H428.057L417.469 0.00520833H412.531L426.609 14.0781H452.724L465.052 1.74479H484.641L484.688 1.84896L463.609 22.9271H438.943L425.589 36.2812V60.9479L404.516 82.0208L404.411 81.9792V62.3906L416.745 50.0573V23.9427L402.667 9.86458L388.589 23.9427C388.589 32.6458 388.589 41.349 388.589 50.0573L400.922 62.3906V81.974L400.818 82.0208L379.745 60.9427V36.276L366.391 22.9219H341.724L320.651 1.84896L320.693 1.74479H340.281L352.615 14.0781H378.724L392.802 0H387.87L377.281 10.5885H354.057L343.469 0H289.203L278.615 10.5885H255.391L244.802 0H239.87L253.948 14.0781H280.057L292.391 1.74479H311.979L312.021 1.84896L290.948 22.9219H266.281L252.927 36.276V60.9427L231.854 82.0208L231.75 81.974V62.3906L244.083 50.0573V23.9427L230.005 9.86458L215.927 23.9427C215.927 32.6458 215.927 41.349 215.927 50.0573L228.26 62.3906V81.974L228.156 82.0208L207.083 60.9427V36.276L193.729 22.9219H169.062L147.99 1.84896L148.031 1.74479H167.62L179.953 14.0781H206.062L220.141 0H215.208L204.62 10.5885H181.396L170.807 0C152.719 0 134.63 0 116.542 0L105.953 10.5885H82.7292L72.1406 0H67.2083L81.2865 14.0781H107.396L119.729 1.74479H139.312L139.359 1.84896L118.286 22.9219H93.6198L80.2656 36.276V60.9427L59.1875 82.0208L59.0833 81.974V62.3906L71.4167 50.0573V23.9427L57.3438 9.86458L43.2656 23.9427C43.2656 32.6458 43.2656 41.349 43.2656 50.0573L55.599 62.3906V81.974L55.4948 82.0208L34.4219 60.9427V36.276L21.0625 22.9219H-3.60417L-24.6875 1.84896L-24.6406 1.74479H-5.05729L7.27604 14.0781H33.3906L47.4688 0H42.5365L31.9427 10.5885H8.72396L-1.86458 0H-29V27.1354L-18.4115 37.724V60.9427L-29 71.5312V76.4688L-14.9219 62.3906V36.276L-27.2552 23.9479V4.35938L-27.151 4.3125L-6.07812 25.3906V50.0573L7.27604 63.4115H31.9427L53.0156 84.4844L52.974 84.5885H33.3854L21.0521 72.2552H-5.05729L-19.1354 86.3333L-5.05729 100.406H21.0521L33.3854 88.0781H52.974L53.0156 88.1823L31.9427 109.255H7.27604L-6.07812 122.609V147.276L-27.151 168.349L-27.2552 168.307V148.719L-14.9219 136.385V110.276L-29 96.1979V101.13L-18.4115 111.719V134.943L-29 145.531V199.797L-18.4115 210.385V233.609L-29 244.198V249.13L-14.9219 235.052V208.943L-27.2552 196.609V177.026L-27.151 176.979L-6.07812 198.052V222.724L7.27604 236.078H31.9427L53.0156 257.151L52.974 257.255H33.3854L21.0521 244.922H-5.05729L-19.1354 259L-5.05729 273.078H21.0521L33.3854 260.74H52.974L53.0156 260.844L31.9427 281.917H7.27604L-6.07812 295.276V319.943L-27.151 341.016L-27.2552 340.969V321.385L-14.9219 309.052V282.943L-29 268.865V273.797L-18.4115 284.385V307.609L-29 318.198V372.464L-18.4115 383.052V406.276L-29 416.865V421.797L-14.9219 407.719V381.609L-27.2552 369.276V349.688L-27.151 349.646L-6.07812 370.719V395.385L7.27604 408.74H31.9427L53.0156 429.812L52.974 429.917H33.3854L21.0521 417.583H-5.05729L-19.1354 431.661L-5.05729 445.74H21.0521L33.3854 433.406H52.974L53.0156 433.51L31.9427 454.583H7.27604L-6.07812 467.938V492.604L-27.151 513.677L-27.2552 513.635V494.047L-14.9219 481.714V455.604L-29 441.526V446.458L-18.4115 457.047V480.271L-29 490.859V517.995H-1.86458L8.72396 507.406H31.9427L42.5312 517.995H47.4635L33.3906 503.917H7.27604L-5.05729 516.25H-24.6406L-24.6875 516.146L-3.61458 495.073H21.0521L34.4115 481.714V457.047L55.4844 435.974L55.5885 436.021V455.604L43.2552 467.938C43.2552 476.641 43.2552 485.349 43.2552 494.052L57.3333 508.13L71.4062 494.052V467.938L59.0781 455.604V436.021L59.1823 435.974L80.2552 457.047C80.2552 465.271 80.2552 473.495 80.2552 481.714L93.6094 495.073H118.276L139.349 516.146L139.307 516.25H119.719L107.385 503.917H81.276L67.1979 517.995H72.1302L82.7188 507.406H105.943L116.531 517.995C121.245 517.995 170.797 517.995 170.797 517.995L181.385 507.406H204.609L215.198 517.995H220.13L206.052 503.917H179.943L167.609 516.25H148.021L147.979 516.146L169.052 495.073H193.719L207.073 481.714V457.047L228.146 435.974L228.25 436.021V455.604L215.917 467.938C215.917 476.641 215.917 485.349 215.917 494.052L229.995 508.13L244.073 494.052V467.938L231.74 455.604V436.021L231.844 435.974L252.917 457.047C252.917 465.271 252.917 473.495 252.917 481.714L266.271 495.073H290.938L312.01 516.146L311.969 516.25H292.38L280.047 503.917H253.938L239.859 517.995H244.792L255.38 507.406H278.604L289.193 517.995H343.458L354.047 507.406H377.271L387.865 518ZM316.333 490.865L305.745 480.276V457.057L316.333 446.469L326.922 457.052V480.276L316.333 490.865ZM316.333 441.531L330.406 455.609L330.411 481.719L318.078 494.057V513.641L318.182 513.682L339.255 492.609V467.948L352.609 454.589H377.276L398.349 433.516L398.307 433.411H378.719L366.385 445.745H340.276L326.198 431.667L340.276 417.589H366.385L378.719 429.922H398.307L398.349 429.818L377.276 408.745H352.609L339.255 395.391V370.724L318.182 349.651L318.078 349.693V369.281L330.411 381.615V407.724L316.333 421.802L302.255 407.724V381.615L314.589 369.281V349.693L314.484 349.651L293.411 370.724C293.411 378.948 293.411 387.167 293.411 395.391L280.057 408.745H255.391L234.312 429.818L234.359 429.922H253.948L266.276 417.589H292.391L306.469 431.667L292.391 445.745H266.276L253.948 433.411H234.359L234.312 433.516L255.391 454.589H280.057L293.411 467.948V492.609L314.484 513.682L314.589 513.641V494.057L302.255 481.719V455.609L316.333 441.531ZM316.333 416.865L305.745 406.276V383.057L316.333 372.464L326.922 383.057V406.276L316.333 416.865ZM343.464 345.333L354.057 334.745H377.276L387.865 345.333L377.276 355.922H354.057L343.464 345.333ZM392.797 345.333L378.724 331.255H352.609L340.276 343.589H320.688L320.646 343.484L341.719 322.411H366.385L379.745 309.057V284.391L400.818 263.312L400.922 263.359V282.948L388.589 295.281C388.589 303.979 388.589 312.688 388.589 321.391L402.667 335.469L416.745 321.391V295.281L404.406 282.948V263.359L404.51 263.312L425.589 284.391C425.589 292.615 425.589 300.833 425.589 309.057L438.943 322.411H463.609L484.682 343.484L484.641 343.589H465.052L452.724 331.255H426.609L412.531 345.333L426.609 359.411H452.724L465.052 347.078H484.641L484.688 347.182L463.609 368.255H438.943L425.589 381.609V406.276L404.516 427.349L404.411 427.307V407.719L416.745 395.385V369.276L402.667 355.198L388.589 369.276C388.589 377.979 388.589 386.682 388.589 395.385L400.922 407.719V427.307L400.818 427.349L379.745 406.276V381.609L366.391 368.255H341.724L320.651 347.182L320.693 347.078H340.281L352.615 359.411H378.724L392.797 345.333ZM417.469 345.333L428.057 334.745H451.276L461.865 345.333L451.276 355.922H428.057L417.469 345.333ZM364.943 491.589L376.255 480.276V458.078H354.057L342.745 469.391V491.589H364.943ZM342.745 393.943V371.745H364.943L376.255 383.057V405.255H354.057L342.745 393.943ZM440.391 371.745H462.589V393.943L451.276 405.255H429.078V383.057L440.391 371.745ZM462.589 469.391V491.589H440.385L429.078 480.276V458.078H451.276L462.589 469.391ZM364.943 442.255H341.719L331.13 431.667L341.719 421.078H364.943L375.531 431.667L364.943 442.255ZM392.078 393.943V370.719L402.667 360.13L413.255 370.719V393.943L402.667 404.531L392.078 393.943ZM440.391 421.078H463.609L474.198 431.667L463.609 442.255H440.391L429.797 431.667L440.391 421.078ZM413.255 469.391V492.609L402.667 503.203L392.078 492.609V469.391L402.667 458.797L413.255 469.391ZM355.724 384.724C357.807 382.635 361.188 382.635 363.276 384.724C365.365 386.807 365.365 390.193 363.276 392.276C361.193 394.365 357.807 394.365 355.724 392.276C353.635 390.193 353.635 386.807 355.724 384.724ZM449.609 384.724C451.698 386.807 451.698 390.193 449.609 392.276C447.526 394.365 444.141 394.365 442.052 392.276C439.969 390.193 439.969 386.807 442.052 384.724C444.141 382.635 447.526 382.635 449.609 384.724ZM449.609 478.609C447.526 480.698 444.141 480.698 442.052 478.609C439.969 476.526 439.969 473.141 442.052 471.052C444.141 468.969 447.521 468.969 449.609 471.052C451.698 473.141 451.698 476.526 449.609 478.609ZM183.052 478.609C180.969 476.526 180.969 473.141 183.052 471.052C185.141 468.969 188.526 468.969 190.609 471.052C192.698 473.141 192.698 476.521 190.609 478.609C188.526 480.698 185.141 480.698 183.052 478.609ZM143.667 490.865L133.078 480.276V457.057L143.667 446.469L154.255 457.052V480.276L143.667 490.865ZM143.667 441.531L129.589 455.609V481.719L141.922 494.057V513.641L141.818 513.682L120.745 492.609V467.948L107.391 454.589H82.724L61.651 433.516L61.6927 433.411H81.2812L93.6146 445.745H119.724L133.802 431.667L119.724 417.589H93.6094L81.276 429.922H61.6875L61.6458 429.818L82.7188 408.745H107.385L120.74 395.391C120.74 387.167 120.74 378.948 120.74 370.724L141.818 349.651L141.922 349.693V369.281L129.589 381.615V407.724L143.661 421.802L157.74 407.724V381.615L145.406 369.281V349.693L145.51 349.651L166.583 370.724V395.391L179.943 408.745H204.609L225.682 429.818L225.641 429.922H206.052L193.719 417.589H167.609L153.531 431.667L167.609 445.745H193.724L206.052 433.411H225.641L225.688 433.516L204.609 454.589H179.943L166.589 467.948V492.609L145.516 513.682L145.411 513.641V494.057L157.745 481.719V455.609L143.667 441.531ZM143.667 416.865L133.078 406.276V383.057L143.667 372.464L154.255 383.057V406.276L143.667 416.865ZM170.797 345.333L181.385 334.745H204.609L215.198 345.333L204.609 355.922H181.385L170.797 345.333ZM220.13 345.333L206.057 331.255H179.943L167.609 343.589H148.026L147.979 343.484L169.052 322.411H193.719L207.078 309.057V284.391L228.151 263.312L228.255 263.359V282.948L215.922 295.281C215.922 303.979 215.922 312.688 215.922 321.391L230 335.469L244.078 321.391V295.281L231.74 282.948V263.359L231.844 263.312L252.917 284.391C252.917 292.615 252.917 300.833 252.917 309.057L266.276 322.411H290.943L312.016 343.484L311.969 343.589H292.385L280.052 331.255H253.943L239.865 345.333L253.943 359.411H280.052L292.385 347.078H311.969L312.016 347.182L290.943 368.255H266.276L252.917 381.609V406.276L231.844 427.349L231.74 427.307V407.719L244.078 395.385V369.276L230 355.198L215.922 369.276C215.922 377.979 215.922 386.682 215.922 395.385L228.255 407.719V427.307L228.151 427.349L207.078 406.276V381.609L193.719 368.255H169.052L147.979 347.182L148.026 347.078H167.609L179.943 359.411H206.057L220.13 345.333ZM244.797 345.333L255.391 334.745H278.609L289.198 345.333L278.609 355.922H255.391L244.797 345.333ZM192.276 491.589H170.078V469.391L181.385 458.078H203.589V480.276L192.276 491.589ZM170.078 393.943V371.745H192.276L203.589 383.057V405.255H181.385L170.078 393.943ZM267.724 371.745H289.922V393.943L278.609 405.255H256.411V383.057L267.724 371.745ZM289.922 469.391V491.589H267.724L256.411 480.276V458.078H278.609L289.922 469.391ZM192.276 442.255H169.057L158.464 431.667L169.057 421.078H192.276L202.865 431.667L192.276 442.255ZM219.411 393.943V370.719L230 360.13L240.589 370.719V393.943L230 404.531L219.411 393.943ZM267.724 421.078H290.943L301.531 431.667L290.943 442.255H267.724L257.13 431.667L267.724 421.078ZM240.589 469.391V492.609L230 503.203L219.411 492.609V469.391L230 458.797L240.589 469.391ZM183.052 384.724C185.141 382.635 188.526 382.635 190.609 384.724C192.698 386.807 192.698 390.193 190.609 392.276C188.526 394.365 185.141 394.365 183.052 392.276C180.969 390.193 180.969 386.807 183.052 384.724ZM276.943 384.724C279.031 386.807 279.031 390.193 276.943 392.276C274.859 394.365 271.474 394.365 269.391 392.276C267.302 390.193 267.302 386.807 269.391 384.724C271.474 382.635 274.859 382.635 276.943 384.724ZM276.943 478.609C274.859 480.698 271.474 480.698 269.391 478.609C267.302 476.526 267.302 473.141 269.391 471.052C271.474 468.969 274.859 468.969 276.943 471.052C279.031 473.141 279.031 476.526 276.943 478.609ZM10.3906 478.609C8.30208 476.526 8.30208 473.141 10.3906 471.052C12.474 468.969 15.8594 468.969 17.9427 471.052C20.0313 473.141 20.0313 476.521 17.9427 478.609C15.8594 480.698 12.474 480.698 10.3906 478.609ZM-1.86979 345.333L8.71875 334.745H31.9427L42.5312 345.333L31.9427 355.922H8.71875L-1.86979 345.333ZM47.4635 345.333L33.3906 331.255H7.27604L-5.05729 343.589H-24.6458L-24.6875 343.484L-3.61458 322.411H21.0521L34.4062 309.057V284.391L55.4844 263.312L55.5885 263.359V282.948L43.2552 295.281C43.2552 303.979 43.2552 312.688 43.2552 321.391L57.3281 335.469L71.4062 321.391V295.281L59.0729 282.948V263.359L59.1771 263.312L80.25 284.391C80.25 292.615 80.25 300.833 80.25 309.057L93.6094 322.411H118.276L139.349 343.484L139.302 343.589H119.719L107.385 331.255H81.2708L67.1979 345.333L81.2708 359.411H107.385L119.719 347.078H139.302L139.349 347.182L118.276 368.255H93.6094L80.25 381.609V406.276L59.1771 427.349L59.0729 427.307V407.719L71.4062 395.385V369.276L57.3281 355.198L43.2552 369.276C43.2552 377.979 43.2552 386.682 43.2552 395.385L55.5885 407.719V427.307L55.4844 427.349L34.4062 406.276V381.609L21.0521 368.255H-3.61458L-24.6875 347.182L-24.6458 347.078H-5.05729L7.27604 359.411H33.3906L47.4635 345.333ZM72.1302 345.333L82.724 334.745H105.943L116.531 345.333L105.943 355.922H82.724L72.1302 345.333ZM19.6094 491.589H-2.58854V469.391L8.71875 458.078H30.9219V480.276L19.6094 491.589ZM-2.58854 393.943V371.745H19.6094L30.9219 383.057V405.255H8.71875L-2.58854 393.943ZM95.0521 371.745H117.255V393.943L105.943 405.255H83.7448V383.057L95.0521 371.745ZM117.255 469.391V491.589H95.0521L83.7448 480.276V458.078H105.943L117.255 469.391ZM19.6094 442.255H-3.61458L-14.2031 431.667L-3.61458 421.078H19.6094L30.1979 431.667L19.6094 442.255ZM46.7448 393.943V370.719L57.3333 360.13L67.9219 370.719V393.943L57.3333 404.531L46.7448 393.943ZM95.0521 421.078H118.276L128.865 431.667L118.276 442.255H95.0521L84.4635 431.667L95.0521 421.078ZM67.9219 469.391V492.609L57.3333 503.203L46.7448 492.609V469.391L57.3333 458.797L67.9219 469.391ZM10.3906 384.724C12.474 382.635 15.8594 382.635 17.9427 384.724C20.0313 386.807 20.0313 390.193 17.9427 392.276C15.8594 394.365 12.474 394.365 10.3906 392.276C8.30208 390.193 8.30208 386.807 10.3906 384.724ZM104.276 384.724C106.365 386.807 106.365 390.193 104.276 392.276C102.193 394.365 98.8073 394.365 96.724 392.276C94.6354 390.193 94.6354 386.807 96.724 384.724C98.8073 382.635 102.193 382.635 104.276 384.724ZM104.276 478.609C102.193 480.698 98.8073 480.698 96.724 478.609C94.6354 476.526 94.6354 473.141 96.724 471.052C98.8073 468.969 102.188 468.969 104.276 471.052C106.365 473.141 106.365 476.526 104.276 478.609ZM355.724 305.943C353.635 303.859 353.635 300.474 355.724 298.391C357.807 296.302 361.188 296.302 363.276 298.391C365.365 300.474 365.365 303.859 363.276 305.943C361.193 308.031 357.807 308.031 355.724 305.943ZM316.333 318.198L305.745 307.609V284.391L316.333 273.797L326.922 284.391V307.609L316.333 318.198ZM316.333 268.87L302.255 282.943V309.057L314.589 321.391V340.974L314.484 341.021L293.411 319.943V295.276L280.057 281.922H255.391L234.312 260.849L234.359 260.745H253.948L266.276 273.078H292.391L306.469 259L292.391 244.927H266.276L253.948 257.255H234.359L234.312 257.156L255.391 236.078H280.057L293.411 222.724C293.411 214.505 293.411 206.281 293.411 198.057L314.484 176.984L314.589 177.026V196.615L302.255 208.948V235.057L316.333 249.135L330.411 235.057V208.943L318.078 196.609V177.026L318.182 176.979L339.255 198.052V222.724L352.609 236.078H377.276L398.349 257.151L398.307 257.255H378.719L366.385 244.922H340.276L326.198 259L340.276 273.078H366.385L378.719 260.74H398.307L398.349 260.844L377.276 281.917H352.609L339.255 295.276V319.943L318.182 341.016L318.078 340.969V321.385L330.411 309.052L330.406 282.943L316.333 268.87ZM316.333 244.203L305.745 233.609V210.391L316.333 199.797L326.922 210.391V233.609L316.333 244.203ZM343.464 172.667L354.057 162.078H377.276L387.865 172.667L377.276 183.255H354.057L343.464 172.667ZM392.797 172.667L378.724 158.589H352.609L340.276 170.922H320.688L320.646 170.818L341.719 149.745H366.385L379.745 136.391V111.724L400.818 90.651L400.922 90.6927V110.281L388.589 122.615C388.589 131.318 388.589 140.021 388.589 148.724L402.667 162.802L416.745 148.724V122.615L404.406 110.281V90.6927L404.51 90.651L425.589 111.724C425.589 119.948 425.589 128.167 425.589 136.391L438.943 149.745H463.609L484.682 170.818L484.641 170.922H465.052L452.724 158.589H426.609L412.531 172.667L426.609 186.745H452.724L465.052 174.411H484.641L484.688 174.516L463.609 195.589H438.943L425.589 208.943V233.609L404.516 254.682L404.411 254.641V235.052L416.745 222.719V196.609L402.667 182.531L388.589 196.609C388.589 205.312 388.589 214.016 388.589 222.719L400.922 235.052V254.641L400.818 254.682L379.745 233.609V208.943L366.391 195.589H341.724L320.651 174.516L320.693 174.411H340.281L352.615 186.745H378.724L392.797 172.667ZM417.469 172.667L428.057 162.078H451.276L461.865 172.667L451.276 183.255H428.057L417.469 172.667ZM364.943 318.922H342.745V296.719L354.057 285.411H376.255V307.609L364.943 318.922ZM342.745 221.276V199.078H364.943L376.255 210.391V232.589H354.057L342.745 221.276ZM440.391 199.078H462.589V221.276L451.276 232.589H429.078V210.391L440.391 199.078ZM462.589 296.719V318.922H440.385L429.078 307.609V285.411H451.276L462.589 296.719ZM364.943 269.589H341.719L331.13 259L341.719 248.411H364.943L375.531 259L364.943 269.589ZM392.078 221.276V198.057L402.667 187.464L413.255 198.057V221.276L402.667 231.865L392.078 221.276ZM440.391 248.411H463.609L474.198 259L463.609 269.589H440.391L429.797 259L440.391 248.411ZM413.255 296.719V319.943L402.667 330.531L392.078 319.943V296.719L402.667 286.13L413.255 296.719ZM355.724 212.052C357.807 209.969 361.188 209.969 363.276 212.052C365.365 214.141 365.365 217.526 363.276 219.609C361.193 221.698 357.807 221.698 355.724 219.609C353.635 217.526 353.635 214.141 355.724 212.052ZM449.609 212.052C451.698 214.141 451.698 217.526 449.609 219.609C447.526 221.698 444.141 221.698 442.052 219.609C439.969 217.526 439.969 214.141 442.052 212.052C444.141 209.969 447.526 209.969 449.609 212.052ZM449.609 305.943C447.526 308.031 444.141 308.031 442.052 305.943C439.969 303.859 439.969 300.474 442.052 298.391C444.141 296.302 447.521 296.302 449.609 298.391C451.698 300.474 451.698 303.859 449.609 305.943ZM183.052 305.943C180.969 303.859 180.969 300.474 183.052 298.391C185.141 296.302 188.526 296.302 190.609 298.391C192.698 300.474 192.698 303.859 190.609 305.943C188.526 308.031 185.141 308.031 183.052 305.943ZM143.667 318.198L133.078 307.609V284.391L143.667 273.797L154.255 284.391V307.609L143.667 318.198ZM143.667 268.87L129.589 282.943V309.057L141.922 321.391V340.974L141.818 341.021L120.745 319.943V295.276L107.391 281.922H82.724L61.651 260.849L61.6927 260.745H81.2812L93.6146 273.078H119.724L133.802 259L119.724 244.927H93.6094L81.276 257.255H61.6875L61.6458 257.156L82.7188 236.078H107.385L120.74 222.724C120.74 214.505 120.74 206.281 120.74 198.057L141.818 176.984L141.922 177.026V196.615L129.589 208.948V235.057L143.661 249.135L157.74 235.057V208.943L145.406 196.609V177.026L145.51 176.979L166.583 198.052V222.724L179.943 236.078H204.609L225.682 257.151L225.641 257.255H206.052L193.719 244.922H167.609L153.531 259L167.609 273.078H193.724L206.052 260.74H225.641L225.688 260.844L204.609 281.917H179.943L166.589 295.276V319.943L145.516 341.016L145.411 340.969V321.385L157.745 309.052V282.943L143.667 268.87ZM143.667 244.203L133.078 233.609V210.391L143.667 199.797L154.255 210.391V233.609L143.667 244.203ZM170.797 172.667L181.385 162.078H204.609L215.198 172.667L204.609 183.255H181.385L170.797 172.667ZM220.13 172.667L206.057 158.589H179.943L167.609 170.922H148.026L147.979 170.818L169.052 149.745H193.719L207.078 136.391V111.724L228.151 90.651L228.255 90.6927V110.281L215.922 122.615C215.922 131.318 215.922 140.021 215.922 148.724L230 162.802L244.078 148.724V122.615L231.74 110.281V90.6927L231.844 90.651L252.917 111.724C252.917 119.948 252.917 128.167 252.917 136.391L266.276 149.745H290.943L312.016 170.818L311.969 170.922H292.385L280.052 158.589H253.943L239.865 172.667L253.943 186.745H280.052L292.385 174.411H311.969L312.016 174.516L290.943 195.589H266.276L252.917 208.943V233.609L231.844 254.682L231.74 254.641V235.052L244.078 222.719V196.609L230 182.531L215.922 196.609C215.922 205.312 215.922 214.016 215.922 222.719L228.255 235.052V254.641L228.151 254.682L207.078 233.609V208.943L193.719 195.589H169.052L147.979 174.516L148.026 174.411H167.609L179.943 186.745H206.057L220.13 172.667ZM244.797 172.667L255.391 162.078H278.609L289.198 172.667L278.609 183.255H255.391L244.797 172.667ZM192.276 318.922H170.078V296.719L181.385 285.411H203.589V307.609L192.276 318.922ZM170.078 221.276V199.078H192.276L203.589 210.391V232.589H181.385L170.078 221.276ZM267.724 199.078H289.922V221.276L278.609 232.589H256.411V210.391L267.724 199.078ZM289.922 296.719V318.922H267.724L256.411 307.609V285.411H278.609L289.922 296.719ZM192.276 269.589H169.057L158.464 259L169.057 248.411H192.276L202.865 259L192.276 269.589ZM219.411 221.276V198.057L230 187.464L240.589 198.057V221.276L230 231.865L219.411 221.276ZM267.724 248.411H290.943L301.531 259L290.943 269.589H267.724L257.13 259L267.724 248.411ZM240.589 296.719V319.943L230 330.531L219.411 319.943V296.719L230 286.13L240.589 296.719ZM183.052 212.052C185.141 209.969 188.526 209.969 190.609 212.052C192.698 214.141 192.698 217.526 190.609 219.609C188.526 221.698 185.141 221.698 183.052 219.609C180.969 217.526 180.969 214.141 183.052 212.052ZM276.943 212.052C279.031 214.141 279.031 217.526 276.943 219.609C274.859 221.698 271.474 221.698 269.391 219.609C267.302 217.526 267.302 214.141 269.391 212.052C271.474 209.969 274.859 209.969 276.943 212.052ZM276.943 305.943C274.859 308.031 271.474 308.031 269.391 305.943C267.302 303.859 267.302 300.474 269.391 298.391C271.474 296.302 274.859 296.302 276.943 298.391C279.031 300.474 279.031 303.859 276.943 305.943ZM10.3906 305.943C8.30208 303.859 8.30208 300.474 10.3906 298.391C12.474 296.302 15.8594 296.302 17.9427 298.391C20.0313 300.474 20.0313 303.859 17.9427 305.943C15.8594 308.031 12.474 308.031 10.3906 305.943ZM-1.86979 172.667L8.71875 162.078H31.9427L42.5312 172.667L31.9427 183.255H8.71875L-1.86979 172.667ZM47.4635 172.667L33.3906 186.745H7.27604L-5.05729 174.411H-24.6458L-24.6875 174.516L-3.61458 195.589H21.0521L34.4062 208.943V233.609L55.4844 254.682L55.5885 254.641V235.052L43.2552 222.719C43.2552 214.016 43.2552 205.312 43.2552 196.609L57.3281 182.531L71.4062 196.609V222.719L59.0729 235.052V254.641L59.1771 254.682L80.25 233.609V208.943L93.6094 195.589H118.276L139.349 174.516L139.302 174.411H119.719L107.385 186.745H81.2708L67.1979 172.667L81.2708 158.589H107.385L119.719 170.922H139.302L139.349 170.818L118.276 149.745H93.6094L80.2552 136.391C80.2552 128.167 80.2552 119.948 80.2552 111.724L59.1823 90.651L59.0781 90.6927V110.281L71.4115 122.615V148.724L57.3333 162.802L43.2552 148.724C43.2552 140.021 43.2552 131.318 43.2552 122.615L55.5885 110.281V90.6927L55.4844 90.651L34.4115 111.724V136.391L21.0573 149.745H-3.60938L-24.6875 170.818L-24.6406 170.922H-5.05729L7.27604 158.589H33.3906L47.4635 172.667ZM72.1302 172.667L82.724 162.078H105.943L116.531 172.667L105.943 183.255H82.724L72.1302 172.667ZM19.6094 318.922H-2.58854V296.719L8.71875 285.411H30.9219V307.609L19.6094 318.922ZM-2.58854 221.276V199.078H19.6094L30.9219 210.391V232.589H8.71875L-2.58854 221.276ZM95.0521 199.078H117.255V221.276L105.943 232.589H83.7448V210.391L95.0521 199.078ZM117.255 296.719V318.922H95.0521L83.7448 307.609V285.411H105.943L117.255 296.719ZM19.6094 269.589H-3.61458L-14.2031 259L-3.61458 248.411H19.6094L30.1979 259L19.6094 269.589ZM46.7448 221.276V198.057L57.3333 187.464L67.9219 198.057V221.276L57.3333 231.865L46.7448 221.276ZM95.0521 248.411H118.276L128.865 259L118.276 269.589H95.0521L84.4635 259L95.0521 248.411ZM67.9219 296.719V319.943L57.3333 330.531L46.7448 319.943V296.719L57.3333 286.13L67.9219 296.719ZM10.3906 212.052C12.474 209.969 15.8594 209.969 17.9427 212.052C20.0313 214.141 20.0313 217.526 17.9427 219.609C15.8594 221.698 12.474 221.698 10.3906 219.609C8.30208 217.526 8.30208 214.141 10.3906 212.052ZM104.276 212.052C106.365 214.141 106.365 217.526 104.276 219.609C102.193 221.698 98.8073 221.698 96.724 219.609C94.6354 217.526 94.6354 214.141 96.724 212.052C98.8073 209.969 102.193 209.969 104.276 212.052ZM104.276 305.943C102.193 308.031 98.8073 308.031 96.724 305.943C94.6354 303.859 94.6354 300.474 96.724 298.391C98.8073 296.302 102.188 296.302 104.276 298.391C106.365 300.474 106.365 303.859 104.276 305.943ZM355.724 133.276C353.635 131.188 353.635 127.807 355.724 125.719C357.807 123.635 361.188 123.635 363.276 125.719C365.365 127.807 365.365 131.188 363.276 133.276C361.193 135.365 357.807 135.365 355.724 133.276ZM316.333 145.536L305.745 134.943V111.719L316.333 101.13L326.922 111.719V134.943L316.333 145.536ZM316.333 96.1979L302.255 110.276V136.385L314.589 148.724V168.307L314.484 168.354L293.411 147.281V122.609L280.057 109.255H255.391L234.312 88.1823L234.359 88.0781H253.948L266.276 100.411H292.391L306.469 86.3333L292.391 72.2552H266.276L253.948 84.5885H234.359L234.312 84.4844L255.391 63.4115H280.057L293.411 50.0573C293.411 41.8333 293.411 33.6146 293.411 25.3906L314.484 4.31771L314.589 4.35938V23.9479L302.255 36.2812V62.3906L316.333 76.4688L330.411 62.3906V36.2812L318.078 23.9479V4.35938L318.182 4.31771L339.255 25.3906V50.0573L352.609 63.4115H377.276L398.349 84.4844L398.307 84.5885H378.719L366.385 72.2552H340.276L326.198 86.3333L340.276 100.411H366.385L378.719 88.0781H398.307L398.349 88.1823L377.276 109.255H352.609L339.255 122.609V147.281L318.182 168.354L318.078 168.307V148.724L330.411 136.385L330.406 110.276L316.333 96.1979ZM316.333 71.5312L305.745 60.9427V37.7188L316.333 27.1302L326.922 37.7188V60.9427L316.333 71.5312ZM364.943 146.255H342.745V124.052L354.057 112.745H376.255V134.943L364.943 146.255ZM342.745 48.6094V26.4115H364.943L376.255 37.7188V59.9219H354.057L342.745 48.6094ZM440.391 26.4115H462.589V48.6094L451.276 59.9219H429.078V37.7188L440.391 26.4115ZM462.589 124.057V146.255H440.385L429.078 134.943V112.745H451.276L462.589 124.057ZM364.943 96.9219H341.719L331.13 86.3333L341.719 75.7448H364.943L375.531 86.3333L364.943 96.9219ZM392.078 48.6094V25.3906L402.667 14.7969L413.255 25.3906V48.6094L402.667 59.1979L392.078 48.6094ZM440.391 75.7448H463.609L474.198 86.3333L463.609 96.9219H440.391L429.797 86.3333L440.391 75.7448ZM413.255 124.057V147.281L402.667 157.87L392.078 147.281V124.057L402.667 113.469L413.255 124.057ZM355.724 39.3854C357.807 37.3021 361.188 37.3021 363.276 39.3854C365.365 41.474 365.365 44.8594 363.276 46.9427C361.193 49.0313 357.807 49.0313 355.724 46.9427C353.635 44.8594 353.635 41.474 355.724 39.3854ZM449.609 39.3854C451.698 41.474 451.698 44.8594 449.609 46.9427C447.526 49.0313 444.141 49.0313 442.052 46.9427C439.969 44.8594 439.969 41.474 442.052 39.3854C444.141 37.3021 447.526 37.3021 449.609 39.3854ZM449.609 133.276C447.526 135.365 444.141 135.365 442.052 133.276C439.969 131.188 439.969 127.807 442.052 125.719C444.141 123.635 447.521 123.635 449.609 125.719C451.698 127.807 451.698 131.188 449.609 133.276ZM183.052 133.276C180.969 131.188 180.969 127.807 183.052 125.719C185.141 123.635 188.526 123.635 190.609 125.719C192.698 127.807 192.698 131.188 190.609 133.276C188.526 135.365 185.141 135.365 183.052 133.276ZM143.667 145.536L133.078 134.943V111.719L143.667 101.13L154.255 111.719V134.943L143.667 145.536ZM143.667 96.1979L129.589 110.276V136.385L141.922 148.724V168.307L141.818 168.354L120.745 147.281V122.609L107.391 109.255H82.724L61.651 88.1823L61.6927 88.0781H81.2812L93.6146 100.411H119.724L133.802 86.3333L119.724 72.2552H93.6094L81.276 84.5885H61.6875L61.6458 84.4844L82.7188 63.4115H107.385L120.74 50.0573C120.74 41.8333 120.74 33.6146 120.74 25.3906L141.818 4.31771L141.922 4.35938V23.9479L129.589 36.2812V62.3906L143.661 76.4688L157.74 62.3906V36.2812L145.406 23.9479V4.35938L145.51 4.31771L166.583 25.3906V50.0573L179.943 63.4115H204.609L225.682 84.4844L225.641 84.5885H206.052L193.719 72.2552H167.609L153.531 86.3333L167.609 100.411H193.724L206.052 88.0781H225.641L225.688 88.1823L204.609 109.255H179.943L166.589 122.609V147.281L145.516 168.354L145.411 168.307V148.724L157.745 136.385V110.276L143.667 96.1979ZM143.667 71.5312L133.078 60.9427V37.7188L143.667 27.1302L154.255 37.7188V60.9427L143.667 71.5312ZM192.276 146.255H170.078V124.052L181.385 112.745H203.589V134.943L192.276 146.255ZM170.078 48.6094V26.4115H192.276L203.589 37.7188V59.9219H181.385L170.078 48.6094ZM267.724 26.4115H289.922V48.6094L278.609 59.9219H256.411V37.7188L267.724 26.4115ZM289.922 124.057V146.255H267.724L256.411 134.943V112.745H278.609L289.922 124.057ZM192.276 96.9219H169.057L158.464 86.3333L169.057 75.7448H192.276L202.865 86.3333L192.276 96.9219ZM219.411 48.6094V25.3906L230 14.7969L240.589 25.3906V48.6094L230 59.1979L219.411 48.6094ZM267.724 75.7448H290.943L301.531 86.3333L290.943 96.9219H267.724L257.13 86.3333L267.724 75.7448ZM240.589 124.057V147.281L230 157.87L219.411 147.281V124.057L230 113.469L240.589 124.057ZM183.052 39.3854C185.141 37.3021 188.526 37.3021 190.609 39.3854C192.698 41.474 192.698 44.8594 190.609 46.9427C188.526 49.0313 185.141 49.0313 183.052 46.9427C180.969 44.8594 180.969 41.474 183.052 39.3854ZM276.943 39.3854C279.031 41.474 279.031 44.8594 276.943 46.9427C274.859 49.0313 271.474 49.0313 269.391 46.9427C267.302 44.8594 267.302 41.474 269.391 39.3854C271.474 37.3021 274.859 37.3021 276.943 39.3854ZM276.943 133.276C274.859 135.365 271.474 135.365 269.391 133.276C267.302 131.188 267.302 127.807 269.391 125.719C271.474 123.635 274.859 123.635 276.943 125.719C279.031 127.807 279.031 131.188 276.943 133.276ZM19.6094 146.255L30.9219 134.943V112.745H8.71875L-2.58854 124.052V146.255H19.6094ZM-2.58854 48.6094V26.4115H19.6094L30.9219 37.7188V59.9219H8.71875L-2.58854 48.6094ZM95.0521 26.4115H117.255V48.6094L105.943 59.9219H83.7448V37.7188L95.0521 26.4115ZM117.255 124.057V146.255H95.0521L83.7448 134.943V112.745H105.943L117.255 124.057ZM19.6094 96.9219H-3.61458L-14.2031 86.3333L-3.61458 75.7448H19.6094L30.1979 86.3333L19.6094 96.9219ZM46.7448 48.6094V25.3906L57.3333 14.7969L67.9219 25.3906V48.6094L57.3333 59.1979L46.7448 48.6094ZM95.0521 75.7448H118.276L128.865 86.3333L118.276 96.9219H95.0521L84.4635 86.3333L95.0521 75.7448ZM67.9219 124.057V147.281L57.3333 157.87L46.7448 147.281V124.057L57.3333 113.469L67.9219 124.057ZM10.3906 39.3854C12.474 37.3021 15.8594 37.3021 17.9427 39.3854C20.0313 41.474 20.0313 44.8594 17.9427 46.9427C15.8594 49.0313 12.474 49.0313 10.3906 46.9427C8.30208 44.8594 8.30208 41.474 10.3906 39.3854ZM104.276 39.3854C106.365 41.474 106.365 44.8594 104.276 46.9427C102.193 49.0313 98.8073 49.0313 96.724 46.9427C94.6354 44.8594 94.6354 41.474 96.724 39.3854C98.8073 37.3021 102.193 37.3021 104.276 39.3854ZM104.276 133.276C102.193 135.365 98.8073 135.365 96.724 133.276C94.6354 131.188 94.6354 127.807 96.724 125.719C98.8073 123.635 102.188 123.635 104.276 125.719C106.365 127.807 106.365 131.188 104.276 133.276Z" fill="#F4E7E7"/>
</svg>
