<svg width="74" height="73" viewBox="0 0 74 73" fill="none" xmlns="http://www.w3.org/2000/svg">
<mask id="mask0_516_30344" style="mask-type:luminance" maskUnits="userSpaceOnUse" x="0" y="0" width="74" height="73">
<path d="M0.988281 0H73.9883V73H0.988281V0Z" fill="white"/>
</mask>
<g mask="url(#mask0_516_30344)">
<path d="M37.4883 0C36.2904 0 35.0977 0.0572927 33.9102 0.177083C32.7174 0.291667 31.5404 0.468749 30.3633 0.703125C29.1914 0.932292 28.0352 1.22396 26.8893 1.57292C25.7487 1.91667 24.6237 2.32292 23.5195 2.77604C22.4154 3.23438 21.3372 3.74479 20.2799 4.3125C19.2279 4.875 18.2018 5.48958 17.207 6.15104C16.2122 6.81771 15.2539 7.52604 14.332 8.28646C13.4049 9.04167 12.5247 9.84375 11.6758 10.6927C10.832 11.5365 10.0299 12.4219 9.26953 13.3438C8.51432 14.2708 7.80078 15.2292 7.13932 16.224C6.47266 17.2135 5.85807 18.2396 5.29557 19.2917C4.73307 20.349 4.22266 21.4271 3.76432 22.5312C3.30599 23.6354 2.90495 24.7604 2.55599 25.9062C2.21224 27.0469 1.92057 28.2083 1.6862 29.3802C1.45703 30.5521 1.27995 31.7344 1.16016 32.9219C1.04557 34.1146 0.988281 35.3021 0.988281 36.5C0.988281 37.6979 1.04557 38.8906 1.16016 40.0781C1.27995 41.2656 1.45703 42.4479 1.6862 43.6198C1.92057 44.7917 2.21224 45.9531 2.55599 47.0938C2.90495 48.2396 3.30599 49.3646 3.76432 50.4688C4.22266 51.5729 4.73307 52.651 5.29557 53.7083C5.85807 54.7604 6.47266 55.7865 7.13932 56.776C7.80078 57.7708 8.51432 58.7292 9.26953 59.6562C10.0299 60.5781 10.832 61.4635 11.6758 62.3073C12.5247 63.1563 13.4049 63.9583 14.332 64.7135C15.2539 65.474 16.2122 66.1823 17.207 66.849C18.2018 67.5104 19.2279 68.125 20.2799 68.6927C21.3372 69.2552 22.4154 69.7656 23.5195 70.224C24.6237 70.6771 25.7487 71.0833 26.8893 71.4271C28.0352 71.776 29.1914 72.0677 30.3633 72.2969C31.5404 72.5312 32.7174 72.7083 33.9102 72.8229C35.0977 72.9427 36.2904 73 37.4883 73C38.681 73 39.8737 72.9427 41.0664 72.8229C42.2539 72.7083 43.4362 72.5312 44.6081 72.2969C45.7799 72.0677 46.9362 71.776 48.082 71.4271C49.2279 71.0833 50.3477 70.6771 51.4518 70.224C52.5612 69.7656 53.6393 69.2552 54.6914 68.6927C55.7487 68.125 56.7695 67.5104 57.7643 66.849C58.7591 66.1823 59.7174 65.474 60.6393 64.7135C61.5664 63.9583 62.4518 63.1563 63.2956 62.3073C64.1393 61.4635 64.9414 60.5781 65.7018 59.6562C66.4622 58.7292 67.1706 57.7708 67.8372 56.776C68.4987 55.7865 69.1133 54.7604 69.6758 53.7083C70.2383 52.651 70.7487 51.5729 71.207 50.4688C71.6654 49.3646 72.0664 48.2396 72.4154 47.0938C72.7643 45.9531 73.0508 44.7917 73.2852 43.6198C73.5195 42.4479 73.6914 41.2656 73.8112 40.0781C73.9258 38.8906 73.9883 37.6979 73.9883 36.5C73.9831 35.3073 73.9258 34.1146 73.806 32.9219C73.6862 31.7344 73.5143 30.5521 73.28 29.3802C73.0456 28.2083 72.7539 27.0521 72.405 25.9115C72.056 24.7656 71.655 23.6406 71.1966 22.5365C70.7383 21.4323 70.2279 20.3542 69.6654 19.3021C69.1029 18.25 68.4883 17.224 67.8216 16.2292C67.1602 15.2396 66.4466 14.2813 65.6914 13.3542C64.931 12.4323 64.1289 11.5469 63.2852 10.7031C62.4414 9.85938 61.556 9.05729 60.6289 8.29688C59.707 7.54167 58.7487 6.82812 57.7539 6.16146C56.7643 5.5 55.7383 4.88542 54.6862 4.32292C53.6289 3.76042 52.5508 3.24479 51.4466 2.79167C50.3424 2.33333 49.2227 1.92708 48.0768 1.58333C46.9362 1.23437 45.7747 0.942708 44.6029 0.708333C43.431 0.473959 42.2539 0.296875 41.0612 0.177083C39.8737 0.0625007 38.681 0 37.4883 0ZM37.4883 69.1562C36.4154 69.1562 35.3477 69.1042 34.2852 69C33.2227 68.8958 32.1654 68.7396 31.1133 68.5312C30.0664 68.3229 29.0299 68.0625 28.0039 67.75C26.9831 67.4427 25.9779 67.0833 24.9883 66.6719C23.9987 66.2604 23.0352 65.8073 22.0924 65.3021C21.1497 64.7969 20.2331 64.25 19.3424 63.6562C18.4518 63.0573 17.5977 62.4219 16.7695 61.7448C15.9414 61.0677 15.1497 60.349 14.3945 59.5938C13.6393 58.8385 12.9206 58.0469 12.2435 57.2188C11.5612 56.3906 10.9258 55.5313 10.332 54.6458C9.73828 53.7552 9.19141 52.8385 8.6862 51.8958C8.18099 50.9531 7.72266 49.9844 7.31641 49C6.90495 48.0104 6.54557 47.0052 6.23307 45.9792C5.92578 44.9583 5.66536 43.9219 5.45703 42.8698C5.2487 41.8229 5.09245 40.7656 4.98828 39.7031C4.87891 38.6354 4.82682 37.5677 4.82682 36.5C4.82682 35.4323 4.87891 34.3646 4.98828 33.2969C5.09245 32.2344 5.2487 31.1771 5.45703 30.1302C5.66536 29.0781 5.92578 28.0417 6.23307 27.0208C6.54557 25.9948 6.90495 24.9896 7.31641 24C7.72266 23.0156 8.18099 22.0469 8.6862 21.1042C9.19141 20.1615 9.73828 19.2448 10.332 18.3542C10.9258 17.4688 11.5612 16.6094 12.2435 15.7812C12.9206 14.9531 13.6393 14.1615 14.3945 13.4062C15.1497 12.651 15.9414 11.9323 16.7695 11.2552C17.5977 10.5781 18.4518 9.94271 19.3424 9.34375C20.2331 8.75 21.1497 8.20312 22.0924 7.69792C23.0352 7.19271 23.9987 6.73958 24.9883 6.32812C25.9779 5.91667 26.9831 5.55729 28.0039 5.25C29.0299 4.9375 30.0664 4.67708 31.1133 4.46875C32.1654 4.26042 33.2227 4.10417 34.2852 4C35.3477 3.89583 36.4154 3.84375 37.4883 3.84375C38.556 3.84375 39.6237 3.89583 40.6862 4C41.7539 4.10417 42.8112 4.26042 43.8581 4.46875C44.9049 4.67708 45.9414 4.9375 46.9674 5.25C47.9883 5.55729 48.9935 5.91667 49.9831 6.32812C50.9727 6.73958 51.9362 7.19271 52.8789 7.69792C53.8268 8.20312 54.7383 8.75 55.6289 9.34375C56.5195 9.94271 57.3789 10.5781 58.2018 11.2552C59.0299 11.9323 59.8216 12.651 60.5768 13.4062C61.3372 14.1615 62.0508 14.9531 62.7331 15.7812C63.4102 16.6094 64.0456 17.4688 64.6393 18.3542C65.2331 19.2448 65.7852 20.1615 66.2904 21.1042C66.7904 22.0469 67.2487 23.0156 67.6602 24C68.0664 24.9896 68.4258 25.9948 68.7383 27.0208C69.0508 28.0417 69.306 29.0781 69.5143 30.1302C69.7279 31.1771 69.8841 32.2344 69.9883 33.2969C70.0924 34.3646 70.1445 35.4323 70.1445 36.5C70.1445 37.5677 70.0872 38.6354 69.9831 39.6979C69.8789 40.7656 69.7227 41.8177 69.5091 42.8698C69.3008 43.9167 69.0404 44.9531 68.7279 45.974C68.4206 47 68.056 48.0052 67.6497 48.9896C67.2383 49.9792 66.78 50.9427 66.28 51.8854C65.7747 52.8281 65.2227 53.7448 64.6289 54.6354C64.0352 55.526 63.3997 56.3802 62.7227 57.2083C62.0404 58.0365 61.3268 58.8281 60.5664 59.5833C59.8112 60.3385 59.0195 61.0573 58.1966 61.7344C57.3685 62.4115 56.5091 63.0469 55.6237 63.6406C54.7331 64.2396 53.8164 64.7865 52.8737 65.2917C51.931 65.7969 50.9674 66.25 49.9779 66.6615C48.9883 67.0729 47.9831 67.4323 46.9622 67.7448C45.9414 68.0521 44.9049 68.3125 43.8529 68.526C42.806 68.7344 41.7487 68.8906 40.6862 69C39.6237 69.1042 38.556 69.1562 37.4883 69.1562Z" fill="#FF2C07"/>
<path d="M52.6159 17.2917H49.0169V15.3699C49.0169 15.1147 48.9648 14.8699 48.8711 14.6355C48.7721 14.3959 48.6315 14.1928 48.4544 14.0105C48.2721 13.8282 48.0638 13.6928 47.8294 13.5938C47.5951 13.4949 47.3503 13.448 47.0951 13.448C46.8398 13.448 46.5951 13.4949 46.3607 13.5938C46.1263 13.6928 45.918 13.8282 45.7357 14.0105C45.5534 14.1928 45.418 14.3959 45.319 14.6355C45.2201 14.8699 45.1732 15.1147 45.1732 15.3699V17.2917H39.4076V15.3699C39.4076 15.1147 39.3607 14.8699 39.2617 14.6355C39.168 14.3959 39.0273 14.1928 38.8451 14.0105C38.668 13.8282 38.4596 13.6928 38.2253 13.5938C37.9909 13.4949 37.7461 13.448 37.4909 13.448C37.2357 13.448 36.9909 13.4949 36.7513 13.5938C36.5169 13.6928 36.3086 13.8282 36.1315 14.0105C35.9492 14.1928 35.8138 14.3959 35.7148 14.6355C35.6159 14.8699 35.569 15.1147 35.569 15.3699V17.2917H29.8034V15.3699C29.8034 15.1147 29.7565 14.8699 29.6576 14.6355C29.5586 14.3959 29.4232 14.1928 29.2409 14.0105C29.0638 13.8282 28.8555 13.6928 28.6211 13.5938C28.3815 13.4949 28.1367 13.448 27.8815 13.448C27.6315 13.448 27.3815 13.4949 27.1471 13.5938C26.9128 13.6928 26.7044 13.8282 26.5273 14.0105C26.3451 14.1928 26.2044 14.3959 26.1107 14.6355C26.0117 14.8699 25.9648 15.1147 25.9648 15.3699V17.2917H22.3607C21.9701 17.2917 21.5794 17.3282 21.194 17.4063C20.8034 17.4845 20.4284 17.599 20.0638 17.7501C19.7044 17.9011 19.3555 18.0834 19.0273 18.3022C18.6992 18.5209 18.3971 18.7709 18.1211 19.047C17.8398 19.3282 17.5898 19.6303 17.3711 19.9584C17.1523 20.2865 16.9701 20.6303 16.819 20.9949C16.668 21.3595 16.5534 21.7345 16.4753 22.1199C16.3971 22.5105 16.3555 22.9011 16.3555 23.2917V49.7084C16.3555 50.099 16.3971 50.4897 16.4753 50.8803C16.5534 51.2657 16.668 51.6407 16.819 52.0053C16.9701 52.3699 17.1523 52.7136 17.3711 53.0417C17.5898 53.3699 17.8398 53.672 18.1211 53.9532C18.3971 54.2292 18.6992 54.4792 19.0273 54.698C19.3555 54.9167 19.7044 55.099 20.0638 55.2501C20.4284 55.4011 20.8034 55.5157 21.194 55.5938C21.5794 55.672 21.9701 55.7084 22.3607 55.7084H52.6159C53.0117 55.7084 53.4023 55.672 53.7878 55.5938C54.1732 55.5157 54.5482 55.4011 54.9128 55.2501C55.2773 55.099 55.6211 54.9167 55.9492 54.698C56.2773 54.4792 56.5794 54.2292 56.8607 53.9532C57.1367 53.672 57.3867 53.3699 57.6055 53.0417C57.8242 52.7136 58.0117 52.3699 58.1628 52.0053C58.3138 51.6407 58.4284 51.2657 58.5065 50.8803C58.5794 50.4897 58.6211 50.099 58.6211 49.7084V23.2917C58.6211 22.9011 58.5794 22.5105 58.5065 22.1199C58.4284 21.7345 58.3138 21.3595 58.1628 20.9949C58.0117 20.6303 57.8242 20.2865 57.6055 19.9584C57.3867 19.6303 57.1367 19.3282 56.8607 19.047C56.5794 18.7709 56.2773 18.5209 55.9492 18.3022C55.6211 18.0834 55.2773 17.9011 54.9128 17.7501C54.5482 17.599 54.1732 17.4845 53.7878 17.4063C53.4023 17.3282 53.0117 17.2917 52.6159 17.2917ZM54.7773 49.7084C54.7773 49.9949 54.7253 50.2709 54.6107 50.5365C54.5013 50.797 54.3451 51.0313 54.1419 51.2345C53.9388 51.4376 53.7096 51.5938 53.444 51.7032C53.1784 51.8126 52.9023 51.8699 52.6159 51.8699H22.3607C22.0742 51.8699 21.7982 51.8126 21.5378 51.7032C21.2721 51.5938 21.0378 51.4376 20.8346 51.2345C20.6315 51.0313 20.4753 50.797 20.3659 50.5365C20.2565 50.2709 20.1992 49.9949 20.1992 49.7084V32.6563H54.7773V49.7084ZM54.7773 28.8178H20.1992V23.2917C20.1992 23.0053 20.2565 22.7292 20.3659 22.4636C20.4753 22.2032 20.6315 21.9688 20.8346 21.7657C21.0378 21.5626 21.2721 21.4063 21.5378 21.297C21.7982 21.1876 22.0742 21.1303 22.3607 21.1303H25.9648V23.0522C25.9648 23.3074 26.0117 23.5522 26.1107 23.7865C26.2044 24.0209 26.3451 24.2292 26.5273 24.4115C26.7044 24.5938 26.9128 24.7292 27.1471 24.8282C27.3815 24.9272 27.6315 24.974 27.8815 24.974C28.1367 24.974 28.3815 24.9272 28.6211 24.8282C28.8555 24.7292 29.0638 24.5938 29.2409 24.4115C29.4232 24.2292 29.5586 24.0209 29.6576 23.7865C29.7565 23.5522 29.8034 23.3074 29.8034 23.0522V21.1303H35.569V23.0522C35.569 23.3074 35.6159 23.5522 35.7148 23.7865C35.8138 24.0209 35.9492 24.2292 36.1315 24.4115C36.3086 24.5938 36.5169 24.7292 36.7513 24.8282C36.9909 24.9272 37.2357 24.974 37.4909 24.974C37.7461 24.974 37.9909 24.9272 38.2253 24.8282C38.4596 24.7292 38.668 24.5938 38.8451 24.4115C39.0273 24.2292 39.168 24.0209 39.2617 23.7865C39.3607 23.5522 39.4076 23.3074 39.4076 23.0522V21.1303H45.1732V23.0522C45.1732 23.3074 45.2201 23.5522 45.319 23.7865C45.418 24.0209 45.5534 24.2292 45.7357 24.4115C45.918 24.5938 46.1263 24.7292 46.3607 24.8282C46.5951 24.9272 46.8398 24.974 47.0951 24.974C47.3503 24.974 47.5951 24.9272 47.8294 24.8282C48.0638 24.7292 48.2721 24.5938 48.4544 24.4115C48.6315 24.2292 48.7721 24.0209 48.8711 23.7865C48.9648 23.5522 49.0169 23.3074 49.0169 23.0522V21.1303H52.6159C52.9023 21.1303 53.1784 21.1876 53.444 21.297C53.7096 21.4063 53.9388 21.5626 54.1419 21.7657C54.3451 21.9688 54.5013 22.2032 54.6107 22.4636C54.7253 22.7292 54.7773 23.0053 54.7773 23.2917V28.8178Z" fill="#FF2C07"/>
<path d="M34.2087 47.4635C34.391 47.6458 34.5941 47.7812 34.8337 47.8802C35.0681 47.9792 35.3129 48.026 35.5681 48.026C35.8233 48.026 36.0681 47.9792 36.3025 47.8802C36.5369 47.7812 36.7452 47.6458 36.9275 47.4635L44.6098 39.7812C44.7869 39.5989 44.9171 39.3906 45.0108 39.1562C45.1046 38.9219 45.1514 38.6823 45.1462 38.4271C45.1462 38.1771 45.0941 37.9323 45.0004 37.7031C44.9014 37.4687 44.766 37.2656 44.5837 37.0885C44.4066 36.9062 44.2035 36.7708 43.9691 36.6719C43.74 36.5781 43.4952 36.526 43.2452 36.526C42.99 36.5208 42.7504 36.5677 42.516 36.6614C42.2816 36.7552 42.0733 36.8854 41.891 37.0625L35.5681 43.3906L33.0837 40.9062C32.9014 40.7292 32.6931 40.5937 32.4587 40.5052C32.2243 40.4114 31.9848 40.3646 31.7296 40.3646C31.4796 40.3698 31.24 40.4167 31.0056 40.5156C30.7712 40.6146 30.5681 40.75 30.391 40.9271C30.2139 41.1042 30.0733 41.3125 29.9796 41.5417C29.8806 41.776 29.8285 42.0208 29.8285 42.2708C29.8233 42.5208 29.8702 42.7656 29.9639 43C30.0577 43.2344 30.1931 43.4427 30.365 43.6198L34.2087 47.4635Z" fill="#FF2C07"/>
</g>
</svg>
