<svg width="66" height="66" viewBox="0 0 66 66" fill="none" xmlns="http://www.w3.org/2000/svg">
<mask id="mask0_516_30280" style="mask-type:luminance" maskUnits="userSpaceOnUse" x="0" y="0" width="66" height="66">
<path d="M0.988281 0.65625H65.9883V65.6562H0.988281V0.65625Z" fill="white"/>
</mask>
<g mask="url(#mask0_516_30280)">
<path d="M33.4727 0.65625C15.5143 0.65625 0.988281 15.1979 0.988281 33.1562C0.988281 51.1094 15.5143 65.6562 33.4727 65.6562C51.4258 65.6562 65.9883 51.1094 65.9883 33.1562C65.9883 15.1979 51.4258 0.65625 33.4727 0.65625ZM33.4883 59.1562C19.1237 59.1562 7.48828 47.5208 7.48828 33.1562C7.48828 18.7917 19.1237 7.15625 33.4883 7.15625C47.8529 7.15625 59.4883 18.7917 59.4883 33.1562C59.4883 47.5208 47.8529 59.1562 33.4883 59.1562Z" fill="#FF2C07"/>
<path d="M35.1133 16.9062H30.2383V36.4062L47.2852 46.6406L49.7383 42.6458L35.1133 33.9688V16.9062Z" fill="#FF2C07"/>
</g>
</svg>
