<svg width="33" height="46" viewBox="0 0 33 46" fill="none" xmlns="http://www.w3.org/2000/svg">
<mask id="mask0_501_19815" style="mask-type:luminance" maskUnits="userSpaceOnUse" x="0" y="0" width="33" height="46">
<path d="M0.474609 0.75H32.4746V45.75H0.474609V0.75Z" fill="white"/>
</mask>
<g mask="url(#mask0_501_19815)">
<path d="M16.4746 0.75C7.64128 0.75 0.474609 7.80208 0.474609 16.5C0.474609 28.3125 16.4746 45.75 16.4746 45.75C16.4746 45.75 32.4694 28.3125 32.4694 16.5C32.4694 7.80208 25.3027 0.75 16.4746 0.75ZM16.4746 22.125C13.3184 22.125 10.7611 19.6042 10.7611 16.5C10.7611 13.3958 13.3184 10.875 16.4746 10.875C19.6257 10.875 22.1829 13.3958 22.1829 16.5C22.1829 19.6042 19.6257 22.125 16.4746 22.125Z" fill="#FF2C07"/>
</g>
</svg>
