<svg width="46" height="66" viewBox="0 0 46 66" fill="none" xmlns="http://www.w3.org/2000/svg">
<mask id="mask0_516_30275" style="mask-type:luminance" maskUnits="userSpaceOnUse" x="0" y="0" width="46" height="66">
<path d="M0.0664062 0.9375H45.0664V65.9375H0.0664062V0.9375Z" fill="white"/>
</mask>
<g mask="url(#mask0_516_30275)">
<path d="M22.5664 0.947998C10.1445 0.947998 0.0664062 11.1303 0.0664062 23.6928C0.0664062 40.7501 22.5664 65.9324 22.5664 65.9324C22.5664 65.9324 45.0664 40.7501 45.0664 23.6928C45.0664 11.1303 34.9883 0.947998 22.5664 0.947998ZM22.5664 31.8126C18.1289 31.8126 14.5299 28.1772 14.5299 23.6928C14.5299 19.2084 18.1289 15.5678 22.5664 15.5678C27.0039 15.5678 30.6029 19.2084 30.6029 23.6928C30.6029 28.1772 27.0039 31.8126 22.5664 31.8126Z" fill="#FF2C07"/>
</g>
</svg>
