<svg width="1920" height="518" viewBox="0 0 1920 518" fill="none" xmlns="http://www.w3.org/2000/svg">
<mask id="mask0_744_92" style="mask-type:luminance" maskUnits="userSpaceOnUse" x="0" y="0" width="518" height="518">
<path d="M0 0H518V518H0V0Z" fill="white"/>
</mask>
<g mask="url(#mask0_744_92)">
<path fill-rule="evenodd" clip-rule="evenodd" d="M39.3906 133.276C37.3021 131.188 37.3021 127.807 39.3906 125.719C41.474 123.635 44.8594 123.635 46.9427 125.719C49.0313 127.807 49.0313 131.188 46.9427 133.276C44.8594 135.365 41.474 135.365 39.3906 133.276ZM384.724 478.609C382.635 476.526 382.635 473.141 384.724 471.052C386.807 468.969 390.188 468.969 392.276 471.052C394.365 473.141 394.365 476.521 392.276 478.609C390.193 480.698 386.807 480.698 384.724 478.609ZM416.865 518H421.797L407.724 503.922H381.609L369.276 516.255H349.688L349.646 516.151L370.719 495.078H395.385L408.74 481.724V457.057L429.818 435.984L429.922 436.026V455.615L417.583 467.948C417.583 476.651 417.583 485.354 417.583 494.057L431.667 508.135L445.74 494.057V467.948L433.406 455.615V436.026L433.51 435.984L454.589 457.057C454.589 465.281 454.589 473.5 454.589 481.724L467.943 495.078H492.609L513.682 516.151L513.641 516.255H494.052L481.724 503.922H455.609L441.531 518H446.469L457.057 507.411H480.276L490.865 518H518V490.865L507.411 480.276V457.057L518 446.469V441.531L503.922 455.609V481.724L516.255 494.057V513.641L516.151 513.688L495.078 492.615V467.948L481.724 454.594H457.057L435.979 433.516L436.026 433.411H455.615L467.948 445.745H494.057L508.135 431.667L494.057 417.594H467.948L455.615 429.922H436.026L435.979 429.823L457.057 408.745H481.724L495.078 395.391C495.078 387.167 495.078 378.948 495.078 370.724L516.151 349.651L516.255 349.693V369.281L503.922 381.615V407.729L518 421.802V416.87L507.411 406.281V383.057L518 372.469V318.203L507.411 307.615V284.391L518 273.802V268.87L503.922 282.948V309.057L516.255 321.391V340.979L516.151 341.021L495.078 319.948V295.281L481.724 281.927H457.057L435.979 260.854L436.026 260.75H455.615L467.948 273.083H494.057L508.135 259.005L494.057 244.927H467.948L455.615 257.26H436.026L435.979 257.156L457.057 236.083H481.724L495.078 222.729C495.078 214.505 495.078 206.281 495.078 198.062L516.151 176.99L516.255 177.031V196.62L503.922 208.953V235.062L518 249.141V244.208L507.411 233.62V210.391L518 199.797V145.536L507.411 134.943V111.719L518 101.13V96.1979L503.922 110.276V136.385L516.255 148.724V168.307L516.151 168.354L495.078 147.281V122.609L481.724 109.255H457.057L435.979 88.1823L436.026 88.0781H455.615L467.948 100.411H494.057L508.135 86.3333L494.057 72.2552H467.948L455.615 84.5885H436.026L435.979 84.4844L457.057 63.4115H481.724L495.078 50.0573C495.078 41.8333 495.078 33.6146 495.078 25.3906L516.151 4.31771L516.255 4.35938V23.9479L503.922 36.2812V62.3906L518 76.4688V71.5365L507.411 60.9479V37.724L518 27.1354V0.00520833H490.865L480.276 10.5938H457.057L446.469 0.00520833H441.531L455.609 14.0781H481.724L494.052 1.74479H513.641L513.688 1.84896L492.609 22.9271H467.943L454.589 36.2812V60.9479L433.516 82.0208L433.411 81.9792V62.3906L445.745 50.0573V23.9427L431.667 9.86458L417.589 23.9427C417.589 32.6458 417.589 41.349 417.589 50.0573L429.922 62.3906V81.974L429.818 82.0208L408.745 60.9427V36.276L395.391 22.9219H370.724L349.651 1.84896L349.693 1.74479H369.281L381.615 14.0781H407.724L421.802 0H416.87L406.281 10.5885H383.057L372.469 0H318.203L307.615 10.5885H284.391L273.802 0H268.87L282.948 14.0781H309.057L321.391 1.74479H340.979L341.021 1.84896L319.948 22.9219H295.281L281.927 36.276V60.9427L260.854 82.0208L260.75 81.974V62.3906L273.083 50.0573V23.9427L259.005 9.86458L244.927 23.9427C244.927 32.6458 244.927 41.349 244.927 50.0573L257.26 62.3906V81.974L257.156 82.0208L236.083 60.9427V36.276L222.729 22.9219H198.062L176.99 1.84896L177.031 1.74479H196.62L208.953 14.0781H235.062L249.141 0H244.208L233.62 10.5885H210.396L199.807 0C181.719 0 163.63 0 145.542 0L134.953 10.5885H111.729L101.141 0H96.2083L110.286 14.0781H136.396L148.729 1.74479H168.312L168.359 1.84896L147.286 22.9219H122.62L109.266 36.276V60.9427L88.1875 82.0208L88.0833 81.974V62.3906L100.417 50.0573V23.9427L86.3438 9.86458L72.2656 23.9427C72.2656 32.6458 72.2656 41.349 72.2656 50.0573L84.599 62.3906V81.974L84.4948 82.0208L63.4219 60.9427V36.276L50.0625 22.9219H25.3958L4.3125 1.84896L4.35938 1.74479H23.9427L36.276 14.0781H62.3906L76.4688 0H71.5365L60.9427 10.5885H37.724L27.1354 0H0V27.1354L10.5885 37.724V60.9427L0 71.5312V76.4688L14.0781 62.3906V36.276L1.74479 23.9479V4.35938L1.84896 4.3125L22.9219 25.3906V50.0573L36.276 63.4115H60.9427L82.0156 84.4844L81.974 84.5885H62.3854L50.0521 72.2552H23.9427L9.86458 86.3333L23.9427 100.406H50.0521L62.3854 88.0781H81.974L82.0156 88.1823L60.9427 109.255H36.276L22.9219 122.609V147.276L1.84896 168.349L1.74479 168.307V148.719L14.0781 136.385V110.276L0 96.1979V101.13L10.5885 111.719V134.943L0 145.531V199.797L10.5885 210.385V233.609L0 244.198V249.13L14.0781 235.052V208.943L1.74479 196.609V177.026L1.84896 176.979L22.9219 198.052V222.724L36.276 236.078H60.9427L82.0156 257.151L81.974 257.255H62.3854L50.0521 244.922H23.9427L9.86458 259L23.9427 273.078H50.0521L62.3854 260.74H81.974L82.0156 260.844L60.9427 281.917H36.276L22.9219 295.276V319.943L1.84896 341.016L1.74479 340.969V321.385L14.0781 309.052V282.943L0 268.865V273.797L10.5885 284.385V307.609L0 318.198V372.464L10.5885 383.052V406.276L0 416.865V421.797L14.0781 407.719V381.609L1.74479 369.276V349.688L1.84896 349.646L22.9219 370.719V395.385L36.276 408.74H60.9427L82.0156 429.812L81.974 429.917H62.3854L50.0521 417.583H23.9427L9.86458 431.661L23.9427 445.74H50.0521L62.3854 433.406H81.974L82.0156 433.51L60.9427 454.583H36.276L22.9219 467.938V492.604L1.84896 513.677L1.74479 513.635V494.047L14.0781 481.714V455.604L0 441.526V446.458L10.5885 457.047V480.271L0 490.859V517.995H27.1354L37.724 507.406H60.9427L71.5312 517.995H76.4635L62.3906 503.917H36.276L23.9427 516.25H4.35938L4.3125 516.146L25.3854 495.073H50.0521L63.4115 481.714V457.047L84.4844 435.974L84.5885 436.021V455.604L72.2552 467.938C72.2552 476.641 72.2552 485.349 72.2552 494.052L86.3333 508.13L100.406 494.052V467.938L88.0781 455.604V436.021L88.1823 435.974L109.255 457.047C109.255 465.271 109.255 473.495 109.255 481.714L122.609 495.073H147.276L168.349 516.146L168.307 516.25H148.719L136.385 503.917H110.276L96.1979 517.995H101.13L111.719 507.406H134.943L145.531 517.995C150.245 517.995 199.797 517.995 199.797 517.995L210.385 507.406H233.609L244.198 517.995H249.13L235.052 503.917H208.943L196.609 516.25H177.021L176.979 516.146L198.052 495.073H222.719L236.073 481.714V457.047L257.146 435.974L257.25 436.021V455.604L244.917 467.938C244.917 476.641 244.917 485.349 244.917 494.052L258.995 508.13L273.073 494.052V467.938L260.74 455.604V436.021L260.844 435.974L281.917 457.047C281.917 465.271 281.917 473.495 281.917 481.714L295.271 495.073H319.938L341.01 516.146L340.969 516.25H321.38L309.047 503.917H282.938L268.859 517.995H273.792L284.38 507.406H307.604L318.193 517.995H372.458L383.047 507.406H406.271L416.865 518ZM345.333 490.865L334.745 480.276V457.057L345.333 446.469L355.922 457.052V480.276L345.333 490.865ZM345.333 441.531L359.406 455.609L359.411 481.719L347.078 494.057V513.641L347.182 513.682L368.255 492.609V467.948L381.609 454.589H406.276L427.349 433.516L427.307 433.411H407.719L395.385 445.745H369.276L355.198 431.667L369.276 417.589H395.385L407.719 429.922H427.307L427.349 429.818L406.276 408.745H381.609L368.255 395.391V370.724L347.182 349.651L347.078 349.693V369.281L359.411 381.615V407.724L345.333 421.802L331.255 407.724V381.615L343.589 369.281V349.693L343.484 349.651L322.411 370.724C322.411 378.948 322.411 387.167 322.411 395.391L309.057 408.745H284.391L263.312 429.818L263.359 429.922H282.948L295.276 417.589H321.391L335.469 431.667L321.391 445.745H295.276L282.948 433.411H263.359L263.312 433.516L284.391 454.589H309.057L322.411 467.948V492.609L343.484 513.682L343.589 513.641V494.057L331.255 481.719V455.609L345.333 441.531ZM345.333 416.865L334.745 406.276V383.057L345.333 372.464L355.922 383.057V406.276L345.333 416.865ZM372.464 345.333L383.057 334.745H406.276L416.865 345.333L406.276 355.922H383.057L372.464 345.333ZM421.797 345.333L407.724 331.255H381.609L369.276 343.589H349.688L349.646 343.484L370.719 322.411H395.385L408.745 309.057V284.391L429.818 263.312L429.922 263.359V282.948L417.589 295.281C417.589 303.979 417.589 312.688 417.589 321.391L431.667 335.469L445.745 321.391V295.281L433.406 282.948V263.359L433.51 263.312L454.589 284.391C454.589 292.615 454.589 300.833 454.589 309.057L467.943 322.411H492.609L513.682 343.484L513.641 343.589H494.052L481.724 331.255H455.609L441.531 345.333L455.609 359.411H481.724L494.052 347.078H513.641L513.688 347.182L492.609 368.255H467.943L454.589 381.609V406.276L433.516 427.349L433.411 427.307V407.719L445.745 395.385V369.276L431.667 355.198L417.589 369.276C417.589 377.979 417.589 386.682 417.589 395.385L429.922 407.719V427.307L429.818 427.349L408.745 406.276V381.609L395.391 368.255H370.724L349.651 347.182L349.693 347.078H369.281L381.615 359.411H407.724L421.797 345.333ZM446.469 345.333L457.057 334.745H480.276L490.865 345.333L480.276 355.922H457.057L446.469 345.333ZM393.943 491.589L405.255 480.276V458.078H383.057L371.745 469.391V491.589H393.943ZM371.745 393.943V371.745H393.943L405.255 383.057V405.255H383.057L371.745 393.943ZM469.391 371.745H491.589V393.943L480.276 405.255H458.078V383.057L469.391 371.745ZM491.589 469.391V491.589H469.385L458.078 480.276V458.078H480.276L491.589 469.391ZM393.943 442.255H370.719L360.13 431.667L370.719 421.078H393.943L404.531 431.667L393.943 442.255ZM421.078 393.943V370.719L431.667 360.13L442.255 370.719V393.943L431.667 404.531L421.078 393.943ZM469.391 421.078H492.609L503.198 431.667L492.609 442.255H469.391L458.797 431.667L469.391 421.078ZM442.255 469.391V492.609L431.667 503.203L421.078 492.609V469.391L431.667 458.797L442.255 469.391ZM384.724 384.724C386.807 382.635 390.188 382.635 392.276 384.724C394.365 386.807 394.365 390.193 392.276 392.276C390.193 394.365 386.807 394.365 384.724 392.276C382.635 390.193 382.635 386.807 384.724 384.724ZM478.609 384.724C480.698 386.807 480.698 390.193 478.609 392.276C476.526 394.365 473.141 394.365 471.052 392.276C468.969 390.193 468.969 386.807 471.052 384.724C473.141 382.635 476.526 382.635 478.609 384.724ZM478.609 478.609C476.526 480.698 473.141 480.698 471.052 478.609C468.969 476.526 468.969 473.141 471.052 471.052C473.141 468.969 476.521 468.969 478.609 471.052C480.698 473.141 480.698 476.526 478.609 478.609ZM212.052 478.609C209.969 476.526 209.969 473.141 212.052 471.052C214.141 468.969 217.526 468.969 219.609 471.052C221.698 473.141 221.698 476.521 219.609 478.609C217.526 480.698 214.141 480.698 212.052 478.609ZM172.667 490.865L162.078 480.276V457.057L172.667 446.469L183.255 457.052V480.276L172.667 490.865ZM172.667 441.531L158.589 455.609V481.719L170.922 494.057V513.641L170.818 513.682L149.745 492.609V467.948L136.391 454.589H111.724L90.651 433.516L90.6927 433.411H110.281L122.615 445.745H148.724L162.802 431.667L148.724 417.589H122.609L110.276 429.922H90.6875L90.6458 429.818L111.719 408.745H136.385L149.74 395.391C149.74 387.167 149.74 378.948 149.74 370.724L170.818 349.651L170.922 349.693V369.281L158.589 381.615V407.724L172.661 421.802L186.74 407.724V381.615L174.406 369.281V349.693L174.51 349.651L195.583 370.724V395.391L208.943 408.745H233.609L254.682 429.818L254.641 429.922H235.052L222.719 417.589H196.609L182.531 431.667L196.609 445.745H222.724L235.052 433.411H254.641L254.688 433.516L233.609 454.589H208.943L195.589 467.948V492.609L174.516 513.682L174.411 513.641V494.057L186.745 481.719V455.609L172.667 441.531ZM172.667 416.865L162.078 406.276V383.057L172.667 372.464L183.255 383.057V406.276L172.667 416.865ZM199.797 345.333L210.385 334.745H233.609L244.198 345.333L233.609 355.922H210.385L199.797 345.333ZM249.13 345.333L235.057 331.255H208.943L196.609 343.589H177.026L176.979 343.484L198.052 322.411H222.719L236.078 309.057V284.391L257.151 263.312L257.255 263.359V282.948L244.922 295.281C244.922 303.979 244.922 312.688 244.922 321.391L259 335.469L273.078 321.391V295.281L260.74 282.948V263.359L260.844 263.312L281.917 284.391C281.917 292.615 281.917 300.833 281.917 309.057L295.276 322.411H319.943L341.016 343.484L340.969 343.589H321.385L309.052 331.255H282.943L268.865 345.333L282.943 359.411H309.052L321.385 347.078H340.969L341.016 347.182L319.943 368.255H295.276L281.917 381.609V406.276L260.844 427.349L260.74 427.307V407.719L273.078 395.385V369.276L259 355.198L244.922 369.276C244.922 377.979 244.922 386.682 244.922 395.385L257.255 407.719V427.307L257.151 427.349L236.078 406.276V381.609L222.719 368.255H198.052L176.979 347.182L177.026 347.078H196.609L208.943 359.411H235.057L249.13 345.333ZM273.797 345.333L284.391 334.745H307.609L318.198 345.333L307.609 355.922H284.391L273.797 345.333ZM221.276 491.589H199.078V469.391L210.385 458.078H232.589V480.276L221.276 491.589ZM199.078 393.943V371.745H221.276L232.589 383.057V405.255H210.385L199.078 393.943ZM296.724 371.745H318.922V393.943L307.609 405.255H285.411V383.057L296.724 371.745ZM318.922 469.391V491.589H296.724L285.411 480.276V458.078H307.609L318.922 469.391ZM221.276 442.255H198.057L187.464 431.667L198.057 421.078H221.276L231.865 431.667L221.276 442.255ZM248.411 393.943V370.719L259 360.13L269.589 370.719V393.943L259 404.531L248.411 393.943ZM296.724 421.078H319.943L330.531 431.667L319.943 442.255H296.724L286.13 431.667L296.724 421.078ZM269.589 469.391V492.609L259 503.203L248.411 492.609V469.391L259 458.797L269.589 469.391ZM212.052 384.724C214.141 382.635 217.526 382.635 219.609 384.724C221.698 386.807 221.698 390.193 219.609 392.276C217.526 394.365 214.141 394.365 212.052 392.276C209.969 390.193 209.969 386.807 212.052 384.724ZM305.943 384.724C308.031 386.807 308.031 390.193 305.943 392.276C303.859 394.365 300.474 394.365 298.391 392.276C296.302 390.193 296.302 386.807 298.391 384.724C300.474 382.635 303.859 382.635 305.943 384.724ZM305.943 478.609C303.859 480.698 300.474 480.698 298.391 478.609C296.302 476.526 296.302 473.141 298.391 471.052C300.474 468.969 303.859 468.969 305.943 471.052C308.031 473.141 308.031 476.526 305.943 478.609ZM39.3906 478.609C37.3021 476.526 37.3021 473.141 39.3906 471.052C41.474 468.969 44.8594 468.969 46.9427 471.052C49.0313 473.141 49.0313 476.521 46.9427 478.609C44.8594 480.698 41.474 480.698 39.3906 478.609ZM27.1302 345.333L37.7188 334.745H60.9427L71.5312 345.333L60.9427 355.922H37.7188L27.1302 345.333ZM76.4635 345.333L62.3906 331.255H36.276L23.9427 343.589H4.35417L4.3125 343.484L25.3854 322.411H50.0521L63.4062 309.057V284.391L84.4844 263.312L84.5885 263.359V282.948L72.2552 295.281C72.2552 303.979 72.2552 312.688 72.2552 321.391L86.3281 335.469L100.406 321.391V295.281L88.0729 282.948V263.359L88.1771 263.312L109.25 284.391C109.25 292.615 109.25 300.833 109.25 309.057L122.609 322.411H147.276L168.349 343.484L168.302 343.589H148.719L136.385 331.255H110.271L96.1979 345.333L110.271 359.411H136.385L148.719 347.078H168.302L168.349 347.182L147.276 368.255H122.609L109.25 381.609V406.276L88.1771 427.349L88.0729 427.307V407.719L100.406 395.385V369.276L86.3281 355.198L72.2552 369.276C72.2552 377.979 72.2552 386.682 72.2552 395.385L84.5885 407.719V427.307L84.4844 427.349L63.4062 406.276V381.609L50.0521 368.255H25.3854L4.3125 347.182L4.35417 347.078H23.9427L36.276 359.411H62.3906L76.4635 345.333ZM101.13 345.333L111.724 334.745H134.943L145.531 345.333L134.943 355.922H111.724L101.13 345.333ZM48.6094 491.589H26.4115V469.391L37.7188 458.078H59.9219V480.276L48.6094 491.589ZM26.4115 393.943V371.745H48.6094L59.9219 383.057V405.255H37.7188L26.4115 393.943ZM124.052 371.745H146.255V393.943L134.943 405.255H112.745V383.057L124.052 371.745ZM146.255 469.391V491.589H124.052L112.745 480.276V458.078H134.943L146.255 469.391ZM48.6094 442.255H25.3854L14.7969 431.667L25.3854 421.078H48.6094L59.1979 431.667L48.6094 442.255ZM75.7448 393.943V370.719L86.3333 360.13L96.9219 370.719V393.943L86.3333 404.531L75.7448 393.943ZM124.052 421.078H147.276L157.865 431.667L147.276 442.255H124.052L113.464 431.667L124.052 421.078ZM96.9219 469.391V492.609L86.3333 503.203L75.7448 492.609V469.391L86.3333 458.797L96.9219 469.391ZM39.3906 384.724C41.474 382.635 44.8594 382.635 46.9427 384.724C49.0313 386.807 49.0313 390.193 46.9427 392.276C44.8594 394.365 41.474 394.365 39.3906 392.276C37.3021 390.193 37.3021 386.807 39.3906 384.724ZM133.276 384.724C135.365 386.807 135.365 390.193 133.276 392.276C131.193 394.365 127.807 394.365 125.724 392.276C123.635 390.193 123.635 386.807 125.724 384.724C127.807 382.635 131.193 382.635 133.276 384.724ZM133.276 478.609C131.193 480.698 127.807 480.698 125.724 478.609C123.635 476.526 123.635 473.141 125.724 471.052C127.807 468.969 131.188 468.969 133.276 471.052C135.365 473.141 135.365 476.526 133.276 478.609ZM384.724 305.943C382.635 303.859 382.635 300.474 384.724 298.391C386.807 296.302 390.188 296.302 392.276 298.391C394.365 300.474 394.365 303.859 392.276 305.943C390.193 308.031 386.807 308.031 384.724 305.943ZM345.333 318.198L334.745 307.609V284.391L345.333 273.797L355.922 284.391V307.609L345.333 318.198ZM345.333 268.87L331.255 282.943V309.057L343.589 321.391V340.974L343.484 341.021L322.411 319.943V295.276L309.057 281.922H284.391L263.312 260.849L263.359 260.745H282.948L295.276 273.078H321.391L335.469 259L321.391 244.927H295.276L282.948 257.255H263.359L263.312 257.156L284.391 236.078H309.057L322.411 222.724C322.411 214.505 322.411 206.281 322.411 198.057L343.484 176.984L343.589 177.026V196.615L331.255 208.948V235.057L345.333 249.135L359.411 235.057V208.943L347.078 196.609V177.026L347.182 176.979L368.255 198.052V222.724L381.609 236.078H406.276L427.349 257.151L427.307 257.255H407.719L395.385 244.922H369.276L355.198 259L369.276 273.078H395.385L407.719 260.74H427.307L427.349 260.844L406.276 281.917H381.609L368.255 295.276V319.943L347.182 341.016L347.078 340.969V321.385L359.411 309.052L359.406 282.943L345.333 268.87ZM345.333 244.203L334.745 233.609V210.391L345.333 199.797L355.922 210.391V233.609L345.333 244.203ZM372.464 172.667L383.057 162.078H406.276L416.865 172.667L406.276 183.255H383.057L372.464 172.667ZM421.797 172.667L407.724 158.589H381.609L369.276 170.922H349.688L349.646 170.818L370.719 149.745H395.385L408.745 136.391V111.724L429.818 90.651L429.922 90.6927V110.281L417.589 122.615C417.589 131.318 417.589 140.021 417.589 148.724L431.667 162.802L445.745 148.724V122.615L433.406 110.281V90.6927L433.51 90.651L454.589 111.724C454.589 119.948 454.589 128.167 454.589 136.391L467.943 149.745H492.609L513.682 170.818L513.641 170.922H494.052L481.724 158.589H455.609L441.531 172.667L455.609 186.745H481.724L494.052 174.411H513.641L513.688 174.516L492.609 195.589H467.943L454.589 208.943V233.609L433.516 254.682L433.411 254.641V235.052L445.745 222.719V196.609L431.667 182.531L417.589 196.609C417.589 205.312 417.589 214.016 417.589 222.719L429.922 235.052V254.641L429.818 254.682L408.745 233.609V208.943L395.391 195.589H370.724L349.651 174.516L349.693 174.411H369.281L381.615 186.745H407.724L421.797 172.667ZM446.469 172.667L457.057 162.078H480.276L490.865 172.667L480.276 183.255H457.057L446.469 172.667ZM393.943 318.922H371.745V296.719L383.057 285.411H405.255V307.609L393.943 318.922ZM371.745 221.276V199.078H393.943L405.255 210.391V232.589H383.057L371.745 221.276ZM469.391 199.078H491.589V221.276L480.276 232.589H458.078V210.391L469.391 199.078ZM491.589 296.719V318.922H469.385L458.078 307.609V285.411H480.276L491.589 296.719ZM393.943 269.589H370.719L360.13 259L370.719 248.411H393.943L404.531 259L393.943 269.589ZM421.078 221.276V198.057L431.667 187.464L442.255 198.057V221.276L431.667 231.865L421.078 221.276ZM469.391 248.411H492.609L503.198 259L492.609 269.589H469.391L458.797 259L469.391 248.411ZM442.255 296.719V319.943L431.667 330.531L421.078 319.943V296.719L431.667 286.13L442.255 296.719ZM384.724 212.052C386.807 209.969 390.188 209.969 392.276 212.052C394.365 214.141 394.365 217.526 392.276 219.609C390.193 221.698 386.807 221.698 384.724 219.609C382.635 217.526 382.635 214.141 384.724 212.052ZM478.609 212.052C480.698 214.141 480.698 217.526 478.609 219.609C476.526 221.698 473.141 221.698 471.052 219.609C468.969 217.526 468.969 214.141 471.052 212.052C473.141 209.969 476.526 209.969 478.609 212.052ZM478.609 305.943C476.526 308.031 473.141 308.031 471.052 305.943C468.969 303.859 468.969 300.474 471.052 298.391C473.141 296.302 476.521 296.302 478.609 298.391C480.698 300.474 480.698 303.859 478.609 305.943ZM212.052 305.943C209.969 303.859 209.969 300.474 212.052 298.391C214.141 296.302 217.526 296.302 219.609 298.391C221.698 300.474 221.698 303.859 219.609 305.943C217.526 308.031 214.141 308.031 212.052 305.943ZM172.667 318.198L162.078 307.609V284.391L172.667 273.797L183.255 284.391V307.609L172.667 318.198ZM172.667 268.87L158.589 282.943V309.057L170.922 321.391V340.974L170.818 341.021L149.745 319.943V295.276L136.391 281.922H111.724L90.651 260.849L90.6927 260.745H110.281L122.615 273.078H148.724L162.802 259L148.724 244.927H122.609L110.276 257.255H90.6875L90.6458 257.156L111.719 236.078H136.385L149.74 222.724C149.74 214.505 149.74 206.281 149.74 198.057L170.818 176.984L170.922 177.026V196.615L158.589 208.948V235.057L172.661 249.135L186.74 235.057V208.943L174.406 196.609V177.026L174.51 176.979L195.583 198.052V222.724L208.943 236.078H233.609L254.682 257.151L254.641 257.255H235.052L222.719 244.922H196.609L182.531 259L196.609 273.078H222.724L235.052 260.74H254.641L254.688 260.844L233.609 281.917H208.943L195.589 295.276V319.943L174.516 341.016L174.411 340.969V321.385L186.745 309.052V282.943L172.667 268.87ZM172.667 244.203L162.078 233.609V210.391L172.667 199.797L183.255 210.391V233.609L172.667 244.203ZM199.797 172.667L210.385 162.078H233.609L244.198 172.667L233.609 183.255H210.385L199.797 172.667ZM249.13 172.667L235.057 158.589H208.943L196.609 170.922H177.026L176.979 170.818L198.052 149.745H222.719L236.078 136.391V111.724L257.151 90.651L257.255 90.6927V110.281L244.922 122.615C244.922 131.318 244.922 140.021 244.922 148.724L259 162.802L273.078 148.724V122.615L260.74 110.281V90.6927L260.844 90.651L281.917 111.724C281.917 119.948 281.917 128.167 281.917 136.391L295.276 149.745H319.943L341.016 170.818L340.969 170.922H321.385L309.052 158.589H282.943L268.865 172.667L282.943 186.745H309.052L321.385 174.411H340.969L341.016 174.516L319.943 195.589H295.276L281.917 208.943V233.609L260.844 254.682L260.74 254.641V235.052L273.078 222.719V196.609L259 182.531L244.922 196.609C244.922 205.312 244.922 214.016 244.922 222.719L257.255 235.052V254.641L257.151 254.682L236.078 233.609V208.943L222.719 195.589H198.052L176.979 174.516L177.026 174.411H196.609L208.943 186.745H235.057L249.13 172.667ZM273.797 172.667L284.391 162.078H307.609L318.198 172.667L307.609 183.255H284.391L273.797 172.667ZM221.276 318.922H199.078V296.719L210.385 285.411H232.589V307.609L221.276 318.922ZM199.078 221.276V199.078H221.276L232.589 210.391V232.589H210.385L199.078 221.276ZM296.724 199.078H318.922V221.276L307.609 232.589H285.411V210.391L296.724 199.078ZM318.922 296.719V318.922H296.724L285.411 307.609V285.411H307.609L318.922 296.719ZM221.276 269.589H198.057L187.464 259L198.057 248.411H221.276L231.865 259L221.276 269.589ZM248.411 221.276V198.057L259 187.464L269.589 198.057V221.276L259 231.865L248.411 221.276ZM296.724 248.411H319.943L330.531 259L319.943 269.589H296.724L286.13 259L296.724 248.411ZM269.589 296.719V319.943L259 330.531L248.411 319.943V296.719L259 286.13L269.589 296.719ZM212.052 212.052C214.141 209.969 217.526 209.969 219.609 212.052C221.698 214.141 221.698 217.526 219.609 219.609C217.526 221.698 214.141 221.698 212.052 219.609C209.969 217.526 209.969 214.141 212.052 212.052ZM305.943 212.052C308.031 214.141 308.031 217.526 305.943 219.609C303.859 221.698 300.474 221.698 298.391 219.609C296.302 217.526 296.302 214.141 298.391 212.052C300.474 209.969 303.859 209.969 305.943 212.052ZM305.943 305.943C303.859 308.031 300.474 308.031 298.391 305.943C296.302 303.859 296.302 300.474 298.391 298.391C300.474 296.302 303.859 296.302 305.943 298.391C308.031 300.474 308.031 303.859 305.943 305.943ZM39.3906 305.943C37.3021 303.859 37.3021 300.474 39.3906 298.391C41.474 296.302 44.8594 296.302 46.9427 298.391C49.0313 300.474 49.0313 303.859 46.9427 305.943C44.8594 308.031 41.474 308.031 39.3906 305.943ZM27.1302 172.667L37.7188 162.078H60.9427L71.5312 172.667L60.9427 183.255H37.7188L27.1302 172.667ZM76.4635 172.667L62.3906 186.745H36.276L23.9427 174.411H4.35417L4.3125 174.516L25.3854 195.589H50.0521L63.4062 208.943V233.609L84.4844 254.682L84.5885 254.641V235.052L72.2552 222.719C72.2552 214.016 72.2552 205.312 72.2552 196.609L86.3281 182.531L100.406 196.609V222.719L88.0729 235.052V254.641L88.1771 254.682L109.25 233.609V208.943L122.609 195.589H147.276L168.349 174.516L168.302 174.411H148.719L136.385 186.745H110.271L96.1979 172.667L110.271 158.589H136.385L148.719 170.922H168.302L168.349 170.818L147.276 149.745H122.609L109.255 136.391C109.255 128.167 109.255 119.948 109.255 111.724L88.1823 90.651L88.0781 90.6927V110.281L100.411 122.615V148.724L86.3333 162.802L72.2552 148.724C72.2552 140.021 72.2552 131.318 72.2552 122.615L84.5885 110.281V90.6927L84.4844 90.651L63.4115 111.724V136.391L50.0573 149.745H25.3906L4.3125 170.818L4.35938 170.922H23.9427L36.276 158.589H62.3906L76.4635 172.667ZM101.13 172.667L111.724 162.078H134.943L145.531 172.667L134.943 183.255H111.724L101.13 172.667ZM48.6094 318.922H26.4115V296.719L37.7188 285.411H59.9219V307.609L48.6094 318.922ZM26.4115 221.276V199.078H48.6094L59.9219 210.391V232.589H37.7188L26.4115 221.276ZM124.052 199.078H146.255V221.276L134.943 232.589H112.745V210.391L124.052 199.078ZM146.255 296.719V318.922H124.052L112.745 307.609V285.411H134.943L146.255 296.719ZM48.6094 269.589H25.3854L14.7969 259L25.3854 248.411H48.6094L59.1979 259L48.6094 269.589ZM75.7448 221.276V198.057L86.3333 187.464L96.9219 198.057V221.276L86.3333 231.865L75.7448 221.276ZM124.052 248.411H147.276L157.865 259L147.276 269.589H124.052L113.464 259L124.052 248.411ZM96.9219 296.719V319.943L86.3333 330.531L75.7448 319.943V296.719L86.3333 286.13L96.9219 296.719ZM39.3906 212.052C41.474 209.969 44.8594 209.969 46.9427 212.052C49.0313 214.141 49.0313 217.526 46.9427 219.609C44.8594 221.698 41.474 221.698 39.3906 219.609C37.3021 217.526 37.3021 214.141 39.3906 212.052ZM133.276 212.052C135.365 214.141 135.365 217.526 133.276 219.609C131.193 221.698 127.807 221.698 125.724 219.609C123.635 217.526 123.635 214.141 125.724 212.052C127.807 209.969 131.193 209.969 133.276 212.052ZM133.276 305.943C131.193 308.031 127.807 308.031 125.724 305.943C123.635 303.859 123.635 300.474 125.724 298.391C127.807 296.302 131.188 296.302 133.276 298.391C135.365 300.474 135.365 303.859 133.276 305.943ZM384.724 133.276C382.635 131.188 382.635 127.807 384.724 125.719C386.807 123.635 390.188 123.635 392.276 125.719C394.365 127.807 394.365 131.188 392.276 133.276C390.193 135.365 386.807 135.365 384.724 133.276ZM345.333 145.536L334.745 134.943V111.719L345.333 101.13L355.922 111.719V134.943L345.333 145.536ZM345.333 96.1979L331.255 110.276V136.385L343.589 148.724V168.307L343.484 168.354L322.411 147.281V122.609L309.057 109.255H284.391L263.312 88.1823L263.359 88.0781H282.948L295.276 100.411H321.391L335.469 86.3333L321.391 72.2552H295.276L282.948 84.5885H263.359L263.312 84.4844L284.391 63.4115H309.057L322.411 50.0573C322.411 41.8333 322.411 33.6146 322.411 25.3906L343.484 4.31771L343.589 4.35938V23.9479L331.255 36.2812V62.3906L345.333 76.4688L359.411 62.3906V36.2812L347.078 23.9479V4.35938L347.182 4.31771L368.255 25.3906V50.0573L381.609 63.4115H406.276L427.349 84.4844L427.307 84.5885H407.719L395.385 72.2552H369.276L355.198 86.3333L369.276 100.411H395.385L407.719 88.0781H427.307L427.349 88.1823L406.276 109.255H381.609L368.255 122.609V147.281L347.182 168.354L347.078 168.307V148.724L359.411 136.385L359.406 110.276L345.333 96.1979ZM345.333 71.5312L334.745 60.9427V37.7188L345.333 27.1302L355.922 37.7188V60.9427L345.333 71.5312ZM393.943 146.255H371.745V124.052L383.057 112.745H405.255V134.943L393.943 146.255ZM371.745 48.6094V26.4115H393.943L405.255 37.7188V59.9219H383.057L371.745 48.6094ZM469.391 26.4115H491.589V48.6094L480.276 59.9219H458.078V37.7188L469.391 26.4115ZM491.589 124.057V146.255H469.385L458.078 134.943V112.745H480.276L491.589 124.057ZM393.943 96.9219H370.719L360.13 86.3333L370.719 75.7448H393.943L404.531 86.3333L393.943 96.9219ZM421.078 48.6094V25.3906L431.667 14.7969L442.255 25.3906V48.6094L431.667 59.1979L421.078 48.6094ZM469.391 75.7448H492.609L503.198 86.3333L492.609 96.9219H469.391L458.797 86.3333L469.391 75.7448ZM442.255 124.057V147.281L431.667 157.87L421.078 147.281V124.057L431.667 113.469L442.255 124.057ZM384.724 39.3854C386.807 37.3021 390.188 37.3021 392.276 39.3854C394.365 41.474 394.365 44.8594 392.276 46.9427C390.193 49.0313 386.807 49.0313 384.724 46.9427C382.635 44.8594 382.635 41.474 384.724 39.3854ZM478.609 39.3854C480.698 41.474 480.698 44.8594 478.609 46.9427C476.526 49.0313 473.141 49.0313 471.052 46.9427C468.969 44.8594 468.969 41.474 471.052 39.3854C473.141 37.3021 476.526 37.3021 478.609 39.3854ZM478.609 133.276C476.526 135.365 473.141 135.365 471.052 133.276C468.969 131.188 468.969 127.807 471.052 125.719C473.141 123.635 476.521 123.635 478.609 125.719C480.698 127.807 480.698 131.188 478.609 133.276ZM212.052 133.276C209.969 131.188 209.969 127.807 212.052 125.719C214.141 123.635 217.526 123.635 219.609 125.719C221.698 127.807 221.698 131.188 219.609 133.276C217.526 135.365 214.141 135.365 212.052 133.276ZM172.667 145.536L162.078 134.943V111.719L172.667 101.13L183.255 111.719V134.943L172.667 145.536ZM172.667 96.1979L158.589 110.276V136.385L170.922 148.724V168.307L170.818 168.354L149.745 147.281V122.609L136.391 109.255H111.724L90.651 88.1823L90.6927 88.0781H110.281L122.615 100.411H148.724L162.802 86.3333L148.724 72.2552H122.609L110.276 84.5885H90.6875L90.6458 84.4844L111.719 63.4115H136.385L149.74 50.0573C149.74 41.8333 149.74 33.6146 149.74 25.3906L170.818 4.31771L170.922 4.35938V23.9479L158.589 36.2812V62.3906L172.661 76.4688L186.74 62.3906V36.2812L174.406 23.9479V4.35938L174.51 4.31771L195.583 25.3906V50.0573L208.943 63.4115H233.609L254.682 84.4844L254.641 84.5885H235.052L222.719 72.2552H196.609L182.531 86.3333L196.609 100.411H222.724L235.052 88.0781H254.641L254.688 88.1823L233.609 109.255H208.943L195.589 122.609V147.281L174.516 168.354L174.411 168.307V148.724L186.745 136.385V110.276L172.667 96.1979ZM172.667 71.5312L162.078 60.9427V37.7188L172.667 27.1302L183.255 37.7188V60.9427L172.667 71.5312ZM221.276 146.255H199.078V124.052L210.385 112.745H232.589V134.943L221.276 146.255ZM199.078 48.6094V26.4115H221.276L232.589 37.7188V59.9219H210.385L199.078 48.6094ZM296.724 26.4115H318.922V48.6094L307.609 59.9219H285.411V37.7188L296.724 26.4115ZM318.922 124.057V146.255H296.724L285.411 134.943V112.745H307.609L318.922 124.057ZM221.276 96.9219H198.057L187.464 86.3333L198.057 75.7448H221.276L231.865 86.3333L221.276 96.9219ZM248.411 48.6094V25.3906L259 14.7969L269.589 25.3906V48.6094L259 59.1979L248.411 48.6094ZM296.724 75.7448H319.943L330.531 86.3333L319.943 96.9219H296.724L286.13 86.3333L296.724 75.7448ZM269.589 124.057V147.281L259 157.87L248.411 147.281V124.057L259 113.469L269.589 124.057ZM212.052 39.3854C214.141 37.3021 217.526 37.3021 219.609 39.3854C221.698 41.474 221.698 44.8594 219.609 46.9427C217.526 49.0313 214.141 49.0313 212.052 46.9427C209.969 44.8594 209.969 41.474 212.052 39.3854ZM305.943 39.3854C308.031 41.474 308.031 44.8594 305.943 46.9427C303.859 49.0313 300.474 49.0313 298.391 46.9427C296.302 44.8594 296.302 41.474 298.391 39.3854C300.474 37.3021 303.859 37.3021 305.943 39.3854ZM305.943 133.276C303.859 135.365 300.474 135.365 298.391 133.276C296.302 131.188 296.302 127.807 298.391 125.719C300.474 123.635 303.859 123.635 305.943 125.719C308.031 127.807 308.031 131.188 305.943 133.276ZM48.6094 146.255L59.9219 134.943V112.745H37.7188L26.4115 124.052V146.255H48.6094ZM26.4115 48.6094V26.4115H48.6094L59.9219 37.7188V59.9219H37.7188L26.4115 48.6094ZM124.052 26.4115H146.255V48.6094L134.943 59.9219H112.745V37.7188L124.052 26.4115ZM146.255 124.057V146.255H124.052L112.745 134.943V112.745H134.943L146.255 124.057ZM48.6094 96.9219H25.3854L14.7969 86.3333L25.3854 75.7448H48.6094L59.1979 86.3333L48.6094 96.9219ZM75.7448 48.6094V25.3906L86.3333 14.7969L96.9219 25.3906V48.6094L86.3333 59.1979L75.7448 48.6094ZM124.052 75.7448H147.276L157.865 86.3333L147.276 96.9219H124.052L113.464 86.3333L124.052 75.7448ZM96.9219 124.057V147.281L86.3333 157.87L75.7448 147.281V124.057L86.3333 113.469L96.9219 124.057ZM39.3906 39.3854C41.474 37.3021 44.8594 37.3021 46.9427 39.3854C49.0313 41.474 49.0313 44.8594 46.9427 46.9427C44.8594 49.0313 41.474 49.0313 39.3906 46.9427C37.3021 44.8594 37.3021 41.474 39.3906 39.3854ZM133.276 39.3854C135.365 41.474 135.365 44.8594 133.276 46.9427C131.193 49.0313 127.807 49.0313 125.724 46.9427C123.635 44.8594 123.635 41.474 125.724 39.3854C127.807 37.3021 131.193 37.3021 133.276 39.3854ZM133.276 133.276C131.193 135.365 127.807 135.365 125.724 133.276C123.635 131.188 123.635 127.807 125.724 125.719C127.807 123.635 131.188 123.635 133.276 125.719C135.365 127.807 135.365 131.188 133.276 133.276Z" fill="#F4E7E7"/>
</g>
<mask id="mask1_744_92" style="mask-type:luminance" maskUnits="userSpaceOnUse" x="1036" y="0" width="519" height="518">
<path d="M1036.09 0H1554.09V518H1036.09V0Z" fill="white"/>
</mask>
<g mask="url(#mask1_744_92)">
<path fill-rule="evenodd" clip-rule="evenodd" d="M1075.48 133.276C1073.4 131.188 1073.4 127.807 1075.48 125.719C1077.57 123.635 1080.95 123.635 1083.04 125.719C1085.12 127.807 1085.12 131.188 1083.04 133.276C1080.95 135.365 1077.57 135.365 1075.48 133.276ZM1420.82 478.609C1418.73 476.526 1418.73 473.141 1420.82 471.052C1422.9 468.969 1426.29 468.969 1428.37 471.052C1430.46 473.141 1430.46 476.521 1428.37 478.609C1426.29 480.698 1422.9 480.698 1420.82 478.609ZM1452.96 518H1457.89L1443.82 503.922H1417.7L1405.37 516.255H1385.78L1385.74 516.151L1406.81 495.078H1431.48L1444.84 481.724V457.057L1465.91 435.984L1466.02 436.026V455.615L1453.68 467.948C1453.68 476.651 1453.68 485.354 1453.68 494.057L1467.76 508.135L1481.83 494.057V467.948L1469.5 455.615V436.026L1469.6 435.984L1490.68 457.057C1490.68 465.281 1490.68 473.5 1490.68 481.724L1504.04 495.078H1528.7L1549.78 516.151L1549.73 516.255H1530.15L1517.82 503.922H1491.7L1477.63 518H1482.56L1493.15 507.411H1516.37L1526.96 518H1554.09V490.865L1543.51 480.276V457.057L1554.09 446.469V441.531L1540.02 455.609V481.724L1552.35 494.057V513.641L1552.24 513.688L1531.17 492.615V467.948L1517.82 454.594H1493.15L1472.08 433.516L1472.12 433.411H1491.71L1504.04 445.745H1530.15L1544.23 431.667L1530.15 417.594H1504.04L1491.71 429.922H1472.12L1472.08 429.823L1493.15 408.745H1517.82L1531.17 395.391C1531.17 387.167 1531.17 378.948 1531.17 370.724L1552.24 349.651L1552.35 349.693V369.281L1540.02 381.615V407.729L1554.09 421.802V416.87L1543.51 406.281V383.057L1554.09 372.469V318.203L1543.51 307.615V284.391L1554.09 273.802V268.87L1540.02 282.948V309.057L1552.35 321.391V340.979L1552.24 341.021L1531.17 319.948V295.281L1517.82 281.927H1493.15L1472.08 260.854L1472.12 260.75H1491.71L1504.04 273.083H1530.15L1544.23 259.005L1530.15 244.927H1504.04L1491.71 257.26H1472.12L1472.08 257.156L1493.15 236.083H1517.82L1531.17 222.729C1531.17 214.505 1531.17 206.281 1531.17 198.062L1552.24 176.99L1552.35 177.031V196.62L1540.02 208.953V235.062L1554.09 249.141V244.208L1543.51 233.62V210.391L1554.09 199.797V145.536L1543.51 134.943V111.719L1554.09 101.13V96.1979L1540.02 110.276V136.385L1552.35 148.724V168.307L1552.24 168.354L1531.17 147.281V122.609L1517.82 109.255H1493.15L1472.08 88.1823L1472.12 88.0781H1491.71L1504.04 100.411H1530.15L1544.23 86.3333L1530.15 72.2552H1504.04L1491.71 84.5885H1472.12L1472.08 84.4844L1493.15 63.4115H1517.82L1531.17 50.0573C1531.17 41.8333 1531.17 33.6146 1531.17 25.3906L1552.24 4.31771L1552.35 4.35938V23.9479L1540.02 36.2812V62.3906L1554.09 76.4688V71.5365L1543.51 60.9479V37.724L1554.09 27.1354V0.00520833H1526.96L1516.37 10.5938H1493.15L1482.56 0.00520833H1477.63L1491.7 14.0781H1517.82L1530.15 1.74479H1549.74L1549.78 1.84896L1528.71 22.9271H1504.04L1490.69 36.2812V60.9479L1469.61 82.0208L1469.51 81.9792V62.3906L1481.84 50.0573V23.9427L1467.76 9.86458L1453.68 23.9427C1453.68 32.6458 1453.68 41.349 1453.68 50.0573L1466.02 62.3906V81.974L1465.92 82.0208L1444.84 60.9427V36.276L1431.48 22.9219H1406.82L1385.74 1.84896L1385.79 1.74479H1405.38L1417.71 14.0781H1443.82L1457.9 0H1452.96L1442.38 10.5885H1419.15L1408.56 0H1354.3L1343.71 10.5885H1320.48L1309.9 0H1304.96L1319.04 14.0781H1345.15L1357.48 1.74479H1377.07L1377.11 1.84896L1356.04 22.9219H1331.38L1318.02 36.276V60.9427L1296.95 82.0208L1296.84 81.974V62.3906L1309.18 50.0573V23.9427L1295.1 9.86458L1281.02 23.9427C1281.02 32.6458 1281.02 41.349 1281.02 50.0573L1293.35 62.3906V81.974L1293.25 82.0208L1272.18 60.9427V36.276L1258.82 22.9219H1234.16L1213.08 1.84896L1213.12 1.74479H1232.71L1245.05 14.0781H1271.16L1285.23 0H1280.3L1269.71 10.5885H1246.49L1235.9 0C1217.81 0 1199.72 0 1181.64 0L1171.05 10.5885H1147.82L1137.23 0H1132.3L1146.38 14.0781H1172.49L1184.82 1.74479H1204.41L1204.45 1.84896L1183.38 22.9219H1158.71L1145.36 36.276V60.9427L1124.29 82.0208L1124.18 81.974V62.3906L1136.51 50.0573V23.9427L1122.44 9.86458L1108.36 23.9427C1108.36 32.6458 1108.36 41.349 1108.36 50.0573L1120.69 62.3906V81.974L1120.59 82.0208L1099.52 60.9427V36.276L1086.16 22.9219H1061.49L1040.41 1.84896L1040.45 1.74479H1060.04L1072.38 14.0781H1098.48L1112.56 0H1107.63L1097.04 10.5885H1073.82L1063.23 0H1036.09V27.1354L1046.68 37.724V60.9427L1036.09 71.5312V76.4688L1050.17 62.3906V36.276L1037.84 23.9479V4.35938L1037.94 4.3125L1059.02 25.3906V50.0573L1072.37 63.4115H1097.04L1118.11 84.4844L1118.07 84.5885H1098.48L1086.15 72.2552H1060.04L1045.96 86.3333L1060.04 100.406H1086.15L1098.48 88.0781H1118.07L1118.11 88.1823L1097.04 109.255H1072.37L1059.02 122.609V147.276L1037.94 168.349L1037.84 168.307V148.719L1050.17 136.385V110.276L1036.09 96.1979V101.13L1046.68 111.719V134.943L1036.09 145.531V199.797L1046.68 210.385V233.609L1036.09 244.198V249.13L1050.17 235.052V208.943L1037.84 196.609V177.026L1037.94 176.979L1059.02 198.052V222.724L1072.37 236.078H1097.04L1118.11 257.151L1118.07 257.255H1098.48L1086.15 244.922H1060.04L1045.96 259L1060.04 273.078H1086.15L1098.48 260.74H1118.07L1118.11 260.844L1097.04 281.917H1072.37L1059.02 295.276V319.943L1037.94 341.016L1037.84 340.969V321.385L1050.17 309.052V282.943L1036.09 268.865V273.797L1046.68 284.385V307.609L1036.09 318.198V372.464L1046.68 383.052V406.276L1036.09 416.865V421.797L1050.17 407.719V381.609L1037.84 369.276V349.688L1037.94 349.646L1059.02 370.719V395.385L1072.37 408.74H1097.04L1118.11 429.812L1118.07 429.917H1098.48L1086.15 417.583H1060.04L1045.96 431.661L1060.04 445.74H1086.15L1098.48 433.406H1118.07L1118.11 433.51L1097.04 454.583H1072.37L1059.02 467.938V492.604L1037.94 513.677L1037.84 513.635V494.047L1050.17 481.714V455.604L1036.09 441.526V446.458L1046.68 457.047V480.271L1036.09 490.859V517.995H1063.23L1073.82 507.406H1097.04L1107.62 517.995H1112.56L1098.48 503.917H1072.38L1060.04 516.25H1040.45L1040.41 516.146L1061.48 495.073H1086.15L1099.51 481.714V457.047L1120.58 435.974L1120.68 436.021V455.604L1108.35 467.938C1108.35 476.641 1108.35 485.349 1108.35 494.052L1122.43 508.13L1136.51 494.052V467.938L1124.17 455.604V436.021L1124.28 435.974L1145.35 457.047C1145.35 465.271 1145.35 473.495 1145.35 481.714L1158.7 495.073H1183.37L1204.44 516.146L1204.4 516.25H1184.81L1172.48 503.917H1146.37L1132.29 517.995H1137.22L1147.81 507.406H1171.04L1181.62 517.995C1186.34 517.995 1235.89 517.995 1235.89 517.995L1246.48 507.406H1269.7L1280.29 517.995H1285.22L1271.15 503.917H1245.04L1232.7 516.25H1213.11L1213.07 516.146L1234.15 495.073H1258.81L1272.17 481.714V457.047L1293.24 435.974L1293.34 436.021V455.604L1281.01 467.938C1281.01 476.641 1281.01 485.349 1281.01 494.052L1295.09 508.13L1309.17 494.052V467.938L1296.83 455.604V436.021L1296.94 435.974L1318.01 457.047C1318.01 465.271 1318.01 473.495 1318.01 481.714L1331.36 495.073H1356.03L1377.1 516.146L1377.06 516.25H1357.47L1345.14 503.917H1319.03L1304.95 517.995H1309.89L1320.47 507.406H1343.7L1354.29 517.995H1408.55L1419.14 507.406H1442.36L1452.96 518ZM1381.43 490.865L1370.84 480.276V457.057L1381.43 446.469L1392.02 457.052V480.276L1381.43 490.865ZM1381.43 441.531L1395.51 455.609V481.719L1383.17 494.057V513.641L1383.28 513.682L1404.35 492.609V467.948L1417.7 454.589H1442.37L1463.44 433.516L1463.4 433.411H1443.81L1431.48 445.745H1405.37L1391.29 431.667L1405.37 417.589H1431.48L1443.81 429.922H1463.4L1463.44 429.818L1442.37 408.745H1417.7L1404.35 395.391V370.724L1383.28 349.651L1383.17 349.693V369.281L1395.51 381.615V407.724L1381.43 421.802L1367.35 407.724V381.615L1379.68 369.281V349.693L1379.58 349.651L1358.51 370.724C1358.51 378.948 1358.51 387.167 1358.51 395.391L1345.15 408.745H1320.48L1299.41 429.818L1299.45 429.922H1319.04L1331.38 417.589H1357.48L1371.56 431.667L1357.48 445.745H1331.38L1319.04 433.411H1299.45L1299.41 433.516L1320.48 454.589H1345.15L1358.51 467.948V492.609L1379.58 513.682L1379.68 513.641V494.057L1367.35 481.719V455.609L1381.43 441.531ZM1381.43 416.865L1370.84 406.276V383.057L1381.43 372.464L1392.02 383.057V406.276L1381.43 416.865ZM1408.56 345.333L1419.15 334.745H1442.37L1452.96 345.333L1442.37 355.922H1419.15L1408.56 345.333ZM1457.89 345.333L1443.82 331.255H1417.7L1405.38 343.589H1385.79L1385.74 343.484L1406.82 322.411H1431.48L1444.84 309.057V284.391L1465.91 263.312L1466.02 263.359V282.948L1453.68 295.281C1453.68 303.979 1453.68 312.688 1453.68 321.391L1467.76 335.469L1481.84 321.391V295.281L1469.51 282.948V263.359L1469.61 263.312L1490.68 284.391C1490.68 292.615 1490.68 300.833 1490.68 309.057L1504.04 322.411H1528.7L1549.78 343.484L1549.73 343.589H1530.15L1517.82 331.255H1491.7L1477.63 345.333L1491.7 359.411H1517.82L1530.15 347.078H1549.74L1549.78 347.182L1528.71 368.255H1504.04L1490.69 381.609V406.276L1469.61 427.349L1469.51 427.307V407.719L1481.84 395.385V369.276L1467.76 355.198L1453.68 369.276C1453.68 377.979 1453.68 386.682 1453.68 395.385L1466.02 407.719V427.307L1465.92 427.349L1444.84 406.276V381.609L1431.48 368.255H1406.82L1385.74 347.182L1385.79 347.078H1405.38L1417.71 359.411H1443.82L1457.89 345.333ZM1482.56 345.333L1493.15 334.745H1516.37L1526.96 345.333L1516.37 355.922H1493.15L1482.56 345.333ZM1430.04 491.589L1441.35 480.276V458.078H1419.15L1407.84 469.391V491.589H1430.04ZM1407.84 393.943V371.745H1430.04L1441.35 383.057V405.255H1419.15L1407.84 393.943ZM1505.48 371.745H1527.68V393.943L1516.37 405.255H1494.17V383.057L1505.48 371.745ZM1527.68 469.391V491.589H1505.48L1494.17 480.276V458.078H1516.37L1527.68 469.391ZM1430.04 442.255H1406.82L1396.23 431.667L1406.82 421.078H1430.04L1440.62 431.667L1430.04 442.255ZM1457.17 393.943V370.719L1467.76 360.13L1478.35 370.719V393.943L1467.76 404.531L1457.17 393.943ZM1505.48 421.078H1528.7L1539.29 431.667L1528.7 442.255H1505.48L1494.9 431.667L1505.48 421.078ZM1478.35 469.391V492.609L1467.76 503.203L1457.17 492.609V469.391L1467.76 458.797L1478.35 469.391ZM1420.82 384.724C1422.9 382.635 1426.29 382.635 1428.37 384.724C1430.46 386.807 1430.46 390.193 1428.37 392.276C1426.29 394.365 1422.9 394.365 1420.82 392.276C1418.73 390.193 1418.73 386.807 1420.82 384.724ZM1514.7 384.724C1516.79 386.807 1516.79 390.193 1514.7 392.276C1512.62 394.365 1509.23 394.365 1507.15 392.276C1505.06 390.193 1505.06 386.807 1507.15 384.724C1509.23 382.635 1512.62 382.635 1514.7 384.724ZM1514.7 478.609C1512.62 480.698 1509.23 480.698 1507.15 478.609C1505.06 476.526 1505.06 473.141 1507.15 471.052C1509.23 468.969 1512.61 468.969 1514.7 471.052C1516.79 473.141 1516.79 476.526 1514.7 478.609ZM1248.15 478.609C1246.06 476.526 1246.06 473.141 1248.15 471.052C1250.23 468.969 1253.62 468.969 1255.71 471.052C1257.79 473.141 1257.79 476.521 1255.71 478.609C1253.62 480.698 1250.23 480.698 1248.15 478.609ZM1208.76 490.865L1198.17 480.276V457.057L1208.76 446.469L1219.35 457.052V480.276L1208.76 490.865ZM1208.76 441.531L1194.68 455.609V481.719L1207.02 494.057V513.641L1206.91 513.682L1185.84 492.609V467.948L1172.48 454.589H1147.82L1126.74 433.516L1126.79 433.411H1146.38L1158.71 445.745H1184.82L1198.9 431.667L1184.82 417.589H1158.7L1146.37 429.922H1126.79L1126.74 429.818L1147.81 408.745H1172.48L1185.84 395.391C1185.84 387.167 1185.84 378.948 1185.84 370.724L1206.91 349.651L1207.02 349.693V369.281L1194.68 381.615V407.724L1208.76 421.802L1222.83 407.724V381.615L1210.5 369.281V349.693L1210.6 349.651L1231.68 370.724V395.391L1245.04 408.745H1269.7L1290.78 429.818L1290.73 429.922H1271.15L1258.81 417.589H1232.7L1218.62 431.667L1232.7 445.745H1258.82L1271.15 433.411H1290.73L1290.78 433.516L1269.71 454.589H1245.04L1231.68 467.948V492.609L1210.61 513.682L1210.51 513.641V494.057L1222.84 481.719V455.609L1208.76 441.531ZM1208.76 416.865L1198.17 406.276V383.057L1208.76 372.464L1219.35 383.057V406.276L1208.76 416.865ZM1235.9 345.333L1246.48 334.745H1269.7L1280.29 345.333L1269.7 355.922H1246.48L1235.9 345.333ZM1285.22 345.333L1271.15 331.255H1245.04L1232.7 343.589H1213.12L1213.07 343.484L1234.15 322.411H1258.81L1272.17 309.057V284.391L1293.24 263.312L1293.35 263.359V282.948L1281.02 295.281C1281.02 303.979 1281.02 312.688 1281.02 321.391L1295.09 335.469L1309.17 321.391V295.281L1296.83 282.948V263.359L1296.94 263.312L1318.02 284.391C1318.02 292.615 1318.02 300.833 1318.02 309.057L1331.37 322.411H1356.04L1377.11 343.484L1377.07 343.589H1357.48L1345.15 331.255H1319.04L1304.96 345.333L1319.04 359.411H1345.15L1357.48 347.078H1377.07L1377.11 347.182L1356.04 368.255H1331.37L1318.02 381.609V406.276L1296.94 427.349L1296.83 427.307V407.719L1309.17 395.385V369.276L1295.09 355.198L1281.02 369.276C1281.02 377.979 1281.02 386.682 1281.02 395.385L1293.35 407.719V427.307L1293.24 427.349L1272.17 406.276V381.609L1258.81 368.255H1234.15L1213.07 347.182L1213.12 347.078H1232.7L1245.04 359.411H1271.15L1285.22 345.333ZM1309.89 345.333L1320.48 334.745H1343.7L1354.29 345.333L1343.7 355.922H1320.48L1309.89 345.333ZM1257.37 491.589H1235.17V469.391L1246.48 458.078H1268.68V480.276L1257.37 491.589ZM1235.17 393.943V371.745H1257.37L1268.68 383.057V405.255H1246.48L1235.17 393.943ZM1332.82 371.745H1355.02V393.943L1343.7 405.255H1321.51V383.057L1332.82 371.745ZM1355.02 469.391V491.589H1332.82L1321.51 480.276V458.078H1343.7L1355.02 469.391ZM1257.37 442.255H1234.15L1223.56 431.667L1234.15 421.078H1257.37L1267.96 431.667L1257.37 442.255ZM1284.51 393.943V370.719L1295.09 360.13L1305.68 370.719V393.943L1295.09 404.531L1284.51 393.943ZM1332.82 421.078H1356.04L1366.63 431.667L1356.04 442.255H1332.82L1322.22 431.667L1332.82 421.078ZM1305.68 469.391V492.609L1295.09 503.203L1284.51 492.609V469.391L1295.09 458.797L1305.68 469.391ZM1248.15 384.724C1250.23 382.635 1253.62 382.635 1255.71 384.724C1257.79 386.807 1257.79 390.193 1255.71 392.276C1253.62 394.365 1250.23 394.365 1248.15 392.276C1246.06 390.193 1246.06 386.807 1248.15 384.724ZM1342.04 384.724C1344.12 386.807 1344.12 390.193 1342.04 392.276C1339.95 394.365 1336.57 394.365 1334.48 392.276C1332.4 390.193 1332.4 386.807 1334.48 384.724C1336.57 382.635 1339.95 382.635 1342.04 384.724ZM1342.04 478.609C1339.95 480.698 1336.57 480.698 1334.48 478.609C1332.4 476.526 1332.4 473.141 1334.48 471.052C1336.57 468.969 1339.95 468.969 1342.04 471.052C1344.12 473.141 1344.12 476.526 1342.04 478.609ZM1075.48 478.609C1073.4 476.526 1073.4 473.141 1075.48 471.052C1077.57 468.969 1080.95 468.969 1083.04 471.052C1085.12 473.141 1085.12 476.521 1083.04 478.609C1080.95 480.698 1077.57 480.698 1075.48 478.609ZM1063.22 345.333L1073.82 334.745H1097.04L1107.62 345.333L1097.04 355.922H1073.82L1063.22 345.333ZM1112.56 345.333L1098.48 331.255H1072.37L1060.04 343.589H1040.45L1040.41 343.484L1061.48 322.411H1086.15L1099.51 309.057V284.391L1120.58 263.312L1120.68 263.359V282.948L1108.35 295.281C1108.35 303.979 1108.35 312.688 1108.35 321.391L1122.43 335.469L1136.5 321.391V295.281L1124.17 282.948V263.359L1124.27 263.312L1145.35 284.391C1145.35 292.615 1145.35 300.833 1145.35 309.057L1158.7 322.411H1183.37L1204.44 343.484L1204.4 343.589H1184.81L1172.48 331.255H1146.37L1132.29 345.333L1146.37 359.411H1172.48L1184.81 347.078H1204.4L1204.44 347.182L1183.37 368.255H1158.7L1145.35 381.609V406.276L1124.27 427.349L1124.17 427.307V407.719L1136.5 395.385V369.276L1122.43 355.198L1108.35 369.276C1108.35 377.979 1108.35 386.682 1108.35 395.385L1120.68 407.719V427.307L1120.58 427.349L1099.51 406.276V381.609L1086.15 368.255H1061.48L1040.41 347.182L1040.45 347.078H1060.04L1072.37 359.411H1098.48L1112.56 345.333ZM1137.22 345.333L1147.82 334.745H1171.04L1181.63 345.333L1171.04 355.922H1147.82L1137.22 345.333ZM1084.7 491.589H1062.51V469.391L1073.82 458.078H1096.02V480.276L1084.7 491.589ZM1062.51 393.943V371.745H1084.7L1096.02 383.057V405.255H1073.82L1062.51 393.943ZM1160.15 371.745H1182.35V393.943L1171.04 405.255H1148.84V383.057L1160.15 371.745ZM1182.35 469.391V491.589H1160.15L1148.84 480.276V458.078H1171.04L1182.35 469.391ZM1084.7 442.255H1061.48L1050.89 431.667L1061.48 421.078H1084.7L1095.3 431.667L1084.7 442.255ZM1111.84 393.943V370.719L1122.43 360.13L1133.02 370.719V393.943L1122.43 404.531L1111.84 393.943ZM1160.15 421.078H1183.37L1193.96 431.667L1183.37 442.255H1160.15L1149.56 431.667L1160.15 421.078ZM1133.02 469.391V492.609L1122.43 503.203L1111.84 492.609V469.391L1122.43 458.797L1133.02 469.391ZM1075.48 384.724C1077.57 382.635 1080.95 382.635 1083.04 384.724C1085.12 386.807 1085.12 390.193 1083.04 392.276C1080.95 394.365 1077.57 394.365 1075.48 392.276C1073.4 390.193 1073.4 386.807 1075.48 384.724ZM1169.37 384.724C1171.46 386.807 1171.46 390.193 1169.37 392.276C1167.29 394.365 1163.9 394.365 1161.82 392.276C1159.73 390.193 1159.73 386.807 1161.82 384.724C1163.9 382.635 1167.29 382.635 1169.37 384.724ZM1169.37 478.609C1167.29 480.698 1163.9 480.698 1161.82 478.609C1159.73 476.526 1159.73 473.141 1161.82 471.052C1163.9 468.969 1167.29 468.969 1169.37 471.052C1171.46 473.141 1171.46 476.526 1169.37 478.609ZM1420.82 305.943C1418.73 303.859 1418.73 300.474 1420.82 298.391C1422.9 296.302 1426.29 296.302 1428.37 298.391C1430.46 300.474 1430.46 303.859 1428.37 305.943C1426.29 308.031 1422.9 308.031 1420.82 305.943ZM1381.43 318.198L1370.84 307.609V284.391L1381.43 273.797L1392.02 284.391V307.609L1381.43 318.198ZM1381.43 268.87L1367.35 282.943V309.057L1379.68 321.391V340.974L1379.58 341.021L1358.51 319.943V295.276L1345.15 281.922H1320.48L1299.41 260.849L1299.45 260.745H1319.04L1331.38 273.078H1357.48L1371.56 259L1357.48 244.927H1331.38L1319.04 257.255H1299.45L1299.41 257.156L1320.48 236.078H1345.15L1358.51 222.724C1358.51 214.505 1358.51 206.281 1358.51 198.057L1379.58 176.984L1379.68 177.026V196.615L1367.35 208.948V235.057L1381.43 249.135L1395.51 235.057V208.943L1383.17 196.609V177.026L1383.28 176.979L1404.35 198.052V222.724L1417.7 236.078H1442.37L1463.44 257.151L1463.4 257.255H1443.81L1431.48 244.922H1405.37L1391.29 259L1405.37 273.078H1431.48L1443.81 260.74H1463.4L1463.44 260.844L1442.37 281.917H1417.7L1404.35 295.276V319.943L1383.28 341.016L1383.17 340.969V321.385L1395.51 309.052V282.943L1381.43 268.87ZM1381.43 244.203L1370.84 233.609V210.391L1381.43 199.797L1392.02 210.391V233.609L1381.43 244.203ZM1408.56 172.667L1419.15 162.078H1442.37L1452.96 172.667L1442.37 183.255H1419.15L1408.56 172.667ZM1457.89 172.667L1443.82 158.589H1417.7L1405.38 170.922H1385.79L1385.74 170.818L1406.82 149.745H1431.48L1444.84 136.391V111.724L1465.91 90.651L1466.02 90.6927V110.281L1453.68 122.615C1453.68 131.318 1453.68 140.021 1453.68 148.724L1467.76 162.802L1481.84 148.724V122.615L1469.51 110.281V90.6927L1469.61 90.651L1490.68 111.724C1490.68 119.948 1490.68 128.167 1490.68 136.391L1504.04 149.745H1528.7L1549.78 170.818L1549.73 170.922H1530.15L1517.82 158.589H1491.7L1477.63 172.667L1491.7 186.745H1517.82L1530.15 174.411H1549.74L1549.78 174.516L1528.71 195.589H1504.04L1490.69 208.943V233.609L1469.61 254.682L1469.51 254.641V235.052L1481.84 222.719V196.609L1467.76 182.531L1453.68 196.609C1453.68 205.312 1453.68 214.016 1453.68 222.719L1466.02 235.052V254.641L1465.92 254.682L1444.84 233.609V208.943L1431.48 195.589H1406.82L1385.74 174.516L1385.79 174.411H1405.38L1417.71 186.745H1443.82L1457.89 172.667ZM1482.56 172.667L1493.15 162.078H1516.37L1526.96 172.667L1516.37 183.255H1493.15L1482.56 172.667ZM1430.04 318.922H1407.84V296.719L1419.15 285.411H1441.35V307.609L1430.04 318.922ZM1407.84 221.276V199.078H1430.04L1441.35 210.391V232.589H1419.15L1407.84 221.276ZM1505.48 199.078H1527.68V221.276L1516.37 232.589H1494.17V210.391L1505.48 199.078ZM1527.68 296.719V318.922H1505.48L1494.17 307.609V285.411H1516.37L1527.68 296.719ZM1430.04 269.589H1406.82L1396.23 259L1406.82 248.411H1430.04L1440.62 259L1430.04 269.589ZM1457.17 221.276V198.057L1467.76 187.464L1478.35 198.057V221.276L1467.76 231.865L1457.17 221.276ZM1505.48 248.411H1528.7L1539.29 259L1528.7 269.589H1505.48L1494.9 259L1505.48 248.411ZM1478.35 296.719V319.943L1467.76 330.531L1457.17 319.943V296.719L1467.76 286.13L1478.35 296.719ZM1420.82 212.052C1422.9 209.969 1426.29 209.969 1428.37 212.052C1430.46 214.141 1430.46 217.526 1428.37 219.609C1426.29 221.698 1422.9 221.698 1420.82 219.609C1418.73 217.526 1418.73 214.141 1420.82 212.052ZM1514.7 212.052C1516.79 214.141 1516.79 217.526 1514.7 219.609C1512.62 221.698 1509.23 221.698 1507.15 219.609C1505.06 217.526 1505.06 214.141 1507.15 212.052C1509.23 209.969 1512.62 209.969 1514.7 212.052ZM1514.7 305.943C1512.62 308.031 1509.23 308.031 1507.15 305.943C1505.06 303.859 1505.06 300.474 1507.15 298.391C1509.23 296.302 1512.61 296.302 1514.7 298.391C1516.79 300.474 1516.79 303.859 1514.7 305.943ZM1248.15 305.943C1246.06 303.859 1246.06 300.474 1248.15 298.391C1250.23 296.302 1253.62 296.302 1255.71 298.391C1257.79 300.474 1257.79 303.859 1255.71 305.943C1253.62 308.031 1250.23 308.031 1248.15 305.943ZM1208.76 318.198L1198.17 307.609V284.391L1208.76 273.797L1219.35 284.391V307.609L1208.76 318.198ZM1208.76 268.87L1194.68 282.943V309.057L1207.02 321.391V340.974L1206.91 341.021L1185.84 319.943V295.276L1172.48 281.922H1147.82L1126.74 260.849L1126.79 260.745H1146.38L1158.71 273.078H1184.82L1198.9 259L1184.82 244.927H1158.7L1146.37 257.255H1126.79L1126.74 257.156L1147.81 236.078H1172.48L1185.84 222.724C1185.84 214.505 1185.84 206.281 1185.84 198.057L1206.91 176.984L1207.02 177.026V196.615L1194.68 208.948V235.057L1208.76 249.135L1222.83 235.057V208.943L1210.5 196.609V177.026L1210.6 176.979L1231.68 198.052V222.724L1245.04 236.078H1269.7L1290.78 257.151L1290.73 257.255H1271.15L1258.81 244.922H1232.7L1218.62 259L1232.7 273.078H1258.82L1271.15 260.74H1290.73L1290.78 260.844L1269.71 281.917H1245.04L1231.68 295.276V319.943L1210.61 341.016L1210.51 340.969V321.385L1222.84 309.052V282.943L1208.76 268.87ZM1208.76 244.203L1198.17 233.609V210.391L1208.76 199.797L1219.35 210.391V233.609L1208.76 244.203ZM1235.9 172.667L1246.48 162.078H1269.7L1280.29 172.667L1269.7 183.255H1246.48L1235.9 172.667ZM1285.22 172.667L1271.15 158.589H1245.04L1232.7 170.922H1213.12L1213.07 170.818L1234.15 149.745H1258.81L1272.17 136.391V111.724L1293.24 90.651L1293.35 90.6927V110.281L1281.02 122.615C1281.02 131.318 1281.02 140.021 1281.02 148.724L1295.09 162.802L1309.17 148.724V122.615L1296.83 110.281V90.6927L1296.94 90.651L1318.02 111.724C1318.02 119.948 1318.02 128.167 1318.02 136.391L1331.37 149.745H1356.04L1377.11 170.818L1377.07 170.922H1357.48L1345.15 158.589H1319.04L1304.96 172.667L1319.04 186.745H1345.15L1357.48 174.411H1377.07L1377.11 174.516L1356.04 195.589H1331.37L1318.02 208.943V233.609L1296.94 254.682L1296.83 254.641V235.052L1309.17 222.719V196.609L1295.09 182.531L1281.02 196.609C1281.02 205.312 1281.02 214.016 1281.02 222.719L1293.35 235.052V254.641L1293.24 254.682L1272.17 233.609V208.943L1258.81 195.589H1234.15L1213.07 174.516L1213.12 174.411H1232.7L1245.04 186.745H1271.15L1285.22 172.667ZM1309.89 172.667L1320.48 162.078H1343.7L1354.29 172.667L1343.7 183.255H1320.48L1309.89 172.667ZM1257.37 318.922H1235.17V296.719L1246.48 285.411H1268.68V307.609L1257.37 318.922ZM1235.17 221.276V199.078H1257.37L1268.68 210.391V232.589H1246.48L1235.17 221.276ZM1332.82 199.078H1355.02V221.276L1343.7 232.589H1321.51V210.391L1332.82 199.078ZM1355.02 296.719V318.922H1332.82L1321.51 307.609V285.411H1343.7L1355.02 296.719ZM1257.37 269.589H1234.15L1223.56 259L1234.15 248.411H1257.37L1267.96 259L1257.37 269.589ZM1284.51 221.276V198.057L1295.09 187.464L1305.68 198.057V221.276L1295.09 231.865L1284.51 221.276ZM1332.82 248.411H1356.04L1366.63 259L1356.04 269.589H1332.82L1322.22 259L1332.82 248.411ZM1305.68 296.719V319.943L1295.09 330.531L1284.51 319.943V296.719L1295.09 286.13L1305.68 296.719ZM1248.15 212.052C1250.23 209.969 1253.62 209.969 1255.71 212.052C1257.79 214.141 1257.79 217.526 1255.71 219.609C1253.62 221.698 1250.23 221.698 1248.15 219.609C1246.06 217.526 1246.06 214.141 1248.15 212.052ZM1342.04 212.052C1344.12 214.141 1344.12 217.526 1342.04 219.609C1339.95 221.698 1336.57 221.698 1334.48 219.609C1332.4 217.526 1332.4 214.141 1334.48 212.052C1336.57 209.969 1339.95 209.969 1342.04 212.052ZM1342.04 305.943C1339.95 308.031 1336.57 308.031 1334.48 305.943C1332.4 303.859 1332.4 300.474 1334.48 298.391C1336.57 296.302 1339.95 296.302 1342.04 298.391C1344.12 300.474 1344.12 303.859 1342.04 305.943ZM1075.48 305.943C1073.4 303.859 1073.4 300.474 1075.48 298.391C1077.57 296.302 1080.95 296.302 1083.04 298.391C1085.12 300.474 1085.12 303.859 1083.04 305.943C1080.95 308.031 1077.57 308.031 1075.48 305.943ZM1063.22 172.667L1073.82 162.078H1097.04L1107.62 172.667L1097.04 183.255H1073.82L1063.22 172.667ZM1112.56 172.667L1098.48 186.745H1072.37L1060.04 174.411H1040.45L1040.41 174.516L1061.48 195.589H1086.15L1099.51 208.943V233.609L1120.58 254.682L1120.68 254.641V235.052L1108.35 222.719C1108.35 214.016 1108.35 205.312 1108.35 196.609L1122.43 182.531L1136.5 196.609V222.719L1124.17 235.052V254.641L1124.27 254.682L1145.35 233.609V208.943L1158.7 195.589H1183.37L1204.44 174.516L1204.4 174.411H1184.81L1172.48 186.745H1146.37L1132.29 172.667L1146.37 158.589H1172.48L1184.81 170.922H1204.4L1204.44 170.818L1183.37 149.745H1158.7L1145.35 136.391C1145.35 128.167 1145.35 119.948 1145.35 111.724L1124.28 90.651L1124.17 90.6927V110.281L1136.51 122.615V148.724L1122.43 162.802L1108.35 148.724C1108.35 140.021 1108.35 131.318 1108.35 122.615L1120.68 110.281V90.6927L1120.58 90.651L1099.51 111.724V136.391L1086.15 149.745H1061.48L1040.41 170.818L1040.45 170.922H1060.04L1072.38 158.589H1098.48L1112.56 172.667ZM1137.22 172.667L1147.82 162.078H1171.04L1181.63 172.667L1171.04 183.255H1147.82L1137.22 172.667ZM1084.7 318.922H1062.51V296.719L1073.82 285.411H1096.02V307.609L1084.7 318.922ZM1062.51 221.276V199.078H1084.7L1096.02 210.391V232.589H1073.82L1062.51 221.276ZM1160.15 199.078H1182.35V221.276L1171.04 232.589H1148.84V210.391L1160.15 199.078ZM1182.35 296.719V318.922H1160.15L1148.84 307.609V285.411H1171.04L1182.35 296.719ZM1084.7 269.589H1061.48L1050.89 259L1061.48 248.411H1084.7L1095.3 259L1084.7 269.589ZM1111.84 221.276V198.057L1122.43 187.464L1133.02 198.057V221.276L1122.43 231.865L1111.84 221.276ZM1160.15 248.411H1183.37L1193.96 259L1183.37 269.589H1160.15L1149.56 259L1160.15 248.411ZM1133.02 296.719V319.943L1122.43 330.531L1111.84 319.943V296.719L1122.43 286.13L1133.02 296.719ZM1075.48 212.052C1077.57 209.969 1080.95 209.969 1083.04 212.052C1085.12 214.141 1085.12 217.526 1083.04 219.609C1080.95 221.698 1077.57 221.698 1075.48 219.609C1073.4 217.526 1073.4 214.141 1075.48 212.052ZM1169.37 212.052C1171.46 214.141 1171.46 217.526 1169.37 219.609C1167.29 221.698 1163.9 221.698 1161.82 219.609C1159.73 217.526 1159.73 214.141 1161.82 212.052C1163.9 209.969 1167.29 209.969 1169.37 212.052ZM1169.37 305.943C1167.29 308.031 1163.9 308.031 1161.82 305.943C1159.73 303.859 1159.73 300.474 1161.82 298.391C1163.9 296.302 1167.29 296.302 1169.37 298.391C1171.46 300.474 1171.46 303.859 1169.37 305.943ZM1420.82 133.276C1418.73 131.188 1418.73 127.807 1420.82 125.719C1422.9 123.635 1426.29 123.635 1428.37 125.719C1430.46 127.807 1430.46 131.188 1428.37 133.276C1426.29 135.365 1422.9 135.365 1420.82 133.276ZM1381.43 145.536L1370.84 134.943V111.719L1381.43 101.13L1392.02 111.719V134.943L1381.43 145.536ZM1381.43 96.1979L1367.35 110.276V136.385L1379.68 148.724V168.307L1379.58 168.354L1358.51 147.281V122.609L1345.15 109.255H1320.48L1299.41 88.1823L1299.45 88.0781H1319.04L1331.38 100.411H1357.48L1371.56 86.3333L1357.48 72.2552H1331.38L1319.04 84.5885H1299.45L1299.41 84.4844L1320.48 63.4115H1345.15L1358.51 50.0573C1358.51 41.8333 1358.51 33.6146 1358.51 25.3906L1379.58 4.31771L1379.68 4.35938V23.9479L1367.35 36.2812V62.3906L1381.43 76.4688L1395.51 62.3906V36.2812L1383.17 23.9479V4.35938L1383.28 4.31771L1404.35 25.3906V50.0573L1417.7 63.4115H1442.37L1463.44 84.4844L1463.4 84.5885H1443.81L1431.48 72.2552H1405.37L1391.29 86.3333L1405.37 100.411H1431.48L1443.81 88.0781H1463.4L1463.44 88.1823L1442.37 109.255H1417.7L1404.35 122.609V147.281L1383.28 168.354L1383.17 168.307V148.724L1395.51 136.385V110.276L1381.43 96.1979ZM1381.43 71.5312L1370.84 60.9427V37.7188L1381.43 27.1302L1392.02 37.7188V60.9427L1381.43 71.5312ZM1430.04 146.255H1407.84V124.052L1419.15 112.745H1441.35V134.943L1430.04 146.255ZM1407.84 48.6094V26.4115H1430.04L1441.35 37.7188V59.9219H1419.15L1407.84 48.6094ZM1505.48 26.4115H1527.68V48.6094L1516.37 59.9219H1494.17V37.7188L1505.48 26.4115ZM1527.68 124.057V146.255H1505.48L1494.17 134.943V112.745H1516.37L1527.68 124.057ZM1430.04 96.9219H1406.82L1396.23 86.3333L1406.82 75.7448H1430.04L1440.62 86.3333L1430.04 96.9219ZM1457.17 48.6094V25.3906L1467.76 14.7969L1478.35 25.3906V48.6094L1467.76 59.1979L1457.17 48.6094ZM1505.48 75.7448H1528.7L1539.29 86.3333L1528.7 96.9219H1505.48L1494.9 86.3333L1505.48 75.7448ZM1478.35 124.057V147.281L1467.76 157.87L1457.17 147.281V124.057L1467.76 113.469L1478.35 124.057ZM1420.82 39.3854C1422.9 37.3021 1426.29 37.3021 1428.37 39.3854C1430.46 41.474 1430.46 44.8594 1428.37 46.9427C1426.29 49.0313 1422.9 49.0313 1420.82 46.9427C1418.73 44.8594 1418.73 41.474 1420.82 39.3854ZM1514.7 39.3854C1516.79 41.474 1516.79 44.8594 1514.7 46.9427C1512.62 49.0313 1509.23 49.0313 1507.15 46.9427C1505.06 44.8594 1505.06 41.474 1507.15 39.3854C1509.23 37.3021 1512.62 37.3021 1514.7 39.3854ZM1514.7 133.276C1512.62 135.365 1509.23 135.365 1507.15 133.276C1505.06 131.188 1505.06 127.807 1507.15 125.719C1509.23 123.635 1512.61 123.635 1514.7 125.719C1516.79 127.807 1516.79 131.188 1514.7 133.276ZM1248.15 133.276C1246.06 131.188 1246.06 127.807 1248.15 125.719C1250.23 123.635 1253.62 123.635 1255.71 125.719C1257.79 127.807 1257.79 131.188 1255.71 133.276C1253.62 135.365 1250.23 135.365 1248.15 133.276ZM1208.76 145.536L1198.17 134.943V111.719L1208.76 101.13L1219.35 111.719V134.943L1208.76 145.536ZM1208.76 96.1979L1194.68 110.276V136.385L1207.02 148.724V168.307L1206.91 168.354L1185.84 147.281V122.609L1172.48 109.255H1147.82L1126.74 88.1823L1126.79 88.0781H1146.38L1158.71 100.411H1184.82L1198.9 86.3333L1184.82 72.2552H1158.7L1146.37 84.5885H1126.79L1126.74 84.4844L1147.81 63.4115H1172.48L1185.84 50.0573C1185.84 41.8333 1185.84 33.6146 1185.84 25.3906L1206.91 4.31771L1207.02 4.35938V23.9479L1194.68 36.2812V62.3906L1208.76 76.4688L1222.83 62.3906V36.2812L1210.5 23.9479V4.35938L1210.6 4.31771L1231.68 25.3906V50.0573L1245.04 63.4115H1269.7L1290.78 84.4844L1290.73 84.5885H1271.15L1258.81 72.2552H1232.7L1218.62 86.3333L1232.7 100.411H1258.82L1271.15 88.0781H1290.73L1290.78 88.1823L1269.71 109.255H1245.04L1231.68 122.609V147.281L1210.61 168.354L1210.51 168.307V148.724L1222.84 136.385V110.276L1208.76 96.1979ZM1208.76 71.5312L1198.17 60.9427V37.7188L1208.76 27.1302L1219.35 37.7188V60.9427L1208.76 71.5312ZM1257.37 146.255H1235.17V124.052L1246.48 112.745H1268.68V134.943L1257.37 146.255ZM1235.17 48.6094V26.4115H1257.37L1268.68 37.7188V59.9219H1246.48L1235.17 48.6094ZM1332.82 26.4115H1355.02V48.6094L1343.7 59.9219H1321.51V37.7188L1332.82 26.4115ZM1355.02 124.057V146.255H1332.82L1321.51 134.943V112.745H1343.7L1355.02 124.057ZM1257.37 96.9219H1234.15L1223.56 86.3333L1234.15 75.7448H1257.37L1267.96 86.3333L1257.37 96.9219ZM1284.51 48.6094V25.3906L1295.09 14.7969L1305.68 25.3906V48.6094L1295.09 59.1979L1284.51 48.6094ZM1332.82 75.7448H1356.04L1366.63 86.3333L1356.04 96.9219H1332.82L1322.22 86.3333L1332.82 75.7448ZM1305.68 124.057V147.281L1295.09 157.87L1284.51 147.281V124.057L1295.09 113.469L1305.68 124.057ZM1248.15 39.3854C1250.23 37.3021 1253.62 37.3021 1255.71 39.3854C1257.79 41.474 1257.79 44.8594 1255.71 46.9427C1253.62 49.0313 1250.23 49.0313 1248.15 46.9427C1246.06 44.8594 1246.06 41.474 1248.15 39.3854ZM1342.04 39.3854C1344.12 41.474 1344.12 44.8594 1342.04 46.9427C1339.95 49.0313 1336.57 49.0313 1334.48 46.9427C1332.4 44.8594 1332.4 41.474 1334.48 39.3854C1336.57 37.3021 1339.95 37.3021 1342.04 39.3854ZM1342.04 133.276C1339.95 135.365 1336.57 135.365 1334.48 133.276C1332.4 131.188 1332.4 127.807 1334.48 125.719C1336.57 123.635 1339.95 123.635 1342.04 125.719C1344.12 127.807 1344.12 131.188 1342.04 133.276ZM1084.7 146.255L1096.02 134.943V112.745H1073.82L1062.51 124.052V146.255H1084.7ZM1062.51 48.6094V26.4115H1084.7L1096.02 37.7188V59.9219H1073.82L1062.51 48.6094ZM1160.15 26.4115H1182.35V48.6094L1171.04 59.9219H1148.84V37.7188L1160.15 26.4115ZM1182.35 124.057V146.255H1160.15L1148.84 134.943V112.745H1171.04L1182.35 124.057ZM1084.7 96.9219H1061.48L1050.89 86.3333L1061.48 75.7448H1084.7L1095.3 86.3333L1084.7 96.9219ZM1111.84 48.6094V25.3906L1122.43 14.7969L1133.02 25.3906V48.6094L1122.43 59.1979L1111.84 48.6094ZM1160.15 75.7448H1183.37L1193.96 86.3333L1183.37 96.9219H1160.15L1149.56 86.3333L1160.15 75.7448ZM1133.02 124.057V147.281L1122.43 157.87L1111.84 147.281V124.057L1122.43 113.469L1133.02 124.057ZM1075.48 39.3854C1077.57 37.3021 1080.95 37.3021 1083.04 39.3854C1085.12 41.474 1085.12 44.8594 1083.04 46.9427C1080.95 49.0313 1077.57 49.0313 1075.48 46.9427C1073.4 44.8594 1073.4 41.474 1075.48 39.3854ZM1169.37 39.3854C1171.46 41.474 1171.46 44.8594 1169.37 46.9427C1167.29 49.0313 1163.9 49.0313 1161.82 46.9427C1159.73 44.8594 1159.73 41.474 1161.82 39.3854C1163.9 37.3021 1167.29 37.3021 1169.37 39.3854ZM1169.37 133.276C1167.29 135.365 1163.9 135.365 1161.82 133.276C1159.73 131.188 1159.73 127.807 1161.82 125.719C1163.9 123.635 1167.29 123.635 1169.37 125.719C1171.46 127.807 1171.46 131.188 1169.37 133.276Z" fill="#F4E7E7"/>
</g>
<mask id="mask2_744_92" style="mask-type:luminance" maskUnits="userSpaceOnUse" x="1554" y="0" width="366" height="518">
<path d="M1554.14 0H1920V518H1554.14V0Z" fill="white"/>
</mask>
<g mask="url(#mask2_744_92)">
<path fill-rule="evenodd" clip-rule="evenodd" d="M1593.53 133.276C1591.44 131.188 1591.44 127.807 1593.53 125.719C1595.61 123.635 1599 123.635 1601.08 125.719C1603.17 127.807 1603.17 131.188 1601.08 133.276C1599 135.365 1595.61 135.365 1593.53 133.276ZM1938.86 478.609C1936.78 476.526 1936.78 473.141 1938.86 471.052C1940.95 468.969 1944.33 468.969 1946.42 471.052C1948.51 473.141 1948.51 476.521 1946.42 478.609C1944.33 480.698 1940.95 480.698 1938.86 478.609ZM1971.01 518H1975.94L1961.86 503.922H1935.75L1923.42 516.255H1903.83L1903.79 516.151L1924.86 495.078H1949.53L1962.89 481.724V457.057L1983.96 435.984L1984.06 436.026V455.615L1971.73 467.948C1971.73 476.651 1971.73 485.354 1971.73 494.057L1985.81 508.135L1999.89 494.057V467.948L1987.55 455.615V436.026L1987.65 435.984L2008.73 457.057C2008.73 465.281 2008.73 473.5 2008.73 481.724L2022.08 495.078H2046.75L2067.82 516.151L2067.78 516.255H2048.2L2035.86 503.922H2009.76L1995.68 518H2000.61L2011.2 507.411H2034.42L2045.01 518H2072.14V490.865L2061.55 480.276V457.057L2072.14 446.469V441.531L2058.06 455.609V481.724L2070.4 494.057V513.641L2070.29 513.688L2049.22 492.615V467.948L2035.86 454.594H2011.2L1990.12 433.516L1990.17 433.411H2009.76L2022.09 445.745H2048.2L2062.28 431.667L2048.2 417.594H2022.09L2009.76 429.922H1990.17L1990.12 429.823L2011.2 408.745H2035.86L2049.22 395.391C2049.22 387.167 2049.22 378.948 2049.22 370.724L2070.29 349.651L2070.4 349.693V369.281L2058.06 381.615V407.729L2072.14 421.802V416.87L2061.55 406.281V383.057L2072.14 372.469V318.203L2061.55 307.615V284.391L2072.14 273.802V268.87L2058.06 282.948V309.057L2070.4 321.391V340.979L2070.29 341.021L2049.22 319.948V295.281L2035.86 281.927H2011.2L1990.12 260.854L1990.17 260.75H2009.76L2022.09 273.083H2048.2L2062.28 259.005L2048.2 244.927H2022.09L2009.76 257.26H1990.17L1990.12 257.156L2011.2 236.083H2035.86L2049.22 222.729C2049.22 214.505 2049.22 206.281 2049.22 198.062L2070.29 176.99L2070.4 177.031V196.62L2058.06 208.953V235.062L2072.14 249.141V244.208L2061.55 233.62V210.391L2072.14 199.797V145.536L2061.55 134.943V111.719L2072.14 101.13V96.1979L2058.06 110.276V136.385L2070.4 148.724V168.307L2070.29 168.354L2049.22 147.281V122.609L2035.86 109.255H2011.2L1990.12 88.1823L1990.17 88.0781H2009.76L2022.09 100.411H2048.2L2062.28 86.3333L2048.2 72.2552H2022.09L2009.76 84.5885H1990.17L1990.12 84.4844L2011.2 63.4115H2035.86L2049.22 50.0573C2049.22 41.8333 2049.22 33.6146 2049.22 25.3906L2070.29 4.31771L2070.4 4.35938V23.9479L2058.06 36.2812V62.3906L2072.14 76.4688V71.5365L2061.55 60.9479V37.724L2072.14 27.1354V0.00520833H2045.01L2034.42 10.5938H2011.2L2000.61 0.00520833H1995.68L2009.76 14.0781H2035.86L2048.2 1.74479H2067.79L2067.83 1.84896L2046.76 22.9271H2022.09L2008.73 36.2812V60.9479L1987.66 82.0208L1987.55 81.9792V62.3906L1999.89 50.0573V23.9427L1985.81 9.86458L1971.73 23.9427C1971.73 32.6458 1971.73 41.349 1971.73 50.0573L1984.07 62.3906V81.974L1983.96 82.0208L1962.89 60.9427V36.276L1949.53 22.9219H1924.86L1903.79 1.84896L1903.83 1.74479H1923.42L1935.76 14.0781H1961.87L1975.94 0H1971.01L1960.42 10.5885H1937.2L1926.61 0H1872.34L1861.76 10.5885H1838.53L1827.94 0H1823.01L1837.09 14.0781H1863.2L1875.53 1.74479H1895.12L1895.16 1.84896L1874.09 22.9219H1849.42L1836.07 36.276V60.9427L1814.99 82.0208L1814.89 81.974V62.3906L1827.22 50.0573V23.9427L1813.15 9.86458L1799.07 23.9427C1799.07 32.6458 1799.07 41.349 1799.07 50.0573L1811.4 62.3906V81.974L1811.3 82.0208L1790.22 60.9427V36.276L1776.87 22.9219H1752.2L1731.13 1.84896L1731.17 1.74479H1750.76L1763.09 14.0781H1789.2L1803.28 0H1798.35L1787.76 10.5885H1764.54L1753.95 0C1735.86 0 1717.77 0 1699.68 0L1689.09 10.5885H1665.87L1655.28 0H1650.35L1664.43 14.0781H1690.54L1702.87 1.74479H1722.46L1722.5 1.84896L1701.43 22.9219H1676.76L1663.41 36.276V60.9427L1642.33 82.0208L1642.23 81.974V62.3906L1654.56 50.0573V23.9427L1640.48 9.86458L1626.41 23.9427C1626.41 32.6458 1626.41 41.349 1626.41 50.0573L1638.74 62.3906V81.974L1638.64 82.0208L1617.56 60.9427V36.276L1604.2 22.9219H1579.54L1558.46 1.84896L1558.5 1.74479H1578.08L1590.42 14.0781H1616.53L1630.61 0H1625.68L1615.08 10.5885H1591.86L1581.28 0H1554.14V27.1354L1564.73 37.724V60.9427L1554.14 71.5312V76.4688L1568.22 62.3906V36.276L1555.89 23.9479V4.35938L1555.99 4.3125L1577.06 25.3906V50.0573L1590.42 63.4115H1615.08L1636.16 84.4844L1636.11 84.5885H1616.53L1604.19 72.2552H1578.08L1564.01 86.3333L1578.08 100.406H1604.19L1616.53 88.0781H1636.11L1636.16 88.1823L1615.08 109.255H1590.42L1577.06 122.609V147.276L1555.99 168.349L1555.89 168.307V148.719L1568.22 136.385V110.276L1554.14 96.1979V101.13L1564.73 111.719V134.943L1554.14 145.531V199.797L1564.73 210.385V233.609L1554.14 244.198V249.13L1568.22 235.052V208.943L1555.89 196.609V177.026L1555.99 176.979L1577.06 198.052V222.724L1590.42 236.078H1615.08L1636.16 257.151L1636.11 257.255H1616.53L1604.19 244.922H1578.08L1564.01 259L1578.08 273.078H1604.19L1616.53 260.74H1636.11L1636.16 260.844L1615.08 281.917H1590.42L1577.06 295.276V319.943L1555.99 341.016L1555.89 340.969V321.385L1568.22 309.052V282.943L1554.14 268.865V273.797L1564.73 284.385V307.609L1554.14 318.198V372.464L1564.73 383.052V406.276L1554.14 416.865V421.797L1568.22 407.719V381.609L1555.89 369.276V349.688L1555.99 349.646L1577.06 370.719V395.385L1590.42 408.74H1615.08L1636.16 429.812L1636.11 429.917H1616.53L1604.19 417.583H1578.08L1564.01 431.661L1578.08 445.74H1604.19L1616.53 433.406H1636.11L1636.16 433.51L1615.08 454.583H1590.42L1577.06 467.938V492.604L1555.99 513.677L1555.89 513.635V494.047L1568.22 481.714V455.604L1554.14 441.526V446.458L1564.73 457.047V480.271L1554.14 490.859V517.995H1581.28L1591.86 507.406H1615.09L1625.68 517.995H1630.6L1616.53 503.917H1590.42L1578.08 516.25H1558.5L1558.46 516.146L1579.53 495.073H1604.2L1617.55 481.714V457.047L1638.62 435.974L1638.73 436.021V455.604L1626.4 467.938C1626.4 476.641 1626.4 485.349 1626.4 494.052L1640.47 508.13L1654.55 494.052V467.938L1642.22 455.604V436.021L1642.32 435.974L1663.4 457.047C1663.4 465.271 1663.4 473.495 1663.4 481.714L1676.75 495.073H1701.42L1722.49 516.146L1722.45 516.25H1702.86L1690.53 503.917H1664.42L1650.34 517.995H1655.27L1665.86 507.406H1689.08L1699.67 517.995C1704.39 517.995 1753.94 517.995 1753.94 517.995L1764.53 507.406H1787.75L1798.34 517.995H1803.27L1789.19 503.917H1763.08L1750.75 516.25H1731.16L1731.12 516.146L1752.19 495.073H1776.86L1790.21 481.714V457.047L1811.29 435.974L1811.39 436.021V455.604L1799.06 467.938C1799.06 476.641 1799.06 485.349 1799.06 494.052L1813.14 508.13L1827.21 494.052V467.938L1814.88 455.604V436.021L1814.98 435.974L1836.06 457.047C1836.06 465.271 1836.06 473.495 1836.06 481.714L1849.41 495.073H1874.08L1895.16 516.146L1895.11 516.25H1875.52L1863.19 503.917H1837.08L1823 517.995H1827.93L1838.53 507.406H1861.74L1872.33 517.995H1926.6L1937.19 507.406H1960.41L1971.01 518ZM1899.47 490.865L1888.89 480.276V457.057L1899.47 446.469L1910.06 457.052V480.276L1899.47 490.865ZM1899.47 441.531L1913.55 455.609V481.719L1901.22 494.057V513.641L1901.32 513.682L1922.4 492.609V467.948L1935.75 454.589H1960.42L1981.49 433.516L1981.45 433.411H1961.86L1949.53 445.745H1923.42L1909.34 431.667L1923.42 417.589H1949.53L1961.86 429.922H1981.45L1981.49 429.818L1960.42 408.745H1935.75L1922.4 395.391V370.724L1901.32 349.651L1901.22 349.693V369.281L1913.55 381.615V407.724L1899.47 421.802L1885.4 407.724V381.615L1897.73 369.281V349.693L1897.62 349.651L1876.55 370.724C1876.55 378.948 1876.55 387.167 1876.55 395.391L1863.2 408.745H1838.53L1817.46 429.818L1817.5 429.922H1837.09L1849.42 417.589H1875.53L1889.61 431.667L1875.53 445.745H1849.42L1837.09 433.411H1817.5L1817.46 433.516L1838.53 454.589H1863.2L1876.55 467.948V492.609L1897.62 513.682L1897.73 513.641V494.057L1885.4 481.719V455.609L1899.47 441.531ZM1899.47 416.865L1888.89 406.276V383.057L1899.47 372.464L1910.06 383.057V406.276L1899.47 416.865ZM1926.6 345.333L1937.2 334.745H1960.42L1971.01 345.333L1960.42 355.922H1937.2L1926.6 345.333ZM1975.94 345.333L1961.86 331.255H1935.75L1923.42 343.589H1903.83L1903.79 343.484L1924.86 322.411H1949.53L1962.89 309.057V284.391L1983.96 263.312L1984.06 263.359V282.948L1971.73 295.281C1971.73 303.979 1971.73 312.688 1971.73 321.391L1985.81 335.469L1999.89 321.391V295.281L1987.55 282.948V263.359L1987.66 263.312L2008.73 284.391C2008.73 292.615 2008.73 300.833 2008.73 309.057L2022.08 322.411H2046.75L2067.82 343.484L2067.78 343.589H2048.2L2035.86 331.255H2009.76L1995.68 345.333L2009.76 359.411H2035.86L2048.2 347.078H2067.79L2067.83 347.182L2046.76 368.255H2022.09L2008.73 381.609V406.276L1987.66 427.349L1987.55 427.307V407.719L1999.89 395.385V369.276L1985.81 355.198L1971.73 369.276C1971.73 377.979 1971.73 386.682 1971.73 395.385L1984.07 407.719V427.307L1983.96 427.349L1962.89 406.276V381.609L1949.53 368.255H1924.86L1903.79 347.182L1903.83 347.078H1923.42L1935.76 359.411H1961.87L1975.94 345.333ZM2000.61 345.333L2011.2 334.745H2034.42L2045.01 345.333L2034.42 355.922H2011.2L2000.61 345.333ZM1948.08 491.589L1959.4 480.276V458.078H1937.2L1925.89 469.391V491.589H1948.08ZM1925.89 393.943V371.745H1948.08L1959.4 383.057V405.255H1937.2L1925.89 393.943ZM2023.53 371.745H2045.73V393.943L2034.42 405.255H2012.22V383.057L2023.53 371.745ZM2045.73 469.391V491.589H2023.53L2012.22 480.276V458.078H2034.42L2045.73 469.391ZM1948.08 442.255H1924.86L1914.28 431.667L1924.86 421.078H1948.08L1958.67 431.667L1948.08 442.255ZM1975.22 393.943V370.719L1985.81 360.13L1996.4 370.719V393.943L1985.81 404.531L1975.22 393.943ZM2023.53 421.078H2046.75L2057.34 431.667L2046.75 442.255H2023.53L2012.94 431.667L2023.53 421.078ZM1996.4 469.391V492.609L1985.81 503.203L1975.22 492.609V469.391L1985.81 458.797L1996.4 469.391ZM1938.86 384.724C1940.95 382.635 1944.33 382.635 1946.42 384.724C1948.51 386.807 1948.51 390.193 1946.42 392.276C1944.33 394.365 1940.95 394.365 1938.86 392.276C1936.78 390.193 1936.78 386.807 1938.86 384.724ZM2032.75 384.724C2034.84 386.807 2034.84 390.193 2032.75 392.276C2030.67 394.365 2027.28 394.365 2025.2 392.276C2023.11 390.193 2023.11 386.807 2025.2 384.724C2027.28 382.635 2030.67 382.635 2032.75 384.724ZM2032.75 478.609C2030.67 480.698 2027.28 480.698 2025.2 478.609C2023.11 476.526 2023.11 473.141 2025.2 471.052C2027.28 468.969 2030.66 468.969 2032.75 471.052C2034.84 473.141 2034.84 476.526 2032.75 478.609ZM1766.2 478.609C1764.11 476.526 1764.11 473.141 1766.2 471.052C1768.28 468.969 1771.67 468.969 1773.76 471.052C1775.84 473.141 1775.84 476.521 1773.76 478.609C1771.67 480.698 1768.28 480.698 1766.2 478.609ZM1726.81 490.865L1716.22 480.276V457.057L1726.81 446.469L1737.4 457.052V480.276L1726.81 490.865ZM1726.81 441.531L1712.73 455.609V481.719L1725.06 494.057V513.641L1724.96 513.682L1703.89 492.609V467.948L1690.53 454.589H1665.86L1644.79 433.516L1644.83 433.411H1664.42L1676.76 445.745H1702.86L1716.94 431.667L1702.86 417.589H1676.75L1664.42 429.922H1644.83L1644.79 429.818L1665.86 408.745H1690.53L1703.89 395.391C1703.89 387.167 1703.89 378.948 1703.89 370.724L1724.96 349.651L1725.06 349.693V369.281L1712.73 381.615V407.724L1726.81 421.802L1740.89 407.724V381.615L1728.55 369.281V349.693L1728.65 349.651L1749.72 370.724V395.391L1763.08 408.745H1787.75L1808.82 429.818L1808.78 429.922H1789.19L1776.86 417.589H1750.75L1736.68 431.667L1750.75 445.745H1776.86L1789.2 433.411H1808.78L1808.83 433.516L1787.76 454.589H1763.09L1749.73 467.948V492.609L1728.66 513.682L1728.55 513.641V494.057L1740.89 481.719V455.609L1726.81 441.531ZM1726.81 416.865L1716.22 406.276V383.057L1726.81 372.464L1737.4 383.057V406.276L1726.81 416.865ZM1753.94 345.333L1764.53 334.745H1787.75L1798.34 345.333L1787.75 355.922H1764.53L1753.94 345.333ZM1803.27 345.333L1789.2 331.255H1763.09L1750.75 343.589H1731.17L1731.12 343.484L1752.2 322.411H1776.86L1790.22 309.057V284.391L1811.29 263.312L1811.4 263.359V282.948L1799.06 295.281C1799.06 303.979 1799.06 312.688 1799.06 321.391L1813.14 335.469L1827.22 321.391V295.281L1814.89 282.948V263.359L1814.99 263.312L1836.06 284.391C1836.06 292.615 1836.06 300.833 1836.06 309.057L1849.42 322.411H1874.08L1895.16 343.484L1895.11 343.589H1875.53L1863.19 331.255H1837.08L1823.01 345.333L1837.08 359.411H1863.19L1875.53 347.078H1895.11L1895.16 347.182L1874.08 368.255H1849.42L1836.06 381.609V406.276L1814.99 427.349L1814.89 427.307V407.719L1827.22 395.385V369.276L1813.14 355.198L1799.06 369.276C1799.06 377.979 1799.06 386.682 1799.06 395.385L1811.4 407.719V427.307L1811.29 427.349L1790.22 406.276V381.609L1776.86 368.255H1752.2L1731.12 347.182L1731.17 347.078H1750.75L1763.09 359.411H1789.2L1803.27 345.333ZM1827.94 345.333L1838.53 334.745H1861.75L1872.34 345.333L1861.75 355.922H1838.53L1827.94 345.333ZM1775.42 491.589H1753.22V469.391L1764.53 458.078H1786.73V480.276L1775.42 491.589ZM1753.22 393.943V371.745H1775.42L1786.73 383.057V405.255H1764.53L1753.22 393.943ZM1850.86 371.745H1873.06V393.943L1861.75 405.255H1839.55V383.057L1850.86 371.745ZM1873.06 469.391V491.589H1850.86L1839.55 480.276V458.078H1861.75L1873.06 469.391ZM1775.42 442.255H1752.2L1741.6 431.667L1752.2 421.078H1775.42L1786.01 431.667L1775.42 442.255ZM1802.55 393.943V370.719L1813.14 360.13L1823.73 370.719V393.943L1813.14 404.531L1802.55 393.943ZM1850.86 421.078H1874.08L1884.68 431.667L1874.08 442.255H1850.86L1840.28 431.667L1850.86 421.078ZM1823.73 469.391V492.609L1813.14 503.203L1802.55 492.609V469.391L1813.14 458.797L1823.73 469.391ZM1766.2 384.724C1768.28 382.635 1771.67 382.635 1773.76 384.724C1775.84 386.807 1775.84 390.193 1773.76 392.276C1771.67 394.365 1768.28 394.365 1766.2 392.276C1764.11 390.193 1764.11 386.807 1766.2 384.724ZM1860.08 384.724C1862.17 386.807 1862.17 390.193 1860.08 392.276C1858 394.365 1854.62 394.365 1852.53 392.276C1850.44 390.193 1850.44 386.807 1852.53 384.724C1854.61 382.635 1858 382.635 1860.08 384.724ZM1860.08 478.609C1858 480.698 1854.62 480.698 1852.53 478.609C1850.44 476.526 1850.44 473.141 1852.53 471.052C1854.61 468.969 1858 468.969 1860.08 471.052C1862.17 473.141 1862.17 476.526 1860.08 478.609ZM1593.53 478.609C1591.44 476.526 1591.44 473.141 1593.53 471.052C1595.61 468.969 1599 468.969 1601.08 471.052C1603.17 473.141 1603.17 476.521 1601.08 478.609C1599 480.698 1595.61 480.698 1593.53 478.609ZM1581.28 345.333L1591.86 334.745H1615.08L1625.67 345.333L1615.08 355.922H1591.86L1581.28 345.333ZM1630.6 345.333L1616.53 331.255H1590.42L1578.08 343.589H1558.5L1558.45 343.484L1579.53 322.411H1604.19L1617.55 309.057V284.391L1638.62 263.312L1638.73 263.359V282.948L1626.4 295.281C1626.4 303.979 1626.4 312.688 1626.4 321.391L1640.47 335.469L1654.55 321.391V295.281L1642.22 282.948V263.359L1642.32 263.312L1663.4 284.391C1663.4 292.615 1663.4 300.833 1663.4 309.057L1676.75 322.411H1701.42L1722.49 343.484L1722.45 343.589H1702.86L1690.53 331.255H1664.42L1650.34 345.333L1664.42 359.411H1690.53L1702.86 347.078H1722.45L1722.49 347.182L1701.42 368.255H1676.75L1663.4 381.609V406.276L1642.32 427.349L1642.22 427.307V407.719L1654.55 395.385V369.276L1640.47 355.198L1626.4 369.276C1626.4 377.979 1626.4 386.682 1626.4 395.385L1638.73 407.719V427.307L1638.62 427.349L1617.55 406.276V381.609L1604.19 368.255H1579.53L1558.45 347.182L1558.5 347.078H1578.08L1590.42 359.411H1616.53L1630.6 345.333ZM1655.28 345.333L1665.86 334.745H1689.09L1699.68 345.333L1689.09 355.922H1665.86L1655.28 345.333ZM1602.75 491.589H1580.55V469.391L1591.86 458.078H1614.06V480.276L1602.75 491.589ZM1580.55 393.943V371.745H1602.75L1614.06 383.057V405.255H1591.86L1580.55 393.943ZM1678.19 371.745H1700.4V393.943L1689.08 405.255H1666.89V383.057L1678.19 371.745ZM1700.4 469.391V491.589H1678.19L1666.89 480.276V458.078H1689.08L1700.4 469.391ZM1602.75 442.255H1579.53L1568.94 431.667L1579.53 421.078H1602.75L1613.34 431.667L1602.75 442.255ZM1629.89 393.943V370.719L1640.47 360.13L1651.06 370.719V393.943L1640.47 404.531L1629.89 393.943ZM1678.19 421.078H1701.42L1712.01 431.667L1701.42 442.255H1678.19L1667.61 431.667L1678.19 421.078ZM1651.06 469.391V492.609L1640.47 503.203L1629.89 492.609V469.391L1640.47 458.797L1651.06 469.391ZM1593.53 384.724C1595.61 382.635 1599 382.635 1601.08 384.724C1603.17 386.807 1603.17 390.193 1601.08 392.276C1599 394.365 1595.61 394.365 1593.53 392.276C1591.44 390.193 1591.44 386.807 1593.53 384.724ZM1687.42 384.724C1689.51 386.807 1689.51 390.193 1687.42 392.276C1685.33 394.365 1681.95 394.365 1679.86 392.276C1677.78 390.193 1677.78 386.807 1679.86 384.724C1681.95 382.635 1685.33 382.635 1687.42 384.724ZM1687.42 478.609C1685.33 480.698 1681.95 480.698 1679.86 478.609C1677.78 476.526 1677.78 473.141 1679.86 471.052C1681.95 468.969 1685.33 468.969 1687.42 471.052C1689.51 473.141 1689.51 476.526 1687.42 478.609ZM1938.86 305.943C1936.78 303.859 1936.78 300.474 1938.86 298.391C1940.95 296.302 1944.33 296.302 1946.42 298.391C1948.51 300.474 1948.51 303.859 1946.42 305.943C1944.33 308.031 1940.95 308.031 1938.86 305.943ZM1899.47 318.198L1888.89 307.609V284.391L1899.47 273.797L1910.06 284.391V307.609L1899.47 318.198ZM1899.47 268.87L1885.4 282.943V309.057L1897.73 321.391V340.974L1897.62 341.021L1876.55 319.943V295.276L1863.2 281.922H1838.53L1817.46 260.849L1817.5 260.745H1837.09L1849.42 273.078H1875.53L1889.61 259L1875.53 244.927H1849.42L1837.09 257.255H1817.5L1817.46 257.156L1838.53 236.078H1863.2L1876.55 222.724C1876.55 214.505 1876.55 206.281 1876.55 198.057L1897.62 176.984L1897.73 177.026V196.615L1885.4 208.948V235.057L1899.47 249.135L1913.55 235.057V208.943L1901.22 196.609V177.026L1901.32 176.979L1922.4 198.052V222.724L1935.75 236.078H1960.42L1981.49 257.151L1981.45 257.255H1961.86L1949.53 244.922H1923.42L1909.34 259L1923.42 273.078H1949.53L1961.86 260.74H1981.45L1981.49 260.844L1960.42 281.917H1935.75L1922.4 295.276V319.943L1901.32 341.016L1901.22 340.969V321.385L1913.55 309.052V282.943L1899.47 268.87ZM1899.47 244.203L1888.89 233.609V210.391L1899.47 199.797L1910.06 210.391V233.609L1899.47 244.203ZM1926.6 172.667L1937.2 162.078H1960.42L1971.01 172.667L1960.42 183.255H1937.2L1926.6 172.667ZM1975.94 172.667L1961.86 158.589H1935.75L1923.42 170.922H1903.83L1903.79 170.818L1924.86 149.745H1949.53L1962.89 136.391V111.724L1983.96 90.651L1984.06 90.6927V110.281L1971.73 122.615C1971.73 131.318 1971.73 140.021 1971.73 148.724L1985.81 162.802L1999.89 148.724V122.615L1987.55 110.281V90.6927L1987.66 90.651L2008.73 111.724C2008.73 119.948 2008.73 128.167 2008.73 136.391L2022.08 149.745H2046.75L2067.82 170.818L2067.78 170.922H2048.2L2035.86 158.589H2009.76L1995.68 172.667L2009.76 186.745H2035.86L2048.2 174.411H2067.79L2067.83 174.516L2046.76 195.589H2022.09L2008.73 208.943V233.609L1987.66 254.682L1987.55 254.641V235.052L1999.89 222.719V196.609L1985.81 182.531L1971.73 196.609C1971.73 205.312 1971.73 214.016 1971.73 222.719L1984.07 235.052V254.641L1983.96 254.682L1962.89 233.609V208.943L1949.53 195.589H1924.86L1903.79 174.516L1903.83 174.411H1923.42L1935.76 186.745H1961.87L1975.94 172.667ZM2000.61 172.667L2011.2 162.078H2034.42L2045.01 172.667L2034.42 183.255H2011.2L2000.61 172.667ZM1948.08 318.922H1925.89V296.719L1937.2 285.411H1959.4V307.609L1948.08 318.922ZM1925.89 221.276V199.078H1948.08L1959.4 210.391V232.589H1937.2L1925.89 221.276ZM2023.53 199.078H2045.73V221.276L2034.42 232.589H2012.22V210.391L2023.53 199.078ZM2045.73 296.719V318.922H2023.53L2012.22 307.609V285.411H2034.42L2045.73 296.719ZM1948.08 269.589H1924.86L1914.28 259L1924.86 248.411H1948.08L1958.67 259L1948.08 269.589ZM1975.22 221.276V198.057L1985.81 187.464L1996.4 198.057V221.276L1985.81 231.865L1975.22 221.276ZM2023.53 248.411H2046.75L2057.34 259L2046.75 269.589H2023.53L2012.94 259L2023.53 248.411ZM1996.4 296.719V319.943L1985.81 330.531L1975.22 319.943V296.719L1985.81 286.13L1996.4 296.719ZM1938.86 212.052C1940.95 209.969 1944.33 209.969 1946.42 212.052C1948.51 214.141 1948.51 217.526 1946.42 219.609C1944.33 221.698 1940.95 221.698 1938.86 219.609C1936.78 217.526 1936.78 214.141 1938.86 212.052ZM2032.75 212.052C2034.84 214.141 2034.84 217.526 2032.75 219.609C2030.67 221.698 2027.28 221.698 2025.2 219.609C2023.11 217.526 2023.11 214.141 2025.2 212.052C2027.28 209.969 2030.67 209.969 2032.75 212.052ZM2032.75 305.943C2030.67 308.031 2027.28 308.031 2025.2 305.943C2023.11 303.859 2023.11 300.474 2025.2 298.391C2027.28 296.302 2030.66 296.302 2032.75 298.391C2034.84 300.474 2034.84 303.859 2032.75 305.943ZM1766.2 305.943C1764.11 303.859 1764.11 300.474 1766.2 298.391C1768.28 296.302 1771.67 296.302 1773.76 298.391C1775.84 300.474 1775.84 303.859 1773.76 305.943C1771.67 308.031 1768.28 308.031 1766.2 305.943ZM1726.81 318.198L1716.22 307.609V284.391L1726.81 273.797L1737.4 284.391V307.609L1726.81 318.198ZM1726.81 268.87L1712.73 282.943V309.057L1725.06 321.391V340.974L1724.96 341.021L1703.89 319.943V295.276L1690.53 281.922H1665.86L1644.79 260.849L1644.83 260.745H1664.42L1676.76 273.078H1702.86L1716.94 259L1702.86 244.927H1676.75L1664.42 257.255H1644.83L1644.79 257.156L1665.86 236.078H1690.53L1703.89 222.724C1703.89 214.505 1703.89 206.281 1703.89 198.057L1724.96 176.984L1725.06 177.026V196.615L1712.73 208.948V235.057L1726.81 249.135L1740.89 235.057V208.943L1728.55 196.609V177.026L1728.65 176.979L1749.72 198.052V222.724L1763.08 236.078H1787.75L1808.82 257.151L1808.78 257.255H1789.19L1776.86 244.922H1750.75L1736.68 259L1750.75 273.078H1776.86L1789.2 260.74H1808.78L1808.83 260.844L1787.76 281.917H1763.09L1749.73 295.276V319.943L1728.66 341.016L1728.55 340.969V321.385L1740.89 309.052V282.943L1726.81 268.87ZM1726.81 244.203L1716.22 233.609V210.391L1726.81 199.797L1737.4 210.391V233.609L1726.81 244.203ZM1753.94 172.667L1764.53 162.078H1787.75L1798.34 172.667L1787.75 183.255H1764.53L1753.94 172.667ZM1803.27 172.667L1789.2 158.589H1763.09L1750.75 170.922H1731.17L1731.12 170.818L1752.2 149.745H1776.86L1790.22 136.391V111.724L1811.29 90.651L1811.4 90.6927V110.281L1799.06 122.615C1799.06 131.318 1799.06 140.021 1799.06 148.724L1813.14 162.802L1827.22 148.724V122.615L1814.89 110.281V90.6927L1814.99 90.651L1836.06 111.724C1836.06 119.948 1836.06 128.167 1836.06 136.391L1849.42 149.745H1874.08L1895.16 170.818L1895.11 170.922H1875.53L1863.19 158.589H1837.08L1823.01 172.667L1837.08 186.745H1863.19L1875.53 174.411H1895.11L1895.16 174.516L1874.08 195.589H1849.42L1836.06 208.943V233.609L1814.99 254.682L1814.89 254.641V235.052L1827.22 222.719V196.609L1813.14 182.531L1799.06 196.609C1799.06 205.312 1799.06 214.016 1799.06 222.719L1811.4 235.052V254.641L1811.29 254.682L1790.22 233.609V208.943L1776.86 195.589H1752.2L1731.12 174.516L1731.17 174.411H1750.75L1763.09 186.745H1789.2L1803.27 172.667ZM1827.94 172.667L1838.53 162.078H1861.75L1872.34 172.667L1861.75 183.255H1838.53L1827.94 172.667ZM1775.42 318.922H1753.22V296.719L1764.53 285.411H1786.73V307.609L1775.42 318.922ZM1753.22 221.276V199.078H1775.42L1786.73 210.391V232.589H1764.53L1753.22 221.276ZM1850.86 199.078H1873.06V221.276L1861.75 232.589H1839.55V210.391L1850.86 199.078ZM1873.06 296.719V318.922H1850.86L1839.55 307.609V285.411H1861.75L1873.06 296.719ZM1775.42 269.589H1752.2L1741.6 259L1752.2 248.411H1775.42L1786.01 259L1775.42 269.589ZM1802.55 221.276V198.057L1813.14 187.464L1823.73 198.057V221.276L1813.14 231.865L1802.55 221.276ZM1850.86 248.411H1874.08L1884.68 259L1874.08 269.589H1850.86L1840.28 259L1850.86 248.411ZM1823.73 296.719V319.943L1813.14 330.531L1802.55 319.943V296.719L1813.14 286.13L1823.73 296.719ZM1766.2 212.052C1768.28 209.969 1771.67 209.969 1773.76 212.052C1775.84 214.141 1775.84 217.526 1773.76 219.609C1771.67 221.698 1768.28 221.698 1766.2 219.609C1764.11 217.526 1764.11 214.141 1766.2 212.052ZM1860.08 212.052C1862.17 214.141 1862.17 217.526 1860.08 219.609C1858 221.698 1854.62 221.698 1852.53 219.609C1850.44 217.526 1850.44 214.141 1852.53 212.052C1854.61 209.969 1858 209.969 1860.08 212.052ZM1860.08 305.943C1858 308.031 1854.62 308.031 1852.53 305.943C1850.44 303.859 1850.44 300.474 1852.53 298.391C1854.61 296.302 1858 296.302 1860.08 298.391C1862.17 300.474 1862.17 303.859 1860.08 305.943ZM1593.53 305.943C1591.44 303.859 1591.44 300.474 1593.53 298.391C1595.61 296.302 1599 296.302 1601.08 298.391C1603.17 300.474 1603.17 303.859 1601.08 305.943C1599 308.031 1595.61 308.031 1593.53 305.943ZM1581.28 172.667L1591.86 162.078H1615.08L1625.67 172.667L1615.08 183.255H1591.86L1581.28 172.667ZM1630.6 172.667L1616.53 186.745H1590.42L1578.08 174.411H1558.5L1558.45 174.516L1579.53 195.589H1604.19L1617.55 208.943V233.609L1638.62 254.682L1638.73 254.641V235.052L1626.4 222.719C1626.4 214.016 1626.4 205.312 1626.4 196.609L1640.47 182.531L1654.55 196.609V222.719L1642.22 235.052V254.641L1642.32 254.682L1663.4 233.609V208.943L1676.75 195.589H1701.42L1722.49 174.516L1722.45 174.411H1702.86L1690.53 186.745H1664.42L1650.34 172.667L1664.42 158.589H1690.53L1702.86 170.922H1722.45L1722.49 170.818L1701.42 149.745H1676.75L1663.4 136.391C1663.4 128.167 1663.4 119.948 1663.4 111.724L1642.32 90.651L1642.22 90.6927V110.281L1654.55 122.615V148.724L1640.47 162.802L1626.4 148.724C1626.4 140.021 1626.4 131.318 1626.4 122.615L1638.73 110.281V90.6927L1638.62 90.651L1617.55 111.724V136.391L1604.2 149.745H1579.53L1558.46 170.818L1558.5 170.922H1578.08L1590.42 158.589H1616.53L1630.6 172.667ZM1655.28 172.667L1665.86 162.078H1689.09L1699.68 172.667L1689.09 183.255H1665.86L1655.28 172.667ZM1602.75 318.922H1580.55V296.719L1591.86 285.411H1614.06V307.609L1602.75 318.922ZM1580.55 221.276V199.078H1602.75L1614.06 210.391V232.589H1591.86L1580.55 221.276ZM1678.19 199.078H1700.4V221.276L1689.08 232.589H1666.89V210.391L1678.19 199.078ZM1700.4 296.719V318.922H1678.19L1666.89 307.609V285.411H1689.08L1700.4 296.719ZM1602.75 269.589H1579.53L1568.94 259L1579.53 248.411H1602.75L1613.34 259L1602.75 269.589ZM1629.89 221.276V198.057L1640.47 187.464L1651.06 198.057V221.276L1640.47 231.865L1629.89 221.276ZM1678.19 248.411H1701.42L1712.01 259L1701.42 269.589H1678.19L1667.61 259L1678.19 248.411ZM1651.06 296.719V319.943L1640.47 330.531L1629.89 319.943V296.719L1640.47 286.13L1651.06 296.719ZM1593.53 212.052C1595.61 209.969 1599 209.969 1601.08 212.052C1603.17 214.141 1603.17 217.526 1601.08 219.609C1599 221.698 1595.61 221.698 1593.53 219.609C1591.44 217.526 1591.44 214.141 1593.53 212.052ZM1687.42 212.052C1689.51 214.141 1689.51 217.526 1687.42 219.609C1685.33 221.698 1681.95 221.698 1679.86 219.609C1677.78 217.526 1677.78 214.141 1679.86 212.052C1681.95 209.969 1685.33 209.969 1687.42 212.052ZM1687.42 305.943C1685.33 308.031 1681.95 308.031 1679.86 305.943C1677.78 303.859 1677.78 300.474 1679.86 298.391C1681.95 296.302 1685.33 296.302 1687.42 298.391C1689.51 300.474 1689.51 303.859 1687.42 305.943ZM1938.86 133.276C1936.78 131.188 1936.78 127.807 1938.86 125.719C1940.95 123.635 1944.33 123.635 1946.42 125.719C1948.51 127.807 1948.51 131.188 1946.42 133.276C1944.33 135.365 1940.95 135.365 1938.86 133.276ZM1899.47 145.536L1888.89 134.943V111.719L1899.47 101.13L1910.06 111.719V134.943L1899.47 145.536ZM1899.47 96.1979L1885.4 110.276V136.385L1897.73 148.724V168.307L1897.62 168.354L1876.55 147.281V122.609L1863.2 109.255H1838.53L1817.46 88.1823L1817.5 88.0781H1837.09L1849.42 100.411H1875.53L1889.61 86.3333L1875.53 72.2552H1849.42L1837.09 84.5885H1817.5L1817.46 84.4844L1838.53 63.4115H1863.2L1876.55 50.0573C1876.55 41.8333 1876.55 33.6146 1876.55 25.3906L1897.62 4.31771L1897.73 4.35938V23.9479L1885.4 36.2812V62.3906L1899.47 76.4688L1913.55 62.3906V36.2812L1901.22 23.9479V4.35938L1901.32 4.31771L1922.4 25.3906V50.0573L1935.75 63.4115H1960.42L1981.49 84.4844L1981.45 84.5885H1961.86L1949.53 72.2552H1923.42L1909.34 86.3333L1923.42 100.411H1949.53L1961.86 88.0781H1981.45L1981.49 88.1823L1960.42 109.255H1935.75L1922.4 122.609V147.281L1901.32 168.354L1901.22 168.307V148.724L1913.55 136.385V110.276L1899.47 96.1979ZM1899.47 71.5312L1888.89 60.9427V37.7188L1899.47 27.1302L1910.06 37.7188V60.9427L1899.47 71.5312ZM1948.08 146.255H1925.89V124.052L1937.2 112.745H1959.4V134.943L1948.08 146.255ZM1925.89 48.6094V26.4115H1948.08L1959.4 37.7188V59.9219H1937.2L1925.89 48.6094ZM2023.53 26.4115H2045.73V48.6094L2034.42 59.9219H2012.22V37.7188L2023.53 26.4115ZM2045.73 124.057V146.255H2023.53L2012.22 134.943V112.745H2034.42L2045.73 124.057ZM1948.08 96.9219H1924.86L1914.28 86.3333L1924.86 75.7448H1948.08L1958.67 86.3333L1948.08 96.9219ZM1975.22 48.6094V25.3906L1985.81 14.7969L1996.4 25.3906V48.6094L1985.81 59.1979L1975.22 48.6094ZM2023.53 75.7448H2046.75L2057.34 86.3333L2046.75 96.9219H2023.53L2012.94 86.3333L2023.53 75.7448ZM1996.4 124.057V147.281L1985.81 157.87L1975.22 147.281V124.057L1985.81 113.469L1996.4 124.057ZM1938.86 39.3854C1940.95 37.3021 1944.33 37.3021 1946.42 39.3854C1948.51 41.474 1948.51 44.8594 1946.42 46.9427C1944.33 49.0313 1940.95 49.0313 1938.86 46.9427C1936.78 44.8594 1936.78 41.474 1938.86 39.3854ZM2032.75 39.3854C2034.84 41.474 2034.84 44.8594 2032.75 46.9427C2030.67 49.0313 2027.28 49.0313 2025.2 46.9427C2023.11 44.8594 2023.11 41.474 2025.2 39.3854C2027.28 37.3021 2030.67 37.3021 2032.75 39.3854ZM2032.75 133.276C2030.67 135.365 2027.28 135.365 2025.2 133.276C2023.11 131.188 2023.11 127.807 2025.2 125.719C2027.28 123.635 2030.66 123.635 2032.75 125.719C2034.84 127.807 2034.84 131.188 2032.75 133.276ZM1766.2 133.276C1764.11 131.188 1764.11 127.807 1766.2 125.719C1768.28 123.635 1771.67 123.635 1773.76 125.719C1775.84 127.807 1775.84 131.188 1773.76 133.276C1771.67 135.365 1768.28 135.365 1766.2 133.276ZM1726.81 145.536L1716.22 134.943V111.719L1726.81 101.13L1737.4 111.719V134.943L1726.81 145.536ZM1726.81 96.1979L1712.73 110.276V136.385L1725.06 148.724V168.307L1724.96 168.354L1703.89 147.281V122.609L1690.53 109.255H1665.86L1644.79 88.1823L1644.83 88.0781H1664.42L1676.76 100.411H1702.86L1716.94 86.3333L1702.86 72.2552H1676.75L1664.42 84.5885H1644.83L1644.79 84.4844L1665.86 63.4115H1690.53L1703.89 50.0573C1703.89 41.8333 1703.89 33.6146 1703.89 25.3906L1724.96 4.31771L1725.06 4.35938V23.9479L1712.73 36.2812V62.3906L1726.81 76.4688L1740.89 62.3906V36.2812L1728.55 23.9479V4.35938L1728.65 4.31771L1749.72 25.3906V50.0573L1763.08 63.4115H1787.75L1808.82 84.4844L1808.78 84.5885H1789.19L1776.86 72.2552H1750.75L1736.68 86.3333L1750.75 100.411H1776.86L1789.2 88.0781H1808.78L1808.83 88.1823L1787.76 109.255H1763.09L1749.73 122.609V147.281L1728.66 168.354L1728.55 168.307V148.724L1740.89 136.385V110.276L1726.81 96.1979ZM1726.81 71.5312L1716.22 60.9427V37.7188L1726.81 27.1302L1737.4 37.7188V60.9427L1726.81 71.5312ZM1775.42 146.255H1753.22V124.052L1764.53 112.745H1786.73V134.943L1775.42 146.255ZM1753.22 48.6094V26.4115H1775.42L1786.73 37.7188V59.9219H1764.53L1753.22 48.6094ZM1850.86 26.4115H1873.06V48.6094L1861.75 59.9219H1839.55V37.7188L1850.86 26.4115ZM1873.06 124.057V146.255H1850.86L1839.55 134.943V112.745H1861.75L1873.06 124.057ZM1775.42 96.9219H1752.2L1741.6 86.3333L1752.2 75.7448H1775.42L1786.01 86.3333L1775.42 96.9219ZM1802.55 48.6094V25.3906L1813.14 14.7969L1823.73 25.3906V48.6094L1813.14 59.1979L1802.55 48.6094ZM1850.86 75.7448H1874.08L1884.68 86.3333L1874.08 96.9219H1850.86L1840.28 86.3333L1850.86 75.7448ZM1823.73 124.057V147.281L1813.14 157.87L1802.55 147.281V124.057L1813.14 113.469L1823.73 124.057ZM1766.2 39.3854C1768.28 37.3021 1771.67 37.3021 1773.76 39.3854C1775.84 41.474 1775.84 44.8594 1773.76 46.9427C1771.67 49.0313 1768.28 49.0313 1766.2 46.9427C1764.11 44.8594 1764.11 41.474 1766.2 39.3854ZM1860.08 39.3854C1862.17 41.474 1862.17 44.8594 1860.08 46.9427C1858 49.0313 1854.62 49.0313 1852.53 46.9427C1850.44 44.8594 1850.44 41.474 1852.53 39.3854C1854.61 37.3021 1858 37.3021 1860.08 39.3854ZM1860.08 133.276C1858 135.365 1854.62 135.365 1852.53 133.276C1850.44 131.188 1850.44 127.807 1852.53 125.719C1854.61 123.635 1858 123.635 1860.08 125.719C1862.17 127.807 1862.17 131.188 1860.08 133.276ZM1602.75 146.255L1614.06 134.943V112.745H1591.86L1580.55 124.052V146.255H1602.75ZM1580.55 48.6094V26.4115H1602.75L1614.06 37.7188V59.9219H1591.86L1580.55 48.6094ZM1678.19 26.4115H1700.4V48.6094L1689.08 59.9219H1666.89V37.7188L1678.19 26.4115ZM1700.4 124.057V146.255H1678.19L1666.89 134.943V112.745H1689.08L1700.4 124.057ZM1602.75 96.9219H1579.53L1568.94 86.3333L1579.53 75.7448H1602.75L1613.34 86.3333L1602.75 96.9219ZM1629.89 48.6094V25.3906L1640.47 14.7969L1651.06 25.3906V48.6094L1640.47 59.1979L1629.89 48.6094ZM1678.19 75.7448H1701.42L1712.01 86.3333L1701.42 96.9219H1678.19L1667.61 86.3333L1678.19 75.7448ZM1651.06 124.057V147.281L1640.47 157.87L1629.89 147.281V124.057L1640.47 113.469L1651.06 124.057ZM1593.53 39.3854C1595.61 37.3021 1599 37.3021 1601.08 39.3854C1603.17 41.474 1603.17 44.8594 1601.08 46.9427C1599 49.0313 1595.61 49.0313 1593.53 46.9427C1591.44 44.8594 1591.44 41.474 1593.53 39.3854ZM1687.42 39.3854C1689.51 41.474 1689.51 44.8594 1687.42 46.9427C1685.33 49.0313 1681.95 49.0313 1679.86 46.9427C1677.78 44.8594 1677.78 41.474 1679.86 39.3854C1681.95 37.3021 1685.33 37.3021 1687.42 39.3854ZM1687.42 133.276C1685.33 135.365 1681.95 135.365 1679.86 133.276C1677.78 131.188 1677.78 127.807 1679.86 125.719C1681.95 123.635 1685.33 123.635 1687.42 125.719C1689.51 127.807 1689.51 131.188 1687.42 133.276Z" fill="#F4E7E7"/>
</g>
</svg>
