<svg width="61" height="59" viewBox="0 0 61 59" fill="none" xmlns="http://www.w3.org/2000/svg">
<path d="M30.6274 0.104492C13.9544 0.104492 0.385637 13.1736 0.379758 29.2351C0.375839 34.3714 1.77113 39.3843 4.41669 43.7994L0.125 58.8948L16.161 54.8442C20.6217 57.1775 25.5815 58.3946 30.6156 58.3912H30.6274C47.3003 58.3912 60.8691 45.3201 60.875 29.2586C60.8789 21.4787 57.7356 14.1554 52.0231 8.65065C46.3126 3.14395 38.7189 0.106452 30.6274 0.104492ZM30.6274 53.4704H30.6176C26.1064 53.4704 21.6814 52.3025 17.8209 50.0959L16.8998 49.5707L7.38756 51.9732L9.92731 43.0371L9.3296 42.1219C6.81907 38.293 5.48263 33.8137 5.48472 29.2351C5.4906 15.8838 16.7705 5.02524 30.6372 5.02524C37.351 5.0272 43.6632 7.54931 48.4114 12.1252C53.1597 16.701 55.772 22.7858 55.7681 29.2567C55.7622 42.6079 44.4843 53.4704 30.6254 53.4704H30.6274ZM44.4176 35.3336C43.6612 34.9711 39.9456 33.2093 39.2519 32.9644C38.5602 32.7233 38.0565 32.5979 37.5529 33.3269C37.0512 34.0559 35.601 35.6962 35.1621 36.1802C34.7192 36.6662 34.2783 36.725 33.5218 36.3624C32.7654 35.9979 30.3295 35.2298 27.4449 32.7488C25.1971 30.8205 23.6803 28.4375 23.2394 27.7066C22.7985 26.9795 23.1924 26.5856 23.5706 26.2231C23.9096 25.8997 24.327 25.3745 24.7033 24.9493C25.0795 24.524 25.205 24.2203 25.4597 23.7343C25.7105 23.2502 25.5851 22.823 25.395 22.4605C25.205 22.094 23.696 18.5117 23.063 17.0557C22.4516 15.6369 21.8284 15.827 21.364 15.8035C20.9231 15.7839 20.4214 15.778 19.9138 15.778C19.4141 15.778 18.593 15.9602 17.8993 16.6892C17.2075 17.4182 15.2537 19.178 15.2537 22.7603C15.2537 26.3446 17.962 29.8054 18.3402 30.2914C18.7184 30.7754 23.6705 38.1301 31.2525 41.2852C33.0554 42.0318 34.4625 42.4806 35.5618 42.8176C37.3726 43.3722 39.0207 43.2919 40.3219 43.1057C41.7721 42.896 44.7939 41.3459 45.421 39.6469C46.052 37.9478 46.052 36.4898 45.8639 36.1861C45.6797 35.8823 45.1741 35.7001 44.4176 35.3336Z" fill="white"/>
</svg>
