<svg width="67" height="47" viewBox="0 0 67 47" fill="none" xmlns="http://www.w3.org/2000/svg">
<path fill-rule="evenodd" clip-rule="evenodd" d="M59.149 1.82312C61.98 2.58371 64.2196 4.82324 64.9802 7.65431C66.3746 12.8094 66.4168 23.4999 66.4168 23.4999C66.4168 23.4999 66.4168 34.2327 65.0224 39.3456C64.2618 42.1767 62.0223 44.4162 59.1912 45.1768C54.0784 46.5712 33.5002 46.5712 33.5002 46.5712C33.5002 46.5712 12.922 46.5712 7.80911 45.1768C4.97802 44.4162 2.7385 42.1767 1.97791 39.3456C0.583496 34.1905 0.583496 23.4999 0.583496 23.4999C0.583496 23.4999 0.583496 12.8094 1.93566 7.69658C2.69625 4.86549 4.93576 2.62598 7.76685 1.86539C12.8797 0.470956 33.4579 0.428711 33.4579 0.428711C33.4579 0.428711 54.0361 0.428711 59.149 1.82312ZM43.9794 23.5L26.9084 33.3876V13.6123L43.9794 23.5Z" fill="white"/>
</svg>
