  <svg xmlns="http://www.w3.org/2000/svg" width="105" height="92" viewBox="0 0 105 92" fill="none">
  <mask id="mask0_348_1652" style="mask-type:luminance" maskUnits="userSpaceOnUse" x="0" y="0" width="105" height="92">
    <path d="M104.744 0H0V92H104.744V0Z" fill="white"/>
  </mask>
  <g mask="url(#mask0_348_1652)">
    <mask id="mask1_348_1652" style="mask-type:luminance" maskUnits="userSpaceOnUse" x="0" y="0" width="105" height="91">
      <path d="M0.740234 0.767578H104.558V90.4676H0.740234V0.767578Z" fill="white"/>
    </mask>
    <g mask="url(#mask1_348_1652)">
      <path d="M97.9876 16.7128L70.6402 43.9055C69.7677 44.774 69.7677 46.1875 70.6402 47.062L97.9876 74.2487C100.617 76.8602 100.611 81.1188 97.9695 83.7242C96.6638 85.024 94.9369 85.6768 93.204 85.6768C91.4711 85.6768 89.7382 85.024 88.4205 83.7062L54.7432 50.2125C52.1138 47.601 52.1138 43.3604 54.7432 40.7549L88.4205 7.25521C90.9717 4.71563 95.4123 4.71563 97.9695 7.23724C100.611 9.8487 100.617 14.1013 97.9876 16.7128ZM101.153 4.08073C99.0285 1.97838 96.2065 0.816406 93.204 0.816406C90.1895 0.816406 87.3675 1.98438 85.2375 4.0987L51.5482 37.5984C47.1798 41.9409 47.1798 49.0206 51.5482 53.369L85.2375 86.8628C89.6179 91.2292 96.7601 91.2292 101.153 86.8807C105.545 82.5383 105.551 75.4526 101.171 71.0922L75.4177 45.4807L101.171 19.8693C105.551 15.5089 105.545 8.42318 101.153 4.08073ZM8.003 40.7549L41.6863 7.25521C44.2255 4.71563 48.6721 4.71563 51.2353 7.23724C53.8708 9.8487 53.8828 14.1013 51.2534 16.7128L23.912 43.9055C23.0335 44.774 23.0335 46.1875 23.912 47.062L51.2534 74.2487C53.8828 76.8602 53.8708 81.1188 51.2353 83.7242C49.9236 85.024 48.2027 85.6768 46.4698 85.6768C44.7369 85.6768 43.004 85.024 41.6863 83.7062L8.003 50.2125C5.37357 47.601 5.37357 43.3604 8.003 40.7549ZM4.81398 53.369L38.5033 86.8628C42.8777 91.2292 50.0199 91.2292 54.4183 86.8807C58.8047 82.5383 58.8167 75.4526 54.4364 71.0922L28.6775 45.4807L54.4364 19.8693C58.8167 15.5089 58.8047 8.42318 54.4183 4.08073C52.2883 1.97838 49.4663 0.816406 46.4698 0.816406C43.4613 0.816406 40.6273 1.98438 38.5033 4.0987L4.81398 37.5984C0.43961 41.9409 0.43961 49.0206 4.81398 53.369Z" fill="#FF2C07"/>
    </g>
  </g>
</svg>