<svg xmlns="http://www.w3.org/2000/svg" width="104" height="92" viewBox="0 0 104 92" fill="none">
  <mask id="mask0_348_1633" style="mask-type:luminance" maskUnits="userSpaceOnUse" x="0" y="0" width="104" height="93">
    <path d="M103.229 0.000976562H0.0253906V92.001H103.229V0.000976562Z" fill="white"/>
  </mask>
  <g mask="url(#mask0_348_1633)">
    <mask id="mask1_348_1633" style="mask-type:luminance" maskUnits="userSpaceOnUse" x="0" y="1" width="104" height="91">
      <path d="M0.0605469 1.53418H103.228V91.2342H0.0605469V1.53418Z" fill="white"/>
    </mask>
    <g mask="url(#mask1_348_1633)">
      <path d="M6.59435 75.242L33.9417 48.0493C34.8142 47.1808 34.8142 45.7673 33.9417 44.8928L6.59435 17.7001C3.96491 15.0946 3.97695 10.836 6.6124 8.23057C7.92411 6.93083 9.64498 6.27198 11.3779 6.27198C13.1108 6.27198 14.8437 6.93083 16.1614 8.24255L49.8447 41.7423C52.4741 44.3537 52.4741 48.5884 49.8447 51.1998L16.1614 84.6996C13.6162 87.2332 9.17565 87.2332 6.6124 84.7176C3.97695 82.1061 3.96491 77.8475 6.59435 75.242ZM3.4294 87.8741C5.55942 89.9764 8.38141 91.1324 11.3779 91.1324C14.3984 91.1324 17.2204 89.9644 19.3444 87.8561L53.0337 54.3564C57.4081 50.0139 57.4081 42.9282 53.0337 38.5858L19.3444 5.08604C14.97 0.725622 7.82784 0.725622 3.4294 5.06807C-0.957011 9.41651 -0.969045 16.4962 3.41135 20.8566L29.1702 46.4741L3.41135 72.0855C-0.969045 76.4459 -0.957011 83.5256 3.4294 87.8741ZM96.5789 51.1998L62.9016 84.6996C60.3625 87.2332 55.9099 87.2332 53.3526 84.7176C50.7112 82.1061 50.7051 77.8475 53.3346 75.242L80.6759 48.0493C81.5544 47.1808 81.5544 45.7673 80.6759 44.8928L53.3346 17.7001C50.7051 15.0946 50.7112 10.836 53.3526 8.23057C54.6643 6.93083 56.3852 6.27198 58.1181 6.27198C59.851 6.27198 61.5839 6.93083 62.9016 8.24255L96.5789 41.7423C99.2083 44.3537 99.2083 48.5884 96.5789 51.1998ZM99.7739 38.5858L66.0846 5.08604C61.7042 0.725622 54.5681 0.725622 50.1696 5.06807C45.7832 9.41651 45.7712 16.4962 50.1516 20.8566L75.9104 46.4741L50.1516 72.0855C45.7712 76.4459 45.7832 83.5256 50.1696 87.8741C52.2936 89.9764 55.1216 91.1324 58.1181 91.1324C61.1266 91.1324 63.9546 89.9644 66.0846 87.8561L99.7739 54.3564C104.142 50.0139 104.142 42.9282 99.7739 38.5858Z" fill="#FF2C07"/>
    </g>
  </g>
</svg>