<svg width="47" height="47" viewBox="0 0 47 47" fill="none" xmlns="http://www.w3.org/2000/svg">
<mask id="mask0_501_19820" style="mask-type:luminance" maskUnits="userSpaceOnUse" x="0" y="0" width="47" height="47">
<path d="M0.474609 0.176758H46.4746V46.1768H0.474609V0.176758Z" fill="white"/>
</mask>
<g mask="url(#mask0_501_19820)">
<path d="M23.459 0.176758C10.7507 0.176758 0.474609 10.4684 0.474609 23.1768C0.474609 35.8851 10.7507 46.1768 23.459 46.1768C36.1673 46.1768 46.4746 35.8851 46.4746 23.1768C46.4746 10.4684 36.1673 0.176758 23.459 0.176758ZM23.4746 41.5778C13.3079 41.5778 5.07357 33.3434 5.07357 23.1768C5.07357 13.0101 13.3079 4.77572 23.4746 4.77572C33.6361 4.77572 41.8704 13.0101 41.8704 23.1768C41.8704 33.3434 33.6361 41.5778 23.4746 41.5778Z" fill="#FF2C07"/>
<path d="M24.6198 11.6768H21.1719V25.4788L33.2344 32.7236L34.974 29.8955L24.6198 23.7497V11.6768Z" fill="#FF2C07"/>
</g>
</svg>
