<svg width="931" height="522" viewBox="0 0 931 522" fill="none" xmlns="http://www.w3.org/2000/svg">
<path d="M53.4202 232H0.857667L80.9475 -6.91414e-06H144.158L224.135 232H171.573L113.459 53.0156H111.647L53.4202 232ZM50.135 140.809H174.291V179.098H50.135V140.809ZM248.869 232V-6.91414e-06H297.127V87.2266H298.599C300.714 82.5443 303.772 77.7865 307.775 72.9531C311.853 68.0443 317.14 63.9661 323.634 60.7188C330.205 57.3958 338.361 55.7344 348.103 55.7344C360.791 55.7344 372.496 59.0573 383.22 65.7031C393.944 72.2734 402.516 82.2044 408.935 95.4961C415.355 108.712 418.564 125.289 418.564 145.227C418.564 164.635 415.43 181.023 409.162 194.391C402.969 207.682 394.511 217.764 383.787 224.637C373.138 231.434 361.206 234.832 347.99 234.832C338.625 234.832 330.658 233.284 324.088 230.187C317.593 227.091 312.269 223.202 308.115 218.52C303.961 213.762 300.789 208.966 298.599 204.133H296.447V232H248.869ZM296.107 145C296.107 155.346 297.542 164.371 300.412 172.074C303.282 179.777 307.435 185.781 312.873 190.086C318.31 194.315 324.918 196.43 332.697 196.43C340.551 196.43 347.197 194.277 352.634 189.973C358.072 185.592 362.188 179.551 364.982 171.848C367.852 164.069 369.287 155.12 369.287 145C369.287 134.956 367.89 126.12 365.095 118.492C362.301 110.865 358.185 104.898 352.748 100.594C347.31 96.2891 340.627 94.1367 332.697 94.1367C324.843 94.1367 318.197 96.2135 312.759 100.367C307.397 104.521 303.282 110.411 300.412 118.039C297.542 125.667 296.107 134.654 296.107 145ZM526.192 235.398C508.595 235.398 493.378 231.66 480.539 224.184C467.776 216.632 457.921 206.134 450.973 192.691C444.025 179.173 440.551 163.503 440.551 145.68C440.551 127.706 444.025 111.997 450.973 98.5547C457.921 85.0365 467.776 74.5391 480.539 67.0625C493.378 59.5104 508.595 55.7344 526.192 55.7344C543.788 55.7344 558.968 59.5104 571.731 67.0625C584.569 74.5391 594.462 85.0365 601.41 98.5547C608.358 111.997 611.832 127.706 611.832 145.68C611.832 163.503 608.358 179.173 601.41 192.691C594.462 206.134 584.569 216.632 571.731 224.184C558.968 231.66 543.788 235.398 526.192 235.398ZM526.418 198.016C534.423 198.016 541.107 195.75 546.469 191.219C551.831 186.612 555.871 180.344 558.59 172.414C561.384 164.484 562.781 155.46 562.781 145.34C562.781 135.22 561.384 126.195 558.59 118.266C555.871 110.336 551.831 104.068 546.469 99.4609C541.107 94.8542 534.423 92.5508 526.418 92.5508C518.337 92.5508 511.54 94.8542 506.027 99.4609C500.59 104.068 496.474 110.336 493.68 118.266C490.961 126.195 489.602 135.22 489.602 145.34C489.602 155.46 490.961 164.484 493.68 172.414C496.474 180.344 500.59 186.612 506.027 191.219C511.54 195.75 518.337 198.016 526.418 198.016ZM751.603 157.914V58H799.861V232H753.529V200.395H751.716C747.789 210.59 741.257 218.784 732.119 224.977C723.056 231.169 711.992 234.266 698.927 234.266C687.297 234.266 677.064 231.622 668.228 226.336C659.392 221.049 652.482 213.535 647.498 203.793C642.589 194.051 640.097 182.383 640.021 168.789V58H688.279V160.18C688.354 170.451 691.111 178.569 696.548 184.535C701.986 190.501 709.274 193.484 718.412 193.484C724.227 193.484 729.664 192.163 734.724 189.52C739.784 186.801 743.862 182.798 746.959 177.512C750.13 172.225 751.679 165.693 751.603 157.914ZM927.822 58V94.25H823.037V58H927.822ZM846.826 16.3125H895.084V178.531C895.084 182.987 895.764 186.461 897.123 188.953C898.482 191.37 900.37 193.069 902.787 194.051C905.279 195.033 908.149 195.523 911.396 195.523C913.662 195.523 915.928 195.335 918.193 194.957C920.459 194.504 922.196 194.164 923.404 193.937L930.994 229.848C928.577 230.603 925.179 231.471 920.799 232.453C916.419 233.51 911.094 234.152 904.826 234.379C893.196 234.832 883.001 233.284 874.24 229.734C865.555 226.185 858.796 220.672 853.963 213.195C849.13 205.719 846.751 196.279 846.826 184.875V16.3125ZM317.216 330.441V290H507.755V330.441H436.728V522H388.243V330.441H317.216ZM535.944 522V290H692.272V330.441H584.995V385.723H684.229V426.164H584.995V481.559H692.725V522H535.944ZM810.321 522H728.079V290H811.001C834.337 290 854.425 294.645 871.267 303.934C888.108 313.147 901.06 326.401 910.122 343.695C919.26 360.99 923.829 381.682 923.829 405.773C923.829 429.94 919.26 450.708 910.122 468.078C901.06 485.448 888.032 498.777 871.04 508.066C854.123 517.355 833.884 522 810.321 522ZM777.13 479.973H808.282C822.782 479.973 834.979 477.405 844.872 472.27C854.841 467.059 862.317 459.016 867.302 448.141C872.362 437.19 874.892 423.068 874.892 405.773C874.892 388.63 872.362 374.621 867.302 363.746C862.317 352.871 854.879 344.866 844.985 339.73C835.092 334.595 822.896 332.027 808.396 332.027H777.13V479.973Z" fill="white"/>
<path d="M53.4202 232V233H54.1464L54.3711 232.309L53.4202 232ZM0.857667 232L-0.0875936 231.674L-0.545458 233H0.857667V232ZM80.9475 -6.91414e-06V-1.00001H80.2348L80.0023 -0.326325L80.9475 -6.91414e-06ZM144.158 -6.91414e-06L145.104 -0.325912L144.871 -1.00001H144.158V-6.91414e-06ZM224.135 232V233H225.537L225.08 231.674L224.135 232ZM171.573 232L170.621 232.309L170.846 233H171.573V232ZM113.459 53.0156L114.41 52.7068L114.186 52.0156H113.459V53.0156ZM111.647 53.0156V52.0156H110.92L110.696 52.7063L111.647 53.0156ZM50.135 140.809V139.809H49.135V140.809H50.135ZM174.291 140.809H175.291V139.809H174.291V140.809ZM174.291 179.098V180.098H175.291V179.098H174.291ZM50.135 179.098H49.135V180.098H50.135V179.098ZM53.4202 231H0.857667V233H53.4202V231ZM1.80293 232.326L81.8928 0.326311L80.0023 -0.326325L-0.0875936 231.674L1.80293 232.326ZM80.9475 0.999993H144.158V-1.00001H80.9475V0.999993ZM143.213 0.325898L223.19 232.326L225.08 231.674L145.104 -0.325912L143.213 0.325898ZM224.135 231H171.573V233H224.135V231ZM172.524 231.691L114.41 52.7068L112.508 53.3244L170.621 232.309L172.524 231.691ZM113.459 52.0156H111.647V54.0156H113.459V52.0156ZM110.696 52.7063L52.4692 231.691L54.3711 232.309L112.598 53.325L110.696 52.7063ZM50.135 141.809H174.291V139.809H50.135V141.809ZM173.291 140.809V179.098H175.291V140.809H173.291ZM174.291 178.098H50.135V180.098H174.291V178.098ZM51.135 179.098V140.809H49.135V179.098H51.135ZM248.869 232H247.869V233H248.869V232ZM248.869 -6.91414e-06V-1.00001H247.869V-6.91414e-06H248.869ZM297.127 -6.91414e-06H298.127V-1.00001H297.127V-6.91414e-06ZM297.127 87.2266H296.127V88.2266H297.127V87.2266ZM298.599 87.2266V88.2266H299.245L299.511 87.6381L298.599 87.2266ZM307.775 72.9531L307.006 72.3141L307.005 72.3153L307.775 72.9531ZM323.634 60.7188L324.082 61.6132L324.086 61.6111L323.634 60.7188ZM383.22 65.7031L382.694 66.5531L382.698 66.5558L383.22 65.7031ZM408.935 95.4961L408.035 95.931L408.036 95.933L408.935 95.4961ZM409.162 194.391L408.256 193.966L408.255 193.968L409.162 194.391ZM383.787 224.637L384.325 225.48L384.326 225.479L383.787 224.637ZM324.088 230.187L323.657 231.09L323.661 231.092L324.088 230.187ZM308.115 218.52L307.362 219.177L307.367 219.183L308.115 218.52ZM298.599 204.133L299.51 203.72L299.244 203.133H298.599V204.133ZM296.447 204.133V203.133H295.447V204.133H296.447ZM296.447 232V233H297.447V232H296.447ZM312.873 190.086L312.252 190.87L312.259 190.875L312.873 190.086ZM352.634 189.973L353.255 190.757L353.262 190.751L352.634 189.973ZM364.982 171.848L364.044 171.502L364.042 171.507L364.982 171.848ZM365.095 118.492L366.034 118.148L366.034 118.148L365.095 118.492ZM352.748 100.594L353.368 99.8097L353.368 99.8097L352.748 100.594ZM312.759 100.367L312.152 99.5725L312.147 99.5766L312.759 100.367ZM300.412 118.039L299.476 117.687L299.476 117.687L300.412 118.039ZM249.869 232V-6.91414e-06H247.869V232H249.869ZM248.869 0.999993H297.127V-1.00001H248.869V0.999993ZM296.127 -6.91414e-06V87.2266H298.127V-6.91414e-06H296.127ZM297.127 88.2266H298.599V86.2266H297.127V88.2266ZM299.511 87.6381C301.581 83.0529 304.588 78.3701 308.545 73.5909L307.005 72.3153C302.957 77.2028 299.846 82.0357 297.688 86.815L299.511 87.6381ZM308.544 73.5921C312.523 68.8035 317.694 64.8072 324.082 61.6132L323.187 59.8243C316.586 63.1251 311.184 67.285 307.006 72.3141L308.544 73.5921ZM324.086 61.6111C330.478 58.3781 338.469 56.7344 348.103 56.7344V54.7344C338.253 54.7344 329.931 56.4136 323.183 59.8264L324.086 61.6111ZM348.103 56.7344C360.606 56.7344 372.129 60.0059 382.694 66.5531L383.747 64.8531C372.864 58.1087 360.976 54.7344 348.103 54.7344V56.7344ZM382.698 66.5558C393.232 73.0096 401.684 82.7814 408.035 95.931L409.836 95.0612C403.348 81.6274 394.657 71.5372 383.743 64.8504L382.698 66.5558ZM408.036 95.933C414.37 108.973 417.564 125.389 417.564 145.227H419.564C419.564 125.189 416.339 108.451 409.835 95.0592L408.036 95.933ZM417.564 145.227C417.564 164.533 414.446 180.767 408.256 193.966L410.067 194.815C416.414 181.28 419.564 164.738 419.564 145.227H417.564ZM408.255 193.968C402.13 207.115 393.789 217.039 383.247 223.795L384.326 225.479C395.233 218.489 403.808 208.25 410.068 194.813L408.255 193.968ZM383.249 223.794C372.769 230.483 361.025 233.832 347.99 233.832V235.832C361.387 235.832 373.508 232.384 384.325 225.48L383.249 223.794ZM347.99 233.832C338.732 233.832 330.918 232.301 324.514 229.283L323.661 231.092C330.398 234.267 338.519 235.832 347.99 235.832V233.832ZM324.518 229.285C318.126 226.238 312.916 222.424 308.863 217.856L307.367 219.183C311.622 223.979 317.06 227.945 323.657 231.09L324.518 229.285ZM308.868 217.862C304.767 213.164 301.653 208.45 299.51 203.72L297.688 204.546C299.926 209.483 303.156 214.359 307.362 219.177L308.868 217.862ZM298.599 203.133H296.447V205.133H298.599V203.133ZM295.447 204.133V232H297.447V204.133H295.447ZM296.447 231H248.869V233H296.447V231ZM295.107 145C295.107 155.436 296.554 164.584 299.475 172.423L301.349 171.725C298.53 164.158 297.107 155.257 297.107 145H295.107ZM299.475 172.423C302.396 180.266 306.647 186.432 312.252 190.87L313.493 189.302C308.224 185.13 304.167 179.289 301.349 171.725L299.475 172.423ZM312.259 190.875C317.894 195.258 324.726 197.43 332.697 197.43V195.43C325.11 195.43 318.726 193.372 313.487 189.297L312.259 190.875ZM332.697 197.43C340.745 197.43 347.618 195.22 353.255 190.757L352.014 189.189C346.776 193.335 340.357 195.43 332.697 195.43V197.43ZM353.262 190.751C358.865 186.238 363.077 180.033 365.922 172.189L364.042 171.507C361.299 179.068 357.279 184.947 352.007 189.194L353.262 190.751ZM365.92 172.194C368.839 164.283 370.287 155.213 370.287 145H368.287C368.287 155.027 366.865 163.855 364.044 171.502L365.92 172.194ZM370.287 145C370.287 134.865 368.877 125.909 366.034 118.148L364.156 118.836C366.902 126.331 368.287 135.046 368.287 145H370.287ZM366.034 118.148C363.188 110.377 358.974 104.247 353.368 99.8097L352.127 101.378C357.397 105.55 361.415 111.352 364.156 118.836L366.034 118.148ZM353.368 99.8097C347.729 95.3454 340.818 93.1367 332.697 93.1367V95.1367C340.435 95.1367 346.891 97.2327 352.127 101.378L353.368 99.8097ZM332.697 93.1367C324.657 93.1367 317.789 95.2665 312.152 99.5725L313.366 101.162C318.605 97.1606 325.028 95.1367 332.697 95.1367V93.1367ZM312.147 99.5766C306.612 103.865 302.398 109.921 299.476 117.687L301.348 118.391C304.166 110.902 308.183 105.177 313.372 101.158L312.147 99.5766ZM299.476 117.687C296.554 125.453 295.107 134.564 295.107 145H297.107C297.107 134.743 298.53 125.88 301.348 118.391L299.476 117.687ZM480.539 224.184L480.03 225.044L480.036 225.048L480.539 224.184ZM450.973 192.691L450.083 193.149L450.084 193.151L450.973 192.691ZM450.973 98.5547L451.861 99.0138L451.862 99.0118L450.973 98.5547ZM480.539 67.0625L481.045 67.9253L481.046 67.9244L480.539 67.0625ZM571.731 67.0625L571.221 67.9231L571.227 67.9266L571.731 67.0625ZM601.41 98.5547L600.521 99.0118L600.522 99.0138L601.41 98.5547ZM601.41 192.691L602.299 193.151L602.3 193.149L601.41 192.691ZM571.731 224.184L572.236 225.046L572.238 225.046L571.731 224.184ZM546.469 191.219L547.114 191.983L547.121 191.977L546.469 191.219ZM558.59 172.414L557.647 172.082L557.644 172.09L558.59 172.414ZM558.59 118.266L557.644 118.59L557.647 118.598L558.59 118.266ZM546.469 99.4609L545.817 100.219L546.469 99.4609ZM506.027 99.4609L505.386 98.6936L505.381 98.6979L506.027 99.4609ZM493.68 118.266L492.737 117.933L492.734 117.941L493.68 118.266ZM493.68 172.414L492.734 172.738L492.737 172.746L493.68 172.414ZM506.027 191.219L505.381 191.982L505.387 191.987L505.393 191.991L506.027 191.219ZM526.192 234.398C508.739 234.398 493.702 230.692 481.042 223.319L480.036 225.048C493.053 232.628 508.451 236.398 526.192 236.398V234.398ZM481.048 223.323C468.45 215.869 458.725 205.512 451.861 192.232L450.084 193.151C457.117 206.756 467.102 217.395 480.03 225.044L481.048 223.323ZM451.862 192.234C444.999 178.88 441.551 163.371 441.551 145.68H439.551C439.551 163.634 443.051 179.466 450.083 193.149L451.862 192.234ZM441.551 145.68C441.551 127.836 444.999 112.29 451.861 99.0138L450.084 98.0955C443.051 111.705 439.551 127.576 439.551 145.68H441.551ZM451.862 99.0118C458.726 85.6576 468.45 75.3031 481.045 67.9253L480.034 66.1996C467.102 73.775 457.116 84.4153 450.083 98.0976L451.862 99.0118ZM481.046 67.9244C493.705 60.4779 508.741 56.7344 526.192 56.7344V54.7344C508.449 54.7344 493.05 58.5429 480.032 66.2006L481.046 67.9244ZM526.192 56.7344C543.642 56.7344 558.639 60.478 571.221 67.9231L572.24 66.2019C559.296 58.5428 543.933 54.7344 526.192 54.7344V56.7344ZM571.227 67.9266C583.897 75.3048 593.658 85.6592 600.521 99.0118L602.3 98.0976C595.267 84.4137 585.241 73.7733 572.234 66.1983L571.227 67.9266ZM600.522 99.0138C607.384 112.29 610.832 127.836 610.832 145.68H612.832C612.832 127.576 609.333 111.705 602.299 98.0955L600.522 99.0138ZM610.832 145.68C610.832 163.371 607.385 178.88 600.521 192.234L602.3 193.149C609.332 179.466 612.832 163.634 612.832 145.68H610.832ZM600.522 192.232C593.659 205.51 583.897 215.867 571.224 223.322L572.238 225.046C585.241 217.396 595.266 206.758 602.299 193.151L600.522 192.232ZM571.225 223.321C558.642 230.692 543.644 234.398 526.192 234.398V236.398C543.932 236.398 559.293 232.629 572.236 225.046L571.225 223.321ZM526.418 199.016C534.624 199.016 541.547 196.688 547.114 191.983L545.823 190.455C540.667 194.812 534.222 197.016 526.418 197.016V199.016ZM547.121 191.977C552.641 187.235 556.77 180.805 559.536 172.738L557.644 172.09C554.972 179.883 551.021 185.989 545.817 190.46L547.121 191.977ZM559.533 172.746C562.372 164.691 563.781 155.55 563.781 145.34H561.781C561.781 155.369 560.397 164.278 557.647 172.082L559.533 172.746ZM563.781 145.34C563.781 135.129 562.372 125.989 559.533 117.933L557.647 118.598C560.397 126.402 561.781 135.311 561.781 145.34H563.781ZM559.536 117.941C556.77 109.875 552.641 103.445 547.121 98.7024L545.817 100.219C551.021 104.69 554.972 110.797 557.644 118.59L559.536 117.941ZM547.121 98.7024C541.553 93.9192 534.629 91.5508 526.418 91.5508V93.5508C534.218 93.5508 540.661 95.7891 545.817 100.219L547.121 98.7024ZM526.418 91.5508C518.134 91.5508 511.102 93.9177 505.386 98.6936L506.669 100.228C511.979 95.7906 518.541 93.5508 526.418 93.5508V91.5508ZM505.381 98.6979C499.786 103.439 495.579 109.867 492.737 117.933L494.623 118.598C497.369 110.805 501.394 104.697 506.674 100.224L505.381 98.6979ZM492.734 117.941C489.973 125.994 488.602 135.132 488.602 145.34H490.602C490.602 135.308 491.949 126.396 494.626 118.59L492.734 117.941ZM488.602 145.34C488.602 155.548 489.973 164.685 492.734 172.738L494.626 172.09C491.949 164.283 490.602 155.371 490.602 145.34H488.602ZM492.737 172.746C495.579 180.813 499.786 187.241 505.381 191.982L506.674 190.456C501.394 185.983 497.369 179.874 494.623 172.082L492.737 172.746ZM505.393 191.991C511.108 196.689 518.138 199.016 526.418 199.016V197.016C518.537 197.016 511.973 194.811 506.662 190.446L505.393 191.991ZM751.603 157.914H750.603L750.603 157.924L751.603 157.914ZM751.603 58V57H750.603V58H751.603ZM799.861 58H800.861V57H799.861V58ZM799.861 232V233H800.861V232H799.861ZM753.529 232H752.529V233H753.529V232ZM753.529 200.395H754.529V199.395H753.529V200.395ZM751.716 200.395V199.395H751.03L750.783 200.035L751.716 200.395ZM732.119 224.977L731.558 224.149L731.555 224.151L732.119 224.977ZM668.228 226.336L668.742 225.478L668.742 225.478L668.228 226.336ZM647.498 203.793L646.605 204.243L646.607 204.248L647.498 203.793ZM640.021 168.789H639.021L639.021 168.795L640.021 168.789ZM640.021 58V57H639.021V58H640.021ZM688.279 58H689.279V57H688.279V58ZM688.279 160.18H687.279L687.279 160.187L688.279 160.18ZM696.548 184.535L697.287 183.862L697.287 183.862L696.548 184.535ZM734.724 189.52L735.187 190.406L735.198 190.4L734.724 189.52ZM746.959 177.512L746.101 176.997L746.096 177.006L746.959 177.512ZM752.603 157.914V58H750.603V157.914H752.603ZM751.603 59H799.861V57H751.603V59ZM798.861 58V232H800.861V58H798.861ZM799.861 231H753.529V233H799.861V231ZM754.529 232V200.395H752.529V232H754.529ZM753.529 199.395H751.716V201.395H753.529V199.395ZM750.783 200.035C746.93 210.038 740.529 218.069 731.558 224.149L732.68 225.804C741.985 219.498 748.648 211.142 752.65 200.754L750.783 200.035ZM731.555 224.151C722.688 230.21 711.83 233.266 698.927 233.266V235.266C712.155 235.266 723.425 232.129 732.683 225.802L731.555 224.151ZM698.927 233.266C687.454 233.266 677.403 230.66 668.742 225.478L667.715 227.194C676.725 232.585 687.14 235.266 698.927 235.266V233.266ZM668.742 225.478C660.077 220.294 653.292 212.924 648.388 203.337L646.607 204.248C651.672 214.147 658.708 221.805 667.715 227.194L668.742 225.478ZM648.391 203.343C643.566 193.768 641.096 182.26 641.021 168.784L639.021 168.795C639.097 182.506 641.611 194.333 646.605 204.243L648.391 203.343ZM641.021 168.789V58H639.021V168.789H641.021ZM640.021 59H688.279V57H640.021V59ZM687.279 58V160.18H689.279V58H687.279ZM687.279 160.187C687.356 170.635 690.164 179.015 695.809 185.209L697.287 183.862C692.058 178.123 689.353 170.266 689.279 160.172L687.279 160.187ZM695.809 185.209C701.462 191.411 709.033 194.484 718.412 194.484V192.484C709.514 192.484 702.509 189.591 697.287 183.862L695.809 185.209ZM718.412 194.484C724.385 194.484 729.982 193.125 735.187 190.406L734.261 188.633C729.347 191.2 724.069 192.484 718.412 192.484V194.484ZM735.198 190.4C740.43 187.589 744.639 183.451 747.821 178.017L746.096 177.006C743.086 182.145 739.138 186.013 734.251 188.639L735.198 190.4ZM747.816 178.026C751.105 172.545 752.68 165.82 752.603 157.904L750.603 157.924C750.677 165.566 749.156 171.906 746.101 176.997L747.816 178.026ZM927.822 58H928.822V57H927.822V58ZM927.822 94.25V95.25H928.822V94.25H927.822ZM823.037 94.25H822.037V95.25H823.037V94.25ZM823.037 58V57H822.037V58H823.037ZM846.826 16.3125V15.3125H845.826V16.3125H846.826ZM895.084 16.3125H896.084V15.3125H895.084V16.3125ZM897.123 188.953L896.245 189.432L896.251 189.443L897.123 188.953ZM902.787 194.051L902.411 194.977L902.421 194.981L902.787 194.051ZM918.193 194.957L918.358 195.943L918.374 195.941L918.389 195.938L918.193 194.957ZM923.404 193.937L924.383 193.731L924.181 192.775L923.22 192.955L923.404 193.937ZM930.994 229.848L931.292 230.802L932.161 230.531L931.973 229.641L930.994 229.848ZM920.799 232.453L920.58 231.477L920.572 231.479L920.564 231.481L920.799 232.453ZM904.826 234.379L904.79 233.38L904.787 233.38L904.826 234.379ZM874.24 229.734L873.862 230.66L873.865 230.661L874.24 229.734ZM853.963 213.195L854.803 212.652L854.803 212.652L853.963 213.195ZM846.826 184.875L847.826 184.882V184.875H846.826ZM926.822 58V94.25H928.822V58H926.822ZM927.822 93.25H823.037V95.25H927.822V93.25ZM824.037 94.25V58H822.037V94.25H824.037ZM823.037 59H927.822V57H823.037V59ZM846.826 17.3125H895.084V15.3125H846.826V17.3125ZM894.084 16.3125V178.531H896.084V16.3125H894.084ZM894.084 178.531C894.084 183.068 894.773 186.732 896.245 189.432L898.001 188.474C896.755 186.19 896.084 182.906 896.084 178.531H894.084ZM896.251 189.443C897.714 192.044 899.771 193.905 902.411 194.977L903.163 193.124C900.97 192.233 899.251 190.696 897.995 188.463L896.251 189.443ZM902.421 194.981C905.051 196.018 908.05 196.523 911.396 196.523V194.523C908.249 194.523 905.507 194.048 903.154 193.12L902.421 194.981ZM911.396 196.523C913.718 196.523 916.039 196.33 918.358 195.943L918.029 193.971C915.817 194.339 913.606 194.523 911.396 194.523V196.523ZM918.389 195.938C920.654 195.485 922.386 195.146 923.589 194.92L923.22 192.955C922.006 193.182 920.264 193.523 917.997 193.976L918.389 195.938ZM922.426 194.144L930.016 230.054L931.973 229.641L924.383 193.731L922.426 194.144ZM930.696 228.893C928.318 229.636 924.951 230.498 920.58 231.477L921.018 233.429C925.408 232.445 928.837 231.569 931.292 230.802L930.696 228.893ZM920.564 231.481C916.269 232.518 911.015 233.155 904.79 233.38L904.862 235.378C911.174 235.15 916.568 234.503 921.033 233.425L920.564 231.481ZM904.787 233.38C893.267 233.829 883.218 232.293 874.616 228.808L873.865 230.661C882.783 234.275 893.125 235.836 904.865 235.378L904.787 233.38ZM874.619 228.809C866.112 225.332 859.519 219.948 854.803 212.652L853.123 213.738C858.074 221.396 864.998 227.038 873.862 230.66L874.619 228.809ZM854.803 212.652C850.101 205.38 847.752 196.145 847.826 184.882L845.826 184.868C845.75 196.413 848.158 206.058 853.123 213.738L854.803 212.652ZM847.826 184.875V16.3125H845.826V184.875H847.826ZM317.216 330.441H316.216V331.441H317.216V330.441ZM317.216 290V289H316.216V290H317.216ZM507.755 290H508.755V289H507.755V290ZM507.755 330.441V331.441H508.755V330.441H507.755ZM436.728 330.441V329.441H435.728V330.441H436.728ZM436.728 522V523H437.728V522H436.728ZM388.243 522H387.243V523H388.243V522ZM388.243 330.441H389.243V329.441H388.243V330.441ZM318.216 330.441V290H316.216V330.441H318.216ZM317.216 291H507.755V289H317.216V291ZM506.755 290V330.441H508.755V290H506.755ZM507.755 329.441H436.728V331.441H507.755V329.441ZM435.728 330.441V522H437.728V330.441H435.728ZM436.728 521H388.243V523H436.728V521ZM389.243 522V330.441H387.243V522H389.243ZM388.243 329.441H317.216V331.441H388.243V329.441ZM535.944 522H534.944V523H535.944V522ZM535.944 290V289H534.944V290H535.944ZM692.272 290H693.272V289H692.272V290ZM692.272 330.441V331.441H693.272V330.441H692.272ZM584.995 330.441V329.441H583.995V330.441H584.995ZM584.995 385.723H583.995V386.723H584.995V385.723ZM684.229 385.723H685.229V384.723H684.229V385.723ZM684.229 426.164V427.164H685.229V426.164H684.229ZM584.995 426.164V425.164H583.995V426.164H584.995ZM584.995 481.559H583.995V482.559H584.995V481.559ZM692.725 481.559H693.725V480.559H692.725V481.559ZM692.725 522V523H693.725V522H692.725ZM536.944 522V290H534.944V522H536.944ZM535.944 291H692.272V289H535.944V291ZM691.272 290V330.441H693.272V290H691.272ZM692.272 329.441H584.995V331.441H692.272V329.441ZM583.995 330.441V385.723H585.995V330.441H583.995ZM584.995 386.723H684.229V384.723H584.995V386.723ZM683.229 385.723V426.164H685.229V385.723H683.229ZM684.229 425.164H584.995V427.164H684.229V425.164ZM583.995 426.164V481.559H585.995V426.164H583.995ZM584.995 482.559H692.725V480.559H584.995V482.559ZM691.725 481.559V522H693.725V481.559H691.725ZM692.725 521H535.944V523H692.725V521ZM728.079 522H727.079V523H728.079V522ZM728.079 290V289H727.079V290H728.079ZM871.267 303.934L870.784 304.809L870.787 304.811L871.267 303.934ZM910.122 343.695L909.236 344.159L909.238 344.162L910.122 343.695ZM910.122 468.078L909.237 467.613L909.235 467.616L910.122 468.078ZM871.04 508.066L870.56 507.189L870.559 507.19L871.04 508.066ZM777.13 479.973H776.13V480.973H777.13V479.973ZM844.872 472.27L845.333 473.157L845.335 473.156L844.872 472.27ZM867.302 448.141L866.394 447.721L866.393 447.724L867.302 448.141ZM867.302 363.746L866.393 364.163L866.395 364.168L867.302 363.746ZM844.985 339.73L845.446 338.843L845.446 338.843L844.985 339.73ZM777.13 332.027V331.027H776.13V332.027H777.13ZM810.321 521H728.079V523H810.321V521ZM729.079 522V290H727.079V522H729.079ZM728.079 291H811.001V289H728.079V291ZM811.001 291C834.204 291 854.119 295.617 870.784 304.809L871.75 303.058C854.732 293.672 834.47 289 811.001 289V291ZM870.787 304.811C887.452 313.928 900.264 327.037 909.236 344.159L911.008 343.231C901.855 325.765 888.764 312.366 871.747 303.056L870.787 304.811ZM909.238 344.162C918.284 361.283 922.829 381.808 922.829 405.773H924.829C924.829 381.557 920.236 360.696 911.006 343.228L909.238 344.162ZM922.829 405.773C922.829 429.815 918.284 450.416 909.237 467.613L911.007 468.544C920.236 451.001 924.829 430.065 924.829 405.773H922.829ZM909.235 467.616C900.263 484.812 887.377 497.996 870.56 507.189L871.52 508.944C888.688 499.559 901.856 486.084 911.009 468.541L909.235 467.616ZM870.559 507.19C853.819 516.382 833.752 521 810.321 521V523C834.015 523 854.428 518.329 871.521 508.943L870.559 507.19ZM777.13 480.973H808.282V478.973H777.13V480.973ZM808.282 480.973C822.896 480.973 835.261 478.385 845.333 473.157L844.411 471.382C834.697 476.425 822.669 478.973 808.282 478.973V480.973ZM845.335 473.156C855.514 467.835 863.14 459.62 868.211 448.557L866.393 447.724C861.494 458.411 854.168 466.282 844.409 471.383L845.335 473.156ZM868.21 448.56C873.351 437.434 875.892 423.154 875.892 405.773H873.892C873.892 422.981 871.373 436.946 866.394 447.721L868.21 448.56ZM875.892 405.773C875.892 388.543 873.35 374.375 868.208 363.324L866.395 364.168C871.373 374.867 873.892 388.718 873.892 405.773H875.892ZM868.211 363.329C863.141 352.268 855.552 344.089 845.446 338.843L844.525 340.618C854.205 345.643 861.494 353.474 866.393 364.163L868.211 363.329ZM845.446 338.843C835.374 333.615 823.009 331.027 808.396 331.027V333.027C822.782 333.027 834.81 335.575 844.525 340.618L845.446 338.843ZM808.396 331.027H777.13V333.027H808.396V331.027ZM776.13 332.027V479.973H778.13V332.027H776.13Z" fill="black" fill-opacity="0.4"/>
</svg>
