<svg width="29" height="28" viewBox="0 0 29 28" fill="none" xmlns="http://www.w3.org/2000/svg">
<mask id="mask0_501_25039" style="mask-type:luminance" maskUnits="userSpaceOnUse" x="0" y="0" width="29" height="28">
<path d="M0.953125 0.900879H28.9531V27.9009H0.953125V0.900879Z" fill="white"/>
</mask>
<g mask="url(#mask0_501_25039)">
<path d="M28.8333 14.1613C28.9531 14.2811 28.9531 14.4634 28.8333 14.5832L15.8802 27.7394C15.8229 27.7967 15.7604 27.8279 15.6719 27.8279L13.724 27.8904C13.6302 27.8904 13.5729 27.8592 13.5104 27.7967C13.4479 27.7394 13.4219 27.6769 13.4219 27.5832V22.4321C13.4219 22.3436 13.4479 22.2811 13.5104 22.2186L21.3542 14.3384L13.4479 6.52066C13.3906 6.45816 13.3594 6.40087 13.3594 6.30712V2.45816C13.3594 2.36962 13.4219 2.24982 13.5104 2.21857L15.4583 0.973782C15.5469 0.91649 15.6406 0.916491 15.7292 0.942532C15.7604 0.942532 15.8229 0.973783 15.8542 1.00503L28.8333 14.1613ZM1.26042 27.8904L3.23438 27.8279C3.32813 27.8279 3.38542 27.7967 3.44792 27.7394L16.401 14.5832C16.5208 14.4634 16.5208 14.2811 16.401 14.1613L3.44792 1.00503C3.41667 0.973783 3.38542 0.942532 3.32812 0.942532C3.23437 0.916491 3.11458 0.91649 3.05208 0.973782L1.10938 2.21857C1.01563 2.24982 0.953125 2.36962 0.953125 2.45816V6.30712C0.953125 6.40087 0.984375 6.45816 1.04688 6.52066L8.89062 14.3384L1.04688 22.2186C0.984375 22.2811 0.953125 22.3436 0.953125 22.4321V27.5832C0.953125 27.6769 0.984375 27.7394 1.04688 27.7967C1.10938 27.8592 1.16667 27.8904 1.26042 27.8904Z" fill="#FF2C07"/>
</g>
</svg>
