<svg width="33" height="46" viewBox="0 0 33 46" fill="none" xmlns="http://www.w3.org/2000/svg">
<mask id="mask0_501_25155" style="mask-type:luminance" maskUnits="userSpaceOnUse" x="0" y="0" width="33" height="46">
<path d="M0.472656 0.53125H32.4727V45.5312H0.472656V0.53125Z" fill="white"/>
</mask>
<g mask="url(#mask0_501_25155)">
<path d="M16.4727 0.53125C7.63932 0.53125 0.472656 7.58333 0.472656 16.2812C0.472656 28.0938 16.4727 45.5312 16.4727 45.5312C16.4727 45.5312 32.4674 28.0938 32.4674 16.2812C32.4674 7.58333 25.3008 0.53125 16.4727 0.53125ZM16.4727 21.9062C13.3164 21.9062 10.7591 19.3854 10.7591 16.2812C10.7591 13.1719 13.3164 10.6562 16.4727 10.6562C19.6237 10.6562 22.181 13.1719 22.181 16.2812C22.181 19.3854 19.6237 21.9062 16.4727 21.9062Z" fill="white"/>
</g>
</svg>
