<svg width="47" height="47" viewBox="0 0 47 47" fill="none" xmlns="http://www.w3.org/2000/svg">
<mask id="mask0_501_25160" style="mask-type:luminance" maskUnits="userSpaceOnUse" x="0" y="0" width="47" height="47">
<path d="M0.472656 0.958008H46.4727V46.958H0.472656V0.958008Z" fill="white"/>
</mask>
<g mask="url(#mask0_501_25160)">
<path d="M23.457 0.958008C10.7487 0.958008 0.472656 11.2497 0.472656 23.958C0.472656 36.6663 10.7487 46.958 23.457 46.958C36.1654 46.958 46.4727 36.6663 46.4727 23.958C46.4727 11.2497 36.1654 0.958008 23.457 0.958008ZM23.4727 42.3591C13.306 42.3591 5.07161 34.1247 5.07161 23.958C5.07161 13.7913 13.306 5.55697 23.4727 5.55697C33.6341 5.55697 41.8685 13.7913 41.8685 23.958C41.8685 34.1247 33.6341 42.3591 23.4727 42.3591Z" fill="white"/>
<path d="M24.6198 12.458H21.1719V26.2549L33.2344 33.4997L34.974 30.6716L24.6198 24.5309V12.458Z" fill="white"/>
</g>
</svg>
